{"_v":2,"glyphs":{"0":{"ha":509,"x_min":58,"x_max":450,"o":"m 254 -9 l 254 -9 q 188 -9 144 33 q 100 74 79 156 q 58 238 58 359 l 58 359 q 58 469 76 551 q 94 633 138 679 q 181 725 255 725 l 255 725 q 331 725 374 679 q 416 633 433 551 q 450 469 450 360 l 450 360 q 450 270 439 201 q 427 132 404 86 q 380 39 343 15 q 306 -9 254 -9 z m 254 17 l 254 17 q 300 17 332 40 q 364 62 384 106 q 404 149 414 213 q 423 277 423 360 l 423 360 q 423 435 415 497 q 407 559 388 605 q 369 650 337 675 q 305 699 255 699 l 255 699 q 206 699 173 674 q 140 649 121 604 q 102 558 94 496 q 85 434 85 360 l 85 360 q 85 277 95 213 q 105 149 126 106 q 146 62 178 40 q 210 17 254 17 z"},"1":{"ha":509,"x_min":91,"x_max":296,"o":"m 296 714 l 296 0 l 270 0 l 270 565 q 270 604 270 632 q 270 660 271 684 l 271 684 q 260 673 249 663 q 238 653 222 640 l 222 640 l 108 545 l 91 565 l 273 714 l 296 714 z"},"2":{"ha":509,"x_min":51,"x_max":438,"o":"m 438 0 l 51 0 l 51 22 l 248 258 q 292 310 323 354 q 353 397 369 442 q 385 486 385 540 l 385 540 q 385 592 366 627 q 347 662 313 680 q 278 698 232 698 l 232 698 q 191 698 152 684 q 113 669 80 643 l 80 643 l 65 665 q 91 685 119 698 q 147 711 176 718 q 205 724 234 724 l 234 724 q 287 724 327 702 q 367 680 390 640 q 412 599 412 541 l 412 541 q 412 482 395 434 q 377 385 345 340 q 313 294 270 243 l 270 243 l 88 27 l 88 26 l 438 26 l 438 0 z"},"3":{"ha":509,"x_min":37,"x_max":433,"o":"m 214 -10 l 214 -10 q 164 -10 119 0 q 73 9 37 25 l 37 25 l 37 54 q 72 38 117 27 q 162 16 213 16 l 213 16 q 308 16 357 63 q 406 109 406 192 l 406 192 q 406 253 379 290 q 352 326 306 342 q 259 358 198 358 l 198 358 l 133 358 l 133 384 l 200 384 q 252 384 295 404 q 338 423 364 460 q 389 497 389 551 l 389 551 q 389 626 345 662 q 301 698 229 698 l 229 698 q 179 698 136 681 q 93 663 56 635 l 56 635 l 42 657 q 82 687 128 706 q 174 724 230 724 l 230 724 q 286 724 328 705 q 370 685 393 647 q 416 609 416 553 l 416 553 q 416 503 397 466 q 378 429 346 406 q 314 383 274 374 l 274 374 l 274 372 q 349 361 391 317 q 433 272 433 192 l 433 192 q 433 132 408 87 q 383 41 335 16 q 286 -10 214 -10 z"},"4":{"ha":509,"x_min":22,"x_max":488,"o":"m 375 0 l 349 0 l 349 187 l 22 187 l 22 211 l 347 718 l 375 718 l 375 213 l 488 213 l 488 187 l 375 187 l 375 0 z m 293 585 l 54 213 l 349 213 l 349 556 q 349 588 349 608 q 349 627 350 644 q 350 660 350 680 l 350 680 l 348 680 q 335 654 322 633 q 309 611 293 585 l 293 585 z"},"5":{"ha":509,"x_min":63,"x_max":447,"o":"m 217 -10 l 217 -10 q 169 -10 131 0 q 92 10 63 24 l 63 24 l 63 55 q 92 38 131 27 q 169 16 218 16 l 218 16 q 283 16 328 41 q 373 66 397 112 q 420 157 420 218 l 420 218 q 420 303 376 352 q 331 400 237 400 l 237 400 q 198 400 163 394 q 128 388 99 378 l 99 378 l 81 393 l 108 714 l 406 714 l 406 688 l 133 688 l 109 408 q 133 415 166 421 q 198 426 240 426 l 240 426 q 308 426 354 402 q 400 377 424 331 q 447 284 447 218 l 447 218 q 447 150 420 99 q 393 47 342 19 q 290 -10 217 -10 z"},"6":{"ha":509,"x_min":64,"x_max":456,"o":"m 267 -10 l 267 -10 q 211 -10 172 14 q 133 38 109 81 q 85 124 75 182 q 64 239 64 306 l 64 306 q 64 399 77 469 q 90 538 115 587 q 139 636 172 667 q 205 697 246 711 q 286 725 332 725 l 332 725 q 356 725 377 723 q 398 720 416 714 l 416 714 l 416 687 q 399 693 377 696 q 355 699 332 699 l 332 699 q 262 699 209 662 q 155 624 124 542 q 93 460 91 329 l 91 329 l 92 329 q 103 355 126 381 q 149 406 186 423 q 222 440 272 440 l 272 440 q 332 440 374 414 q 415 387 436 339 q 456 290 456 224 l 456 224 q 456 153 434 100 q 412 47 370 19 q 327 -10 267 -10 z m 266 16 l 266 16 q 346 16 388 71 q 429 126 429 224 l 429 224 q 429 311 390 363 q 351 414 271 414 l 271 414 q 217 414 177 391 q 137 367 116 331 q 94 294 94 254 l 94 254 q 94 223 101 183 q 108 143 127 105 q 146 66 180 41 q 213 16 266 16 z"},"7":{"ha":509,"x_min":44,"x_max":454,"o":"m 177 0 l 149 0 l 423 688 l 44 688 l 44 714 l 454 714 l 454 695 l 177 0 z"},"8":{"ha":509,"x_min":56,"x_max":452,"o":"m 252 -10 l 252 -10 q 193 -10 149 13 q 105 35 81 77 q 56 118 56 173 l 56 173 q 56 227 78 266 q 99 304 137 332 q 175 360 224 380 l 224 380 q 184 400 151 424 q 117 447 97 481 q 77 514 77 561 l 77 561 q 77 610 100 647 q 122 684 162 704 q 202 724 255 724 l 255 724 q 311 724 350 705 q 389 685 410 650 q 431 614 431 563 l 431 563 q 431 517 413 484 q 394 451 361 427 q 327 402 282 381 l 282 381 q 333 358 372 330 q 410 302 431 266 q 452 229 452 178 l 452 178 q 452 120 426 78 q 400 36 355 13 q 310 -10 252 -10 z m 252 16 l 252 16 q 329 16 377 58 q 425 100 425 176 l 425 176 q 425 217 409 249 q 392 281 359 308 q 326 334 275 357 l 275 357 l 252 366 q 204 347 166 322 q 127 296 105 261 q 83 225 83 173 l 83 173 q 83 99 130 58 q 177 16 252 16 z m 256 394 l 256 394 q 299 414 333 437 q 366 459 385 490 q 404 520 404 562 l 404 562 q 404 630 365 664 q 326 698 255 698 l 255 698 q 188 698 146 662 q 104 626 104 560 l 104 560 q 104 521 123 491 q 141 461 175 438 q 209 414 256 394 z"},"9":{"ha":509,"x_min":52,"x_max":445,"o":"m 177 -10 l 177 -10 q 153 -10 129 -7 q 105 -4 87 1 l 87 1 l 87 29 q 103 23 128 20 q 152 16 177 16 l 177 16 q 231 16 274 37 q 317 58 349 103 q 381 147 399 217 q 417 287 418 386 l 418 386 l 416 386 q 406 361 383 336 q 360 310 324 293 q 288 275 236 275 l 236 275 q 176 275 135 302 q 94 328 73 377 q 52 426 52 492 l 52 492 q 52 564 75 616 q 97 668 140 697 q 182 725 241 725 l 241 725 q 298 725 337 701 q 375 677 399 634 q 423 591 434 534 q 445 477 445 409 l 445 409 q 445 317 432 247 q 419 177 395 128 q 371 79 338 49 q 304 18 264 4 q 223 -10 177 -10 z m 238 301 l 238 301 q 293 301 333 325 q 372 348 393 385 q 414 421 414 461 l 414 461 q 414 492 407 533 q 400 573 382 611 q 363 649 329 674 q 295 699 242 699 l 242 699 q 163 699 121 645 q 79 590 79 492 l 79 492 q 79 405 118 353 q 157 301 238 301 z"},"\r":{"ha":277,"x_min":0,"x_max":0,"o":""}," ":{"ha":277,"x_min":0,"x_max":0,"o":""},"ഀ":{"ha":0,"x_min":-399,"x_max":-158,"o":"m -399 728 l -399 728 q -399 788 -366 826 q -334 864 -279 864 l -279 864 q -224 864 -191 827 q -158 789 -158 728 l -158 728 q -158 667 -191 630 q -224 592 -278 592 l -278 592 q -334 592 -366 630 q -399 668 -399 728 z m -372 729 l -372 729 q -372 679 -348 649 q -325 618 -279 618 l -279 618 q -233 618 -209 649 q -185 679 -185 729 l -185 729 q -185 778 -209 808 q -233 838 -279 838 l -279 838 q -324 838 -348 808 q -372 778 -372 729 z"},"ഁ":{"ha":0,"x_min":-413,"x_max":-142,"o":"m -278 672 l -278 672 q -341 672 -377 705 q -413 737 -413 808 l -413 808 q -413 817 -412 831 q -411 844 -407 856 l -407 856 l -382 851 q -385 841 -386 829 q -387 817 -387 807 l -387 807 q -387 768 -375 744 q -363 720 -338 709 q -314 698 -278 698 l -278 698 q -240 698 -216 711 q -192 724 -180 749 q -168 773 -168 807 l -168 807 q -168 817 -169 830 q -171 842 -173 852 l -173 852 l -148 857 q -145 844 -143 831 q -142 817 -142 807 l -142 807 q -142 738 -180 705 q -219 672 -278 672 z m -278 779 l -278 779 q -294 779 -299 788 q -304 797 -304 810 l -304 810 q -304 822 -299 832 q -294 841 -278 841 l -278 841 q -261 841 -256 832 q -252 822 -252 810 l -252 810 q -252 797 -256 788 q -261 779 -278 779 z"},"ം":{"ha":378,"x_min":37,"x_max":341,"o":"m 189 -12 l 189 -12 q 143 -12 109 10 q 75 31 56 71 q 37 110 37 166 l 37 166 q 37 221 56 261 q 75 301 110 323 q 144 344 190 344 l 190 344 q 235 344 270 323 q 304 301 323 262 q 341 223 341 167 l 341 167 q 341 111 323 71 q 304 31 270 10 q 235 -12 189 -12 z m 190 318 l 190 318 q 132 318 98 280 q 64 241 64 166 l 64 166 q 64 91 98 53 q 132 14 189 14 l 189 14 q 246 14 280 53 q 314 92 314 167 l 314 167 q 314 241 280 280 q 246 318 190 318 z"},"ഃ":{"ha":289,"x_min":37,"x_max":252,"o":"m 37 434 l 37 434 q 37 489 66 524 q 95 558 144 558 l 144 558 q 193 558 223 524 q 252 490 252 434 l 252 434 q 252 378 223 344 q 193 310 144 310 l 144 310 q 94 310 66 345 q 37 379 37 434 z m 64 435 l 64 435 q 64 389 85 363 q 106 336 144 336 l 144 336 q 183 336 204 363 q 225 389 225 435 l 225 435 q 225 479 204 506 q 183 532 144 532 l 144 532 q 106 532 85 506 q 64 479 64 435 z m 37 112 l 37 112 q 37 167 66 202 q 95 236 144 236 l 144 236 q 193 236 223 202 q 252 168 252 112 l 252 112 q 252 56 223 22 q 193 -12 144 -12 l 144 -12 q 94 -12 66 23 q 37 57 37 112 z m 64 113 l 64 113 q 64 67 85 41 q 106 14 144 14 l 144 14 q 183 14 204 41 q 225 67 225 113 l 225 113 q 225 157 204 184 q 183 210 144 210 l 144 210 q 106 210 85 184 q 64 157 64 113 z"},"ഄ":{"ha":498,"x_min":41,"x_max":456,"o":"m 56 303 l 56 303 l 82 298 q 76 272 72 248 q 68 224 68 199 l 68 199 q 68 114 108 66 q 148 17 248 17 l 248 17 q 349 17 389 66 q 429 114 429 198 l 429 198 q 429 224 426 248 q 423 272 416 298 l 416 298 l 442 303 q 448 281 452 254 q 456 226 456 197 l 456 197 q 456 135 436 89 q 415 42 369 17 q 323 -9 248 -9 l 248 -9 q 175 -9 129 17 q 83 42 62 89 q 41 135 41 197 l 41 197 q 41 226 46 254 q 50 281 56 303 z m 236 158 l 236 390 l 262 390 l 262 158 l 236 158 z"},"അ":{"ha":1266,"x_min":44,"x_max":1222,"o":"m 322 558 l 322 558 q 358 558 397 553 q 435 547 469 533 l 469 533 q 472 532 474 530 q 476 528 479 527 l 479 527 q 510 514 535 493 q 559 471 574 442 q 588 412 588 373 l 588 373 q 588 339 576 311 q 564 283 536 266 q 507 249 456 246 l 456 246 l 457 255 q 527 252 563 217 q 598 182 598 122 l 598 122 q 598 82 582 52 q 566 22 535 5 q 504 -12 458 -12 l 458 -12 q 398 -12 358 17 q 317 45 296 100 q 275 154 275 230 l 275 230 q 275 291 293 347 q 310 403 345 448 q 380 492 431 520 l 431 520 q 434 522 437 525 q 439 527 442 528 l 442 528 q 470 543 501 551 q 531 558 566 558 l 566 558 q 639 558 682 533 q 724 508 744 465 q 764 422 766 366 l 766 366 l 773 288 l 773 0 l 747 0 l 747 308 q 747 378 736 420 q 725 461 699 487 l 699 487 q 678 509 645 521 q 612 532 563 532 l 563 532 q 536 532 513 527 q 489 522 468 514 l 468 514 q 428 497 397 468 q 366 439 345 401 q 323 363 313 320 q 302 276 302 231 l 302 231 q 302 128 340 71 q 378 14 458 14 l 458 14 q 512 14 542 41 q 571 68 571 123 l 571 123 q 571 170 541 204 q 510 237 441 237 l 441 237 l 421 237 l 421 263 l 435 263 q 505 263 533 294 q 561 324 561 372 l 561 372 q 561 431 527 465 q 493 499 444 515 l 444 515 q 414 525 383 529 q 351 532 321 532 l 321 532 q 232 532 177 498 q 122 463 97 406 q 71 349 71 281 l 71 281 q 71 217 86 168 q 101 118 129 81 q 157 44 195 13 l 195 13 l 178 -7 q 146 19 115 58 q 84 96 64 151 q 44 205 44 281 l 44 281 q 44 340 62 391 q 79 441 114 479 q 148 516 201 537 q 253 558 322 558 z m 1061 -12 l 1061 -12 q 1009 -12 976 14 q 943 39 927 85 q 911 130 911 188 l 911 188 q 911 284 955 332 q 999 380 1068 380 l 1068 380 q 1106 380 1135 365 q 1163 350 1184 326 q 1204 301 1217 271 l 1217 271 l 1208 253 q 1195 278 1176 301 q 1157 324 1131 339 q 1104 354 1069 354 l 1069 354 q 1003 354 971 311 q 938 267 938 189 l 938 189 q 938 138 950 99 q 962 59 990 37 q 1017 14 1063 14 l 1063 14 q 1105 14 1135 37 q 1164 59 1180 109 q 1196 159 1196 241 l 1196 241 q 1196 254 1196 266 q 1195 278 1194 284 l 1194 284 q 1195 288 1196 292 q 1196 295 1195 299 l 1195 299 q 1186 359 1160 413 q 1134 466 1085 499 q 1035 532 956 532 l 956 532 q 916 532 886 522 q 856 511 834 492 l 834 492 q 814 475 801 451 q 787 427 780 393 q 773 358 773 309 l 773 309 l 773 261 l 754 362 q 758 424 783 468 q 808 511 852 535 q 896 558 955 558 l 955 558 q 1021 558 1071 535 q 1121 511 1155 469 q 1188 426 1205 368 q 1222 310 1222 240 l 1222 240 q 1222 147 1202 92 q 1181 37 1145 13 q 1109 -12 1061 -12 z"},"ആ":{"ha":1388,"x_min":44,"x_max":1358,"o":"m 322 558 l 322 558 q 358 558 397 553 q 435 547 469 533 l 469 533 q 472 532 474 530 q 476 528 479 527 l 479 527 q 510 514 535 493 q 559 471 574 442 q 588 412 588 373 l 588 373 q 588 339 576 311 q 564 283 536 266 q 507 249 456 246 l 456 246 l 457 255 q 527 252 563 217 q 598 182 598 122 l 598 122 q 598 82 582 52 q 566 22 535 5 q 504 -12 458 -12 l 458 -12 q 398 -12 358 17 q 317 45 296 100 q 275 154 275 230 l 275 230 q 275 291 293 347 q 310 403 345 448 q 380 492 431 520 l 431 520 q 434 522 437 525 q 439 527 442 528 l 442 528 q 470 543 501 551 q 531 558 566 558 l 566 558 q 639 558 682 533 q 724 508 744 465 q 764 422 766 366 l 766 366 l 773 288 l 773 0 l 747 0 l 747 308 q 747 378 736 420 q 725 461 699 487 l 699 487 q 678 509 645 521 q 612 532 563 532 l 563 532 q 536 532 513 527 q 489 522 468 514 l 468 514 q 428 497 397 468 q 366 439 345 401 q 323 363 313 320 q 302 276 302 231 l 302 231 q 302 128 340 71 q 378 14 458 14 l 458 14 q 512 14 542 41 q 571 68 571 123 l 571 123 q 571 170 541 204 q 510 237 441 237 l 441 237 l 421 237 l 421 263 l 435 263 q 505 263 533 294 q 561 324 561 372 l 561 372 q 561 431 527 465 q 493 499 444 515 l 444 515 q 414 525 383 529 q 351 532 321 532 l 321 532 q 232 532 177 498 q 122 463 97 406 q 71 349 71 281 l 71 281 q 71 217 86 168 q 101 118 129 81 q 157 44 195 13 l 195 13 l 178 -7 q 146 19 115 58 q 84 96 64 151 q 44 205 44 281 l 44 281 q 44 340 62 391 q 79 441 114 479 q 148 516 201 537 q 253 558 322 558 z m 953 558 l 953 558 q 1024 558 1073 528 q 1122 498 1152 448 q 1182 397 1195 333 l 1195 333 q 1200 307 1202 279 q 1204 251 1204 223 l 1204 223 q 1204 139 1182 88 q 1160 36 1124 12 q 1087 -12 1042 -12 l 1042 -12 q 988 -12 957 14 q 925 39 912 79 q 898 118 898 161 l 898 161 q 898 257 956 307 q 1013 357 1112 357 l 1112 357 q 1127 357 1142 355 q 1157 353 1171 351 l 1171 351 l 1184 349 q 1246 332 1285 292 q 1323 251 1341 196 q 1358 141 1358 81 l 1358 81 q 1358 13 1341 -40 q 1323 -93 1290 -128 q 1256 -164 1209 -182 q 1161 -201 1102 -201 l 1102 -201 q 1060 -201 1025 -194 q 990 -188 962 -177 l 962 -177 l 971 -153 q 996 -163 1030 -169 q 1063 -175 1101 -175 l 1101 -175 q 1159 -175 1202 -157 q 1245 -140 1274 -106 q 1303 -73 1317 -25 q 1331 22 1331 82 l 1331 82 q 1331 139 1315 188 q 1299 236 1267 271 q 1235 306 1187 322 l 1187 322 l 1175 324 q 1160 327 1145 329 q 1129 331 1113 331 l 1113 331 q 1058 331 1016 314 q 973 297 949 260 q 925 222 925 160 l 925 160 q 925 125 935 92 q 944 58 970 36 q 996 14 1042 14 l 1042 14 q 1110 14 1144 69 q 1177 124 1177 223 l 1177 223 q 1177 250 1175 278 q 1172 305 1167 333 l 1167 333 l 1165 345 q 1153 394 1129 437 q 1104 480 1061 506 q 1018 532 953 532 l 953 532 q 915 532 885 522 q 855 511 833 492 l 833 492 q 814 475 801 451 q 787 427 780 393 q 773 358 773 309 l 773 309 l 773 221 l 754 363 q 758 424 783 468 q 808 512 852 535 q 895 558 953 558 z"},"ഇ":{"ha":830,"x_min":44,"x_max":786,"o":"m 274 558 l 274 558 q 329 558 367 541 q 404 523 427 490 q 450 456 459 405 l 459 405 l 451 405 q 464 488 504 523 q 544 558 604 558 l 604 558 q 650 558 685 538 q 719 517 742 481 q 764 445 775 399 q 786 353 786 302 l 786 302 q 786 218 765 158 q 744 98 699 61 l 699 61 q 674 40 641 26 q 608 12 563 6 q 517 0 449 0 l 449 0 l 232 0 q 181 0 150 -5 q 119 -11 101 -30 l 101 -30 q 92 -40 87 -54 q 82 -68 82 -86 l 82 -86 q 82 -108 90 -123 q 97 -139 110 -150 l 110 -150 q 127 -163 155 -169 q 182 -175 228 -175 l 228 -175 l 771 -175 l 771 -201 l 221 -201 q 176 -201 147 -194 q 117 -187 94 -170 l 94 -170 q 75 -156 65 -135 q 55 -114 55 -86 l 55 -86 q 55 -63 62 -44 q 69 -26 82 -13 l 82 -13 q 96 1 115 10 q 133 18 161 22 q 188 26 229 26 l 229 26 l 448 26 q 515 26 558 32 q 601 38 631 50 q 660 62 682 81 l 682 81 q 723 114 741 170 q 759 226 759 301 l 759 301 q 759 364 743 416 q 727 468 693 500 q 658 532 603 532 l 603 532 q 574 532 553 524 q 532 515 517 500 l 517 500 q 490 472 480 428 q 469 384 469 324 l 469 324 l 469 109 l 443 109 l 443 322 q 443 389 429 432 q 414 475 382 501 l 382 501 q 360 518 336 525 q 311 532 273 532 l 273 532 q 223 532 186 514 q 149 496 125 466 q 100 436 87 402 q 73 367 70 333 l 70 333 q 70 331 70 328 q 70 325 70 323 l 70 323 q 70 320 70 314 q 70 308 70 302 l 70 302 q 70 221 94 175 q 118 128 178 128 l 178 128 q 225 128 250 161 q 274 194 274 248 l 274 248 q 274 277 265 303 q 255 328 235 344 q 214 359 178 359 l 178 359 q 142 359 112 342 q 81 325 55 295 l 55 295 l 48 318 q 63 337 82 352 q 101 367 126 376 q 150 385 178 385 l 178 385 q 221 385 248 366 q 275 347 288 316 q 301 284 301 248 l 301 248 q 301 207 287 174 q 273 140 246 121 q 218 102 178 102 l 178 102 q 133 102 103 125 q 73 148 59 193 q 44 238 44 303 l 44 303 q 44 369 70 427 q 96 485 148 522 q 199 558 274 558 z"},"ഈ":{"ha":1470,"x_min":44,"x_max":1424,"o":"m 275 558 l 275 558 q 330 558 368 541 q 405 523 428 490 q 451 456 460 405 l 460 405 l 452 405 q 465 488 505 523 q 545 558 605 558 l 605 558 q 651 558 686 538 q 720 517 743 481 q 765 445 776 399 q 787 353 787 302 l 787 302 q 787 218 766 158 q 745 98 700 61 l 700 61 q 675 40 642 26 q 609 12 564 6 q 518 0 450 0 l 450 0 l 233 0 q 182 0 151 -5 q 120 -11 102 -30 l 102 -30 q 93 -40 88 -54 q 83 -68 83 -86 l 83 -86 q 83 -108 91 -123 q 98 -139 111 -150 l 111 -150 q 128 -163 156 -169 q 183 -175 229 -175 l 229 -175 l 772 -175 l 772 -201 l 222 -201 q 177 -201 148 -194 q 118 -187 95 -170 l 95 -170 q 76 -156 66 -135 q 56 -114 56 -86 l 56 -86 q 56 -63 63 -44 q 70 -26 83 -13 l 83 -13 q 97 1 116 10 q 134 18 162 22 q 189 26 230 26 l 230 26 l 449 26 q 516 26 559 32 q 602 38 632 50 q 661 62 683 81 l 683 81 q 724 114 742 170 q 760 226 760 301 l 760 301 q 760 364 744 416 q 728 468 694 500 q 659 532 604 532 l 604 532 q 575 532 554 524 q 533 515 518 500 l 518 500 q 491 472 481 428 q 470 384 470 324 l 470 324 l 470 109 l 444 109 l 444 322 q 444 389 430 432 q 415 475 383 501 l 383 501 q 361 518 337 525 q 312 532 274 532 l 274 532 q 224 532 187 514 q 150 496 126 466 q 101 436 88 402 q 74 367 71 333 l 71 333 q 71 331 71 328 q 71 325 71 323 l 71 323 q 71 320 71 314 q 71 308 71 302 l 71 302 q 71 221 95 175 q 119 128 179 128 l 179 128 q 226 128 251 161 q 275 194 275 248 l 275 248 q 275 277 266 303 q 256 328 236 344 q 215 359 179 359 l 179 359 q 143 359 113 342 q 82 325 56 295 l 56 295 l 49 318 q 64 337 83 352 q 102 367 127 376 q 151 385 179 385 l 179 385 q 222 385 249 366 q 276 347 289 316 q 302 284 302 248 l 302 248 q 302 207 288 174 q 274 140 247 121 q 219 102 179 102 l 179 102 q 134 102 104 125 q 74 148 60 193 q 45 238 45 303 l 45 303 q 45 369 71 427 q 97 485 149 522 q 200 558 275 558 z m 1267 558 l 1267 558 q 1318 558 1353 527 q 1387 496 1406 439 q 1424 382 1424 301 l 1424 301 q 1424 197 1401 127 q 1377 57 1327 23 q 1276 -12 1195 -12 l 1195 -12 q 1147 -12 1108 -2 q 1069 7 1029 27 l 1029 27 l 1042 50 q 1081 30 1116 22 q 1151 14 1195 14 l 1195 14 q 1273 14 1317 48 q 1361 81 1379 145 q 1397 209 1397 301 l 1397 301 q 1397 417 1362 475 q 1327 532 1267 532 l 1267 532 q 1239 532 1221 523 q 1202 513 1190 496 l 1190 496 q 1170 469 1163 429 q 1155 389 1155 344 l 1155 344 l 1155 255 l 1129 255 l 1129 345 q 1129 402 1121 439 q 1112 476 1092 499 l 1092 499 q 1079 515 1060 524 q 1041 532 1016 532 l 1016 532 q 958 532 928 490 q 898 447 898 382 l 898 382 q 898 350 903 320 q 908 289 916 256 l 916 256 l 891 251 q 882 282 877 316 q 871 349 871 384 l 871 384 q 871 433 888 473 q 905 512 938 535 q 970 558 1016 558 l 1016 558 q 1066 558 1101 528 q 1135 498 1146 423 l 1146 423 l 1138 421 q 1146 493 1182 526 q 1218 558 1267 558 z"},"ഉ":{"ha":583,"x_min":44,"x_max":539,"o":"m 293 558 l 293 558 q 350 558 396 538 q 441 518 473 482 q 505 446 522 397 q 539 347 539 286 l 539 286 q 539 202 518 145 q 497 88 446 54 l 446 54 q 420 35 389 23 q 358 11 320 6 q 281 0 231 0 l 231 0 l 223 0 q 179 0 149 -5 q 119 -11 101 -30 l 101 -30 q 92 -40 87 -54 q 82 -68 82 -86 l 82 -86 q 82 -108 90 -123 q 97 -139 110 -150 l 110 -150 q 127 -163 155 -169 q 182 -175 228 -175 l 228 -175 l 521 -175 l 521 -201 l 221 -201 q 176 -201 147 -194 q 117 -187 94 -170 l 94 -170 q 75 -156 65 -135 q 55 -114 55 -86 l 55 -86 q 55 -63 62 -44 q 69 -26 82 -13 l 82 -13 q 103 8 135 17 q 167 26 223 26 l 223 26 l 230 26 q 282 26 319 32 q 355 37 383 48 q 410 59 431 74 l 431 74 q 477 106 495 159 q 512 212 512 283 l 512 283 q 512 339 498 385 q 483 430 456 463 q 428 496 387 514 q 346 532 294 532 l 294 532 q 236 532 195 514 q 153 495 127 465 q 100 435 87 400 q 74 365 71 333 l 71 333 q 70 331 70 328 q 70 325 70 323 l 70 323 q 70 320 70 314 q 70 308 70 302 l 70 302 q 70 221 94 175 q 118 128 178 128 l 178 128 q 225 128 250 161 q 274 194 274 248 l 274 248 q 274 277 265 303 q 255 328 235 344 q 214 359 178 359 l 178 359 q 142 359 112 342 q 81 325 55 295 l 55 295 l 48 318 q 63 337 82 352 q 101 367 126 376 q 150 385 178 385 l 178 385 q 221 385 248 366 q 275 347 288 316 q 301 284 301 248 l 301 248 q 301 207 287 174 q 273 140 246 121 q 218 102 178 102 l 178 102 q 133 102 103 125 q 73 148 59 193 q 44 238 44 303 l 44 303 q 44 352 59 397 q 74 442 105 479 q 136 515 183 537 q 229 558 293 558 z"},"ഊ":{"ha":1221,"x_min":44,"x_max":1175,"o":"m 294 558 l 294 558 q 351 558 397 538 q 442 518 474 482 q 506 446 523 397 q 540 347 540 286 l 540 286 q 540 202 519 145 q 498 88 447 54 l 447 54 q 421 35 390 23 q 359 11 321 6 q 282 0 232 0 l 232 0 l 224 0 q 180 0 150 -5 q 120 -11 102 -30 l 102 -30 q 93 -40 88 -54 q 83 -68 83 -86 l 83 -86 q 83 -108 91 -123 q 98 -139 111 -150 l 111 -150 q 128 -163 156 -169 q 183 -175 229 -175 l 229 -175 l 522 -175 l 522 -201 l 222 -201 q 177 -201 148 -194 q 118 -187 95 -170 l 95 -170 q 76 -156 66 -135 q 56 -114 56 -86 l 56 -86 q 56 -63 63 -44 q 70 -26 83 -13 l 83 -13 q 104 8 136 17 q 168 26 224 26 l 224 26 l 231 26 q 283 26 320 32 q 356 37 384 48 q 411 59 432 74 l 432 74 q 478 106 496 159 q 513 212 513 283 l 513 283 q 513 339 499 385 q 484 430 457 463 q 429 496 388 514 q 347 532 295 532 l 295 532 q 237 532 196 514 q 154 495 128 465 q 101 435 88 400 q 75 365 72 333 l 72 333 q 71 331 71 328 q 71 325 71 323 l 71 323 q 71 320 71 314 q 71 308 71 302 l 71 302 q 71 221 95 175 q 119 128 179 128 l 179 128 q 226 128 251 161 q 275 194 275 248 l 275 248 q 275 277 266 303 q 256 328 236 344 q 215 359 179 359 l 179 359 q 143 359 113 342 q 82 325 56 295 l 56 295 l 49 318 q 64 337 83 352 q 102 367 127 376 q 151 385 179 385 l 179 385 q 222 385 249 366 q 276 347 289 316 q 302 284 302 248 l 302 248 q 302 207 288 174 q 274 140 247 121 q 219 102 179 102 l 179 102 q 134 102 104 125 q 74 148 60 193 q 45 238 45 303 l 45 303 q 45 352 60 397 q 75 442 106 479 q 137 515 184 537 q 230 558 294 558 z m 1018 558 l 1018 558 q 1069 558 1104 527 q 1138 496 1157 439 q 1175 382 1175 301 l 1175 301 q 1175 197 1152 127 q 1128 57 1078 23 q 1027 -12 946 -12 l 946 -12 q 898 -12 859 -2 q 820 7 780 27 l 780 27 l 793 50 q 832 30 867 22 q 902 14 946 14 l 946 14 q 1024 14 1068 48 q 1112 81 1130 145 q 1148 209 1148 301 l 1148 301 q 1148 417 1113 475 q 1078 532 1018 532 l 1018 532 q 990 532 972 523 q 953 513 941 496 l 941 496 q 921 469 914 429 q 906 389 906 344 l 906 344 l 906 255 l 880 255 l 880 345 q 880 402 872 439 q 863 476 843 499 l 843 499 q 830 515 811 524 q 792 532 767 532 l 767 532 q 709 532 679 490 q 649 447 649 382 l 649 382 q 649 350 654 320 q 659 289 667 256 l 667 256 l 642 251 q 633 282 628 316 q 622 349 622 384 l 622 384 q 622 433 639 473 q 656 512 689 535 q 721 558 767 558 l 767 558 q 817 558 852 528 q 886 498 897 423 l 897 423 l 889 421 q 897 493 933 526 q 969 558 1018 558 z"},"ഋ":{"ha":734,"x_min":41,"x_max":694,"o":"m 548 558 l 548 558 q 617 558 656 506 q 694 454 694 365 l 694 365 q 694 301 677 256 q 659 211 627 181 l 627 181 q 586 141 527 124 q 467 107 394 107 l 394 107 l 341 107 q 292 107 249 115 q 206 122 171 139 q 135 155 107 181 l 107 181 q 77 211 59 256 q 41 301 41 364 l 41 364 q 41 423 59 467 q 76 510 109 534 q 142 558 188 558 l 188 558 q 228 558 256 540 q 284 521 299 489 q 314 456 314 415 l 314 415 q 314 375 299 343 q 284 311 255 294 q 225 276 181 276 l 181 276 q 152 276 128 285 q 104 293 84 308 q 64 322 49 339 l 49 339 l 57 364 q 69 348 87 334 q 104 320 127 311 q 150 302 180 302 l 180 302 q 233 302 260 332 q 287 361 287 415 l 287 415 q 287 467 263 500 q 238 532 188 532 l 188 532 q 146 532 119 510 q 92 487 79 449 q 66 411 66 364 l 66 364 q 66 357 67 351 q 67 344 68 338 l 68 338 l 67 328 q 73 274 96 235 q 119 196 157 172 q 195 147 247 135 q 299 123 363 123 l 363 123 l 370 123 q 434 123 487 135 q 539 147 577 172 q 615 196 638 235 q 661 274 667 328 l 667 328 l 667 338 q 667 344 668 351 q 668 358 668 365 l 668 365 q 668 412 656 450 q 643 488 617 510 q 591 532 548 532 l 548 532 q 497 532 473 498 q 448 464 448 413 l 448 413 q 448 360 475 331 q 501 302 553 302 l 553 302 q 583 302 607 311 q 630 320 648 334 q 665 348 677 364 l 677 364 l 685 339 q 670 322 651 308 q 631 293 607 285 q 582 276 552 276 l 552 276 q 509 276 480 294 q 450 311 436 343 q 421 374 421 413 l 421 413 q 421 455 436 488 q 451 520 480 539 q 508 558 548 558 z m 366 -203 l 366 -203 q 260 -203 194 -185 q 128 -167 98 -130 q 68 -94 68 -41 l 68 -41 q 68 4 88 34 q 108 64 144 82 q 179 99 227 107 q 275 114 332 114 l 332 114 l 403 114 q 459 114 507 107 q 555 99 591 82 q 626 65 646 35 q 666 5 666 -41 l 666 -41 q 666 -93 636 -129 q 606 -166 540 -184 q 474 -203 366 -203 z m 367 -177 l 367 -177 q 468 -177 528 -161 q 587 -146 613 -115 q 639 -85 639 -40 l 639 -40 q 639 -5 624 21 q 608 47 575 64 q 542 81 491 90 q 440 98 369 98 l 369 98 l 363 98 q 270 98 211 83 q 151 68 123 38 q 95 7 95 -40 l 95 -40 q 95 -85 121 -115 q 146 -146 206 -161 q 265 -177 367 -177 z"},"ഌ":{"ha":982,"x_min":47,"x_max":938,"o":"m 299 558 l 299 558 q 379 558 424 516 q 469 474 481 398 l 481 398 l 482 369 l 490 285 l 490 0 l 464 0 l 464 317 q 464 391 448 433 q 432 475 402 500 l 402 500 q 381 517 357 525 q 333 532 298 532 l 298 532 q 229 532 178 494 q 127 455 100 388 q 73 321 73 234 l 73 234 l 73 225 q 73 150 88 104 q 103 57 132 36 q 160 14 200 14 l 200 14 q 227 14 250 27 q 273 39 287 69 q 300 98 300 150 l 300 150 q 300 205 274 241 q 248 276 194 276 l 194 276 q 151 276 116 255 q 81 234 58 206 l 58 206 l 52 231 q 85 269 122 286 q 158 302 194 302 l 194 302 q 230 302 260 286 q 290 269 309 235 q 327 201 327 150 l 327 150 q 327 93 310 58 q 292 22 264 5 q 235 -12 200 -12 l 200 -12 q 157 -12 122 11 q 87 33 67 85 q 47 136 47 225 l 47 225 q 47 327 78 402 q 109 477 166 518 q 223 558 299 558 z m 777 -12 l 777 -12 q 725 -12 692 14 q 659 39 643 85 q 627 130 627 188 l 627 188 q 627 284 672 332 q 716 380 784 380 l 784 380 q 823 380 851 365 q 879 350 900 326 q 920 301 933 271 l 933 271 l 924 253 q 912 278 893 301 q 873 324 847 339 q 821 354 785 354 l 785 354 q 720 354 687 311 q 654 267 654 189 l 654 189 q 654 138 666 99 q 678 59 706 37 q 733 14 779 14 l 779 14 q 821 14 851 37 q 880 59 896 109 q 912 159 912 241 l 912 241 q 912 254 912 266 q 911 278 911 284 l 911 284 q 911 288 912 292 q 912 295 911 299 l 911 299 q 903 359 877 413 q 851 466 801 499 q 751 532 672 532 l 672 532 q 632 532 602 522 q 572 511 550 492 l 550 492 q 531 475 517 451 q 503 427 497 393 q 490 358 490 309 l 490 309 l 490 261 l 470 362 q 473 424 499 468 q 524 511 568 535 q 612 558 671 558 l 671 558 q 737 558 787 535 q 837 511 871 469 q 904 426 921 368 q 938 310 938 240 l 938 240 q 938 147 918 92 q 897 37 861 13 q 825 -12 777 -12 z"},"എ":{"ha":1051,"x_min":37,"x_max":1004,"o":"m 186 327 l 186 327 q 230 327 264 307 q 298 287 317 250 q 335 213 335 163 l 335 163 q 335 116 318 78 q 301 39 271 10 l 271 10 l 276 26 l 731 26 l 732 0 l 264 0 l 251 20 q 281 52 295 87 q 308 122 308 162 l 308 162 q 308 228 275 265 q 241 301 186 301 l 186 301 q 147 301 120 283 q 92 264 78 233 q 64 202 64 164 l 64 164 q 64 113 83 77 q 101 41 133 12 l 133 12 l 116 -8 q 80 27 59 66 q 37 105 37 164 l 37 164 q 37 210 56 247 q 74 284 108 306 q 142 327 186 327 z m 750 558 l 750 558 q 817 558 865 530 q 913 501 944 450 q 975 399 990 331 q 1004 263 1004 183 l 1004 183 q 1004 100 988 26 q 971 -49 939 -112 q 907 -176 860 -228 l 860 -228 l 841 -211 q 884 -161 915 -100 q 945 -39 961 32 q 977 102 977 182 l 977 182 q 977 255 965 319 q 952 382 925 430 q 898 478 855 505 q 811 532 749 532 l 749 532 q 676 532 623 487 q 570 441 541 354 q 512 266 512 139 l 512 139 q 512 106 514 76 q 515 46 517 20 l 517 20 q 517 17 518 14 q 518 11 518 8 l 518 8 q 526 -66 543 -112 q 560 -159 587 -180 q 613 -202 648 -202 l 648 -202 q 675 -202 691 -190 l 691 -190 q 709 -177 716 -150 q 723 -124 723 -82 l 723 -82 l 723 415 l 749 415 l 749 -86 q 749 -134 740 -164 q 730 -194 706 -211 l 706 -211 q 695 -219 681 -223 q 666 -228 648 -228 l 648 -228 q 600 -228 564 -194 q 527 -160 507 -79 q 486 1 486 140 l 486 140 q 486 242 505 320 q 523 398 558 451 q 592 504 641 531 q 690 558 750 558 z"},"ഏ":{"ha":1049,"x_min":37,"x_max":1015,"o":"m 186 327 l 186 327 q 230 327 264 307 q 298 287 317 250 q 335 213 335 163 l 335 163 q 335 116 318 78 q 301 39 271 10 l 271 10 l 276 26 l 731 26 l 732 0 l 264 0 l 251 20 q 281 52 295 87 q 308 122 308 162 l 308 162 q 308 228 275 265 q 241 301 186 301 l 186 301 q 147 301 120 283 q 92 264 78 233 q 64 202 64 164 l 64 164 q 64 113 83 77 q 101 41 133 12 l 133 12 l 116 -8 q 80 27 59 66 q 37 105 37 164 l 37 164 q 37 210 56 247 q 74 284 108 306 q 142 327 186 327 z m 788 558 l 788 558 q 843 558 884 541 q 925 524 953 494 q 980 464 994 424 q 1007 384 1007 338 l 1007 338 q 1007 284 990 242 q 972 200 936 173 q 899 145 842 132 l 842 132 l 842 141 q 919 136 967 89 q 1015 41 1015 -46 l 1015 -46 q 1015 -109 996 -149 q 977 -190 943 -209 q 908 -228 862 -228 l 862 -228 q 842 -228 825 -226 q 807 -224 792 -220 l 792 -220 l 798 -195 q 811 -199 828 -200 q 844 -202 861 -202 l 861 -202 q 899 -202 928 -187 q 956 -172 972 -138 q 988 -104 988 -47 l 988 -47 q 988 28 947 73 q 905 118 829 122 l 829 122 l 829 148 q 875 160 909 183 q 943 206 962 244 q 980 282 980 338 l 980 338 q 980 391 960 435 q 940 478 898 505 q 856 532 788 532 l 788 532 q 697 532 636 484 q 574 436 543 348 q 512 260 512 139 l 512 139 q 512 106 514 76 q 515 46 517 20 l 517 20 q 517 17 518 14 q 518 11 518 8 l 518 8 q 526 -66 543 -112 q 560 -159 587 -180 q 613 -202 648 -202 l 648 -202 q 675 -202 691 -190 l 691 -190 q 710 -177 717 -150 q 723 -124 723 -82 l 723 -82 l 723 415 l 749 415 l 749 -86 q 749 -134 740 -164 q 730 -194 706 -211 l 706 -211 q 695 -219 681 -223 q 666 -228 648 -228 l 648 -228 q 600 -228 564 -194 q 527 -160 507 -79 q 486 1 486 140 l 486 140 q 486 236 506 313 q 525 390 564 445 q 602 500 659 529 q 715 558 788 558 z"},"ഐ":{"ha":1651,"x_min":44,"x_max":1604,"o":"m 198 -12 l 198 -12 q 155 -12 120 10 q 85 32 65 85 q 44 137 44 226 l 44 226 q 44 306 66 368 q 87 429 125 472 q 162 514 211 536 q 259 558 312 558 l 312 558 q 371 558 417 538 q 462 517 493 480 q 524 443 540 393 q 555 342 555 282 l 555 282 q 555 206 536 152 q 516 98 485 60 q 454 21 419 -8 l 419 -8 l 403 12 q 435 39 464 75 q 493 111 511 162 q 528 212 528 282 l 528 282 q 528 352 505 409 q 482 466 435 499 q 387 532 312 532 l 312 532 q 245 532 190 495 q 135 458 103 390 q 70 322 70 227 l 70 227 q 70 151 86 104 q 101 57 130 36 q 158 14 197 14 l 197 14 q 224 14 247 27 q 270 39 284 69 q 297 98 297 150 l 297 150 q 297 205 271 241 q 245 276 191 276 l 191 276 q 149 276 114 255 q 78 234 55 206 l 55 206 l 49 231 q 82 269 119 286 q 155 302 192 302 l 192 302 q 228 302 258 286 q 288 269 306 235 q 324 201 324 150 l 324 150 q 324 93 307 58 q 290 22 261 5 q 232 -12 198 -12 z m 786 327 l 786 327 q 830 327 864 307 q 898 287 917 250 q 935 213 935 163 l 935 163 q 935 116 918 78 q 901 39 871 10 l 871 10 l 876 26 l 1331 26 l 1332 0 l 864 0 l 851 20 q 881 52 895 87 q 908 122 908 162 l 908 162 q 908 228 875 265 q 841 301 786 301 l 786 301 q 747 301 720 283 q 692 264 678 233 q 664 202 664 164 l 664 164 q 664 113 683 77 q 701 41 733 12 l 733 12 l 716 -8 q 680 27 659 66 q 637 105 637 164 l 637 164 q 637 210 656 247 q 674 284 708 306 q 742 327 786 327 z m 1350 558 l 1350 558 q 1417 558 1465 530 q 1513 501 1544 450 q 1575 399 1590 331 q 1604 263 1604 183 l 1604 183 q 1604 100 1588 26 q 1571 -49 1539 -112 q 1507 -176 1460 -228 l 1460 -228 l 1441 -211 q 1484 -161 1515 -100 q 1545 -39 1561 32 q 1577 102 1577 182 l 1577 182 q 1577 255 1565 319 q 1552 382 1525 430 q 1498 478 1455 505 q 1411 532 1349 532 l 1349 532 q 1276 532 1223 487 q 1170 441 1141 354 q 1112 266 1112 139 l 1112 139 q 1112 106 1114 76 q 1115 46 1117 20 l 1117 20 q 1117 17 1118 14 q 1118 11 1118 8 l 1118 8 q 1126 -66 1143 -112 q 1160 -159 1187 -180 q 1213 -202 1248 -202 l 1248 -202 q 1275 -202 1291 -190 l 1291 -190 q 1309 -177 1316 -150 q 1323 -124 1323 -82 l 1323 -82 l 1323 415 l 1349 415 l 1349 -86 q 1349 -134 1340 -164 q 1330 -194 1306 -211 l 1306 -211 q 1295 -219 1281 -223 q 1266 -228 1248 -228 l 1248 -228 q 1200 -228 1164 -194 q 1127 -160 1107 -79 q 1086 1 1086 140 l 1086 140 q 1086 242 1105 320 q 1123 398 1158 451 q 1192 504 1241 531 q 1290 558 1350 558 z"},"ഒ":{"ha":632,"x_min":44,"x_max":593,"o":"m 379 558 l 379 558 q 452 558 497 536 q 541 514 562 478 q 583 441 583 399 l 583 399 q 583 365 570 335 q 556 305 525 287 q 493 268 438 265 l 438 265 l 438 274 q 512 270 553 232 q 593 194 593 131 l 593 131 q 593 64 557 27 q 521 -11 452 -11 l 452 -11 q 429 -11 408 -7 q 386 -4 369 0 l 369 0 l 375 26 q 394 20 413 18 q 431 15 450 15 l 450 15 q 509 15 538 43 q 566 70 566 130 l 566 130 q 566 165 553 189 q 540 212 519 227 l 519 227 q 497 243 469 250 q 441 257 406 257 l 406 257 l 394 257 l 394 283 l 407 283 q 453 283 481 292 q 509 301 526 319 l 526 319 q 541 333 549 354 q 556 374 556 400 l 556 400 q 556 460 513 496 q 469 532 380 532 l 380 532 q 302 532 244 507 q 186 482 147 440 q 108 397 89 343 q 70 288 70 229 l 70 229 l 70 220 q 70 148 85 102 q 100 56 129 35 q 158 14 197 14 l 197 14 q 224 14 247 27 q 270 39 284 69 q 297 98 297 150 l 297 150 q 297 205 271 241 q 245 276 191 276 l 191 276 q 149 276 114 255 q 78 234 55 206 l 55 206 l 49 231 q 82 269 119 286 q 155 302 191 302 l 191 302 q 228 302 258 286 q 288 269 306 235 q 324 201 324 150 l 324 150 q 324 93 307 58 q 289 22 261 5 q 232 -12 197 -12 l 197 -12 q 154 -12 120 10 q 85 32 65 84 q 44 135 44 222 l 44 222 q 44 290 66 351 q 87 412 129 459 q 171 505 234 532 q 296 558 379 558 z"},"ഓ":{"ha":1049,"x_min":44,"x_max":1003,"o":"m 379 558 l 379 558 q 452 558 497 536 q 541 514 562 478 q 583 441 583 399 l 583 399 q 583 365 570 335 q 556 305 525 287 q 493 268 438 265 l 438 265 l 438 274 q 512 270 553 232 q 593 194 593 131 l 593 131 q 593 64 557 27 q 521 -11 452 -11 l 452 -11 q 429 -11 408 -7 q 386 -4 369 0 l 369 0 l 375 26 q 394 20 413 18 q 431 15 450 15 l 450 15 q 509 15 538 43 q 566 70 566 130 l 566 130 q 566 165 553 189 q 540 212 519 227 l 519 227 q 497 243 469 250 q 441 257 406 257 l 406 257 l 394 257 l 394 283 l 407 283 q 453 283 481 292 q 509 301 526 319 l 526 319 q 541 333 549 354 q 556 374 556 400 l 556 400 q 556 460 513 496 q 469 532 380 532 l 380 532 q 302 532 244 507 q 186 482 147 440 q 108 397 89 343 q 70 288 70 229 l 70 229 l 70 220 q 70 148 85 102 q 100 56 129 35 q 158 14 197 14 l 197 14 q 224 14 247 27 q 270 39 284 69 q 297 98 297 150 l 297 150 q 297 205 271 241 q 245 276 191 276 l 191 276 q 149 276 114 255 q 78 234 55 206 l 55 206 l 49 231 q 82 269 119 286 q 155 302 191 302 l 191 302 q 228 302 258 286 q 288 269 306 235 q 324 201 324 150 l 324 150 q 324 93 307 58 q 289 22 261 5 q 232 -12 197 -12 l 197 -12 q 154 -12 120 10 q 85 32 65 84 q 44 135 44 222 l 44 222 q 44 290 66 351 q 87 412 129 459 q 171 505 234 532 q 296 558 379 558 z m 1002 275 l 1002 275 q 1002 209 992 156 q 982 103 960 66 q 938 28 905 8 q 871 -12 825 -12 l 825 -12 q 787 -12 759 1 q 731 14 711 38 q 691 61 678 93 q 665 124 657 160 l 657 160 l 683 166 q 693 122 710 88 q 726 53 754 34 q 782 14 824 14 l 824 14 q 879 14 912 46 q 945 77 960 136 q 975 194 975 275 l 975 275 q 975 355 960 412 q 944 469 912 501 q 879 532 828 532 l 828 532 q 787 532 760 512 q 732 492 715 458 q 697 424 685 382 l 685 382 l 659 388 q 668 423 683 454 q 697 485 718 509 q 738 532 766 545 q 793 558 828 558 l 828 558 q 874 558 907 537 q 940 515 961 477 q 982 439 992 388 q 1002 336 1002 275 z"},"ഔ":{"ha":1269,"x_min":44,"x_max":1223,"o":"m 379 558 l 379 558 q 452 558 497 536 q 541 514 562 478 q 583 441 583 399 l 583 399 q 583 365 570 335 q 556 305 525 287 q 493 268 438 265 l 438 265 l 438 274 q 512 270 553 232 q 593 194 593 131 l 593 131 q 593 64 557 27 q 521 -11 452 -11 l 452 -11 q 429 -11 408 -7 q 386 -4 369 0 l 369 0 l 375 26 q 394 20 413 18 q 431 15 450 15 l 450 15 q 509 15 538 43 q 566 70 566 130 l 566 130 q 566 165 553 189 q 540 212 519 227 l 519 227 q 497 243 469 250 q 441 257 406 257 l 406 257 l 394 257 l 394 283 l 407 283 q 453 283 481 292 q 509 301 526 319 l 526 319 q 541 333 549 354 q 556 374 556 400 l 556 400 q 556 460 513 496 q 469 532 380 532 l 380 532 q 302 532 244 507 q 186 482 147 440 q 108 397 89 343 q 70 288 70 229 l 70 229 l 70 220 q 70 148 85 102 q 100 56 129 35 q 158 14 197 14 l 197 14 q 224 14 247 27 q 270 39 284 69 q 297 98 297 150 l 297 150 q 297 205 271 241 q 245 276 191 276 l 191 276 q 149 276 114 255 q 78 234 55 206 l 55 206 l 49 231 q 82 269 119 286 q 155 302 191 302 l 191 302 q 228 302 258 286 q 288 269 306 235 q 324 201 324 150 l 324 150 q 324 93 307 58 q 289 22 261 5 q 232 -12 197 -12 l 197 -12 q 154 -12 120 10 q 85 32 65 84 q 44 135 44 222 l 44 222 q 44 290 66 351 q 87 412 129 459 q 171 505 234 532 q 296 558 379 558 z m 1066 558 l 1066 558 q 1117 558 1152 527 q 1186 496 1205 439 q 1223 382 1223 301 l 1223 301 q 1223 197 1200 127 q 1176 57 1126 23 q 1075 -12 994 -12 l 994 -12 q 946 -12 907 -2 q 868 7 828 27 l 828 27 l 841 50 q 880 30 915 22 q 950 14 994 14 l 994 14 q 1072 14 1116 48 q 1160 81 1178 145 q 1196 209 1196 301 l 1196 301 q 1196 417 1161 475 q 1126 532 1066 532 l 1066 532 q 1038 532 1020 523 q 1001 513 989 496 l 989 496 q 969 469 962 429 q 954 389 954 344 l 954 344 l 954 255 l 928 255 l 928 345 q 928 402 920 439 q 911 476 891 499 l 891 499 q 878 515 859 524 q 840 532 815 532 l 815 532 q 757 532 727 490 q 697 447 697 382 l 697 382 q 697 350 702 320 q 707 289 715 256 l 715 256 l 690 251 q 681 282 676 316 q 670 349 670 384 l 670 384 q 670 433 687 473 q 704 512 737 535 q 769 558 815 558 l 815 558 q 865 558 900 528 q 934 498 945 423 l 945 423 l 937 421 q 945 493 981 526 q 1017 558 1066 558 z"},"ക":{"ha":886,"x_min":37,"x_max":850,"o":"m 182 -12 l 182 -12 q 115 -12 76 27 q 37 66 37 141 l 37 141 q 37 179 51 207 q 65 235 90 255 l 90 255 q 114 274 144 284 q 173 294 211 298 q 249 302 297 302 l 297 302 l 595 302 q 669 302 715 293 q 761 283 795 257 l 795 257 q 821 238 836 209 q 850 180 850 139 l 850 139 q 850 71 814 30 q 777 -12 704 -12 l 704 -12 q 687 -12 666 -9 q 645 -7 623 0 l 623 0 l 629 25 q 649 19 668 17 q 686 14 705 14 l 705 14 q 769 14 796 48 q 823 82 823 139 l 823 139 q 823 175 811 199 q 799 223 778 239 l 778 239 q 746 262 703 269 q 659 276 596 276 l 596 276 l 294 276 q 230 276 184 268 q 138 260 107 236 l 107 236 q 86 219 75 196 q 64 173 64 140 l 64 140 q 64 91 81 64 q 97 36 125 25 q 153 14 184 14 l 184 14 q 223 14 255 26 q 286 38 326 69 l 326 69 l 343 48 q 319 30 295 16 q 270 2 244 -5 q 217 -12 182 -12 z m 446 558 l 446 558 q 508 558 548 525 q 588 492 607 429 q 625 366 625 275 l 625 275 q 625 171 603 108 q 580 44 539 16 q 498 -12 444 -12 l 444 -12 q 402 -12 371 4 q 340 20 319 48 l 319 48 q 290 88 277 148 q 264 208 264 275 l 264 275 q 264 413 312 486 q 359 558 446 558 z m 446 532 l 446 532 q 369 532 330 468 q 290 403 290 274 l 290 274 q 290 182 309 125 q 328 68 363 41 q 397 14 443 14 l 443 14 q 492 14 527 40 q 562 65 581 123 q 599 181 599 276 l 599 276 q 599 367 582 423 q 564 479 530 506 q 496 532 446 532 z"},"ഖ":{"ha":855,"x_min":45,"x_max":781,"o":"m 319 558 l 319 558 q 377 558 422 538 q 467 517 498 480 q 529 443 545 393 q 560 342 560 282 l 560 282 q 560 207 541 154 q 522 101 495 68 q 468 34 443 14 l 443 14 l 455 0 l 428 0 l 417 21 q 444 44 471 78 q 497 112 515 162 q 533 212 533 282 l 533 282 q 533 352 510 409 q 487 466 440 499 q 392 532 319 532 l 319 532 q 244 532 188 493 q 132 453 102 385 q 71 317 71 230 l 71 230 l 71 218 q 71 146 86 101 q 101 56 130 35 q 158 14 198 14 l 198 14 q 225 14 248 27 q 271 39 285 69 q 298 98 298 150 l 298 150 q 298 205 272 241 q 246 276 192 276 l 192 276 q 149 276 114 255 q 79 234 56 206 l 56 206 l 50 231 q 83 269 120 286 q 156 302 192 302 l 192 302 q 228 302 258 286 q 288 269 307 235 q 325 201 325 150 l 325 150 q 325 93 308 58 q 290 22 262 5 q 233 -12 198 -12 l 198 -12 q 155 -12 120 11 q 85 33 65 84 q 45 134 45 221 l 45 221 q 45 324 80 400 q 115 476 177 517 q 239 558 319 558 z m 755 546 l 781 546 l 781 0 l 440 0 l 435 26 l 755 26 l 755 546 z"},"ഗ":{"ha":746,"x_min":44,"x_max":702,"o":"m 519 558 l 519 558 q 576 558 618 526 q 659 494 681 435 q 702 375 702 293 l 702 293 q 702 217 685 163 q 667 108 637 68 q 607 27 571 -8 l 571 -8 l 554 12 q 589 45 617 84 q 644 123 660 174 q 675 224 675 294 l 675 294 q 675 369 657 422 q 638 475 603 504 q 568 532 520 532 l 520 532 q 484 532 462 522 q 440 512 425 493 l 425 493 q 401 464 394 416 q 386 368 386 296 l 386 296 l 386 236 q 386 186 382 149 q 378 111 368 84 q 358 56 338 33 l 338 33 q 321 12 294 0 q 266 -12 228 -12 l 228 -12 q 170 -12 129 20 q 88 52 66 112 q 44 172 44 253 l 44 253 q 44 329 62 384 q 80 438 110 479 q 140 519 175 554 l 175 554 l 193 534 q 158 501 130 462 q 102 423 87 373 q 71 322 71 252 l 71 252 q 71 177 90 124 q 109 71 144 43 q 178 14 227 14 l 227 14 q 262 14 284 24 q 306 34 321 53 l 321 53 q 345 82 353 129 q 360 175 360 250 l 360 250 l 360 309 q 360 383 370 432 q 379 480 408 513 l 408 513 q 426 534 454 546 q 481 558 519 558 z"},"ഘ":{"ha":1107,"x_min":35,"x_max":1033,"o":"m 185 558 l 185 558 q 229 558 263 538 q 297 518 316 482 q 334 446 334 396 l 334 396 q 334 350 318 313 q 302 275 272 246 l 272 246 l 278 262 l 459 262 l 462 236 l 265 236 l 253 256 q 281 286 294 321 q 307 356 307 395 l 307 395 q 307 461 274 497 q 240 532 185 532 l 185 532 q 146 532 119 514 q 91 496 77 465 q 62 434 62 397 l 62 397 q 62 347 80 312 q 98 277 130 248 l 130 248 l 112 228 q 76 263 56 301 q 35 339 35 397 l 35 397 q 35 443 54 480 q 73 516 107 537 q 141 558 185 558 z m 1007 546 l 1033 546 l 1033 0 l 447 0 l 447 326 q 447 397 462 441 q 476 485 506 512 l 506 512 q 529 535 563 547 q 597 558 638 558 l 638 558 q 679 558 712 548 q 744 537 765 517 l 765 517 q 795 490 810 446 q 825 401 825 332 l 825 332 l 825 236 l 473 236 l 473 26 l 1007 26 l 1007 546 z m 637 533 l 637 533 q 557 533 515 485 q 473 436 473 327 l 473 327 l 473 262 l 799 262 l 799 324 q 799 437 760 485 q 721 533 637 533 z"},"ങ":{"ha":896,"x_min":47,"x_max":856,"o":"m 299 558 l 299 558 q 379 558 427 514 q 474 470 481 386 l 481 386 l 481 338 l 490 234 l 490 0 l 464 0 l 464 317 q 464 391 448 433 q 432 475 402 500 l 402 500 q 381 517 357 525 q 333 532 298 532 l 298 532 q 229 532 178 494 q 127 455 100 388 q 73 321 73 234 l 73 234 l 73 225 q 73 150 88 104 q 103 57 132 36 q 160 14 200 14 l 200 14 q 227 14 250 27 q 273 39 287 69 q 300 98 300 150 l 300 150 q 300 205 274 241 q 248 276 194 276 l 194 276 q 151 276 116 255 q 81 234 58 206 l 58 206 l 52 231 q 85 269 122 286 q 158 302 194 302 l 194 302 q 230 302 260 286 q 290 269 309 235 q 327 201 327 150 l 327 150 q 327 93 310 58 q 292 22 264 5 q 235 -12 200 -12 l 200 -12 q 157 -12 122 11 q 87 33 67 85 q 47 136 47 225 l 47 225 q 47 327 78 402 q 109 477 166 518 q 223 558 299 558 z m 681 558 l 681 558 q 734 558 771 539 q 807 519 827 486 q 846 453 846 410 l 846 410 q 846 372 833 340 q 820 308 788 289 q 756 269 701 265 l 701 265 l 701 274 q 775 270 816 232 q 856 194 856 131 l 856 131 q 856 64 820 27 q 784 -11 715 -11 l 715 -11 q 692 -11 671 -7 q 649 -4 632 0 l 632 0 l 638 26 q 658 20 676 18 q 694 15 713 15 l 713 15 q 772 15 801 43 q 829 70 829 130 l 829 130 q 829 165 817 189 q 804 212 782 227 l 782 227 q 760 243 732 250 q 703 257 662 257 l 662 257 l 647 257 l 647 283 l 665 283 q 711 283 741 292 q 770 301 789 320 l 789 320 q 803 335 811 357 q 819 378 819 409 l 819 409 q 819 466 783 499 q 746 532 682 532 l 682 532 q 639 532 606 519 q 573 505 548 479 l 548 479 q 530 460 517 434 q 504 407 497 371 q 490 334 490 284 l 490 284 l 490 188 l 473 190 l 471 304 l 473 354 q 478 418 505 464 q 531 510 577 534 q 622 558 681 558 z"},"ച":{"ha":789,"x_min":16,"x_max":715,"o":"m 689 546 l 715 546 l 715 0 l 16 0 l 16 26 l 350 26 l 332 14 q 363 45 386 86 q 408 126 408 182 l 408 182 q 408 248 378 283 q 347 318 294 318 l 294 318 q 238 318 208 284 q 178 249 178 188 l 178 188 q 178 173 179 160 q 180 147 183 133 l 183 133 l 157 129 q 155 143 153 158 q 151 172 151 189 l 151 189 q 151 263 192 304 q 233 344 293 344 l 293 344 q 326 344 352 333 q 378 322 397 301 q 415 280 425 250 q 435 220 435 182 l 435 182 q 435 142 425 111 q 414 80 398 57 q 382 33 366 15 l 366 15 l 355 26 l 689 26 l 689 546 z"},"ഛ":{"ha":1147,"x_min":16,"x_max":1103,"o":"m 293 344 l 293 344 q 326 344 352 333 q 378 322 397 301 q 415 280 425 250 q 435 220 435 182 l 435 182 q 435 142 425 111 q 414 80 398 57 q 382 33 366 15 l 366 15 l 355 26 l 697 26 l 696 0 l 16 0 l 16 26 l 350 26 l 332 14 q 363 45 386 86 q 408 126 408 182 l 408 182 q 408 248 378 283 q 347 318 294 318 l 294 318 q 238 318 208 284 q 178 249 178 188 l 178 188 q 178 173 179 160 q 180 147 183 133 l 183 133 l 157 129 q 155 143 153 158 q 151 172 151 189 l 151 189 q 151 263 192 304 q 233 344 293 344 z m 836 558 l 836 558 q 902 558 952 535 q 1002 511 1036 469 q 1069 426 1086 368 q 1103 310 1103 240 l 1103 240 q 1103 147 1083 92 q 1062 37 1026 13 q 990 -12 942 -12 l 942 -12 q 890 -12 857 14 q 824 39 808 85 q 792 130 792 188 l 792 188 q 792 284 836 332 q 880 380 949 380 l 949 380 q 987 380 1016 365 q 1044 350 1065 326 q 1085 301 1098 271 l 1098 271 l 1089 253 q 1076 278 1057 301 q 1038 324 1012 339 q 985 354 950 354 l 950 354 q 884 354 852 311 q 819 267 819 189 l 819 189 q 819 138 831 99 q 843 59 871 37 q 898 14 944 14 l 944 14 q 986 14 1016 37 q 1045 59 1061 109 q 1077 159 1077 241 l 1077 241 q 1077 254 1077 266 q 1076 278 1075 284 l 1075 284 q 1076 288 1077 292 q 1077 295 1076 299 l 1076 299 q 1067 359 1041 413 q 1015 466 965 499 q 915 532 836 532 l 836 532 q 768 532 716 502 q 663 471 633 415 q 603 359 603 281 l 603 281 q 603 219 618 171 q 633 123 659 87 q 685 50 718 21 l 718 21 l 706 0 l 689 0 l 683 22 q 662 42 637 74 q 612 106 594 157 q 576 208 576 283 l 576 283 q 576 338 593 388 q 609 437 642 476 q 674 514 723 536 q 771 558 836 558 z"},"ജ":{"ha":797,"x_min":36,"x_max":754,"o":"m 252 558 l 252 558 q 302 558 340 543 q 377 527 402 495 q 426 462 436 409 l 436 409 l 425 396 q 435 484 479 521 q 523 558 585 558 l 585 558 q 643 558 680 533 q 717 508 736 468 q 754 428 754 382 l 754 382 q 754 344 744 311 q 734 278 711 253 q 687 228 646 213 l 646 213 l 611 211 l 577 200 q 557 195 530 191 q 503 187 456 187 l 456 187 l 210 187 q 163 187 134 182 q 105 176 86 159 l 86 159 q 75 150 69 136 q 63 122 63 103 l 63 103 q 63 72 76 52 q 89 32 113 23 q 136 14 166 14 l 166 14 q 202 14 235 23 q 267 31 301 49 q 335 66 376 94 l 376 94 q 418 123 446 141 q 474 159 493 171 q 511 182 526 190 q 540 198 557 205 l 557 205 q 565 210 574 213 q 583 216 593 218 q 602 220 611 221 q 619 222 625 222 l 625 222 q 655 222 680 210 q 704 198 718 173 q 732 148 732 109 l 732 109 q 732 46 699 17 q 665 -12 620 -12 l 620 -12 q 578 -12 554 6 q 529 23 518 51 q 507 79 507 110 l 507 110 q 507 141 518 163 q 528 184 551 212 l 551 212 l 572 211 q 561 200 552 186 q 543 171 538 153 q 532 135 532 112 l 532 112 q 532 66 554 40 q 575 14 620 14 l 620 14 q 659 14 682 37 q 705 59 705 109 l 705 109 q 705 145 693 165 q 680 185 661 194 q 641 202 618 202 l 618 202 q 599 202 578 195 q 557 188 542 174 l 542 174 l 536 177 q 522 166 505 153 q 488 139 463 121 q 437 103 396 76 l 396 76 q 349 46 313 27 q 277 7 243 -2 q 209 -12 166 -12 l 166 -12 q 136 -12 106 -1 q 75 9 56 35 q 36 60 36 104 l 36 104 q 36 128 45 146 q 53 163 67 176 l 67 176 q 89 197 121 205 q 153 213 207 213 l 207 213 l 482 213 q 533 213 570 218 q 606 222 632 232 q 658 242 676 256 l 676 256 q 703 277 715 308 q 727 339 727 381 l 727 381 q 727 418 713 453 q 699 487 668 510 q 637 532 585 532 l 585 532 q 554 532 533 524 q 511 516 495 501 l 495 501 q 466 474 456 433 q 446 392 446 337 l 446 337 l 446 258 l 420 258 l 420 335 q 420 394 406 436 q 392 477 359 501 l 359 501 q 337 518 312 525 q 286 532 251 532 l 251 532 q 189 532 145 510 q 101 487 79 443 l 79 443 q 78 440 78 437 q 78 434 76 431 l 76 431 q 73 420 71 408 q 69 396 69 383 l 69 383 q 69 321 94 297 q 119 272 158 272 l 158 272 q 191 272 209 286 q 227 300 234 321 q 241 342 241 363 l 241 363 q 241 403 221 427 q 200 450 157 450 l 157 450 q 129 450 104 439 q 78 427 52 401 l 52 401 l 57 431 q 78 450 104 463 q 130 475 159 475 l 159 475 q 197 475 221 459 q 245 443 257 419 q 269 394 269 365 l 269 365 q 269 333 257 306 q 244 278 219 262 q 194 246 158 246 l 158 246 q 102 246 73 282 q 43 317 43 383 l 43 383 q 43 430 67 470 q 90 509 137 534 q 184 558 252 558 z"},"ഝ":{"ha":1408,"x_min":44,"x_max":1364,"o":"m 560 558 l 560 558 q 599 558 631 547 q 662 536 685 517 l 685 517 q 723 485 739 435 q 755 384 755 299 l 755 299 l 755 237 q 755 162 764 120 q 772 78 794 52 l 794 52 q 809 34 831 24 q 852 14 884 14 l 884 14 q 910 14 930 22 q 949 29 963 43 l 963 43 q 989 68 1000 111 q 1010 154 1010 217 l 1010 217 l 1010 546 l 1036 546 l 1036 226 q 1036 161 1047 118 q 1058 74 1085 46 l 1085 46 q 1101 32 1122 23 q 1143 14 1176 14 l 1176 14 q 1231 14 1267 48 q 1302 81 1320 136 q 1337 190 1337 251 l 1337 251 q 1337 321 1322 372 q 1306 423 1279 461 q 1251 499 1215 533 l 1215 533 l 1233 552 q 1268 518 1298 478 q 1328 438 1346 384 q 1364 330 1364 251 l 1364 251 q 1364 178 1342 119 q 1320 59 1278 24 q 1235 -12 1173 -12 l 1173 -12 q 1107 -12 1070 26 q 1032 64 1020 137 l 1020 137 l 1027 139 q 1022 89 1004 55 q 985 21 955 5 q 925 -12 884 -12 l 884 -12 q 848 -12 822 0 q 795 12 777 32 l 777 32 q 759 53 749 77 q 738 101 734 136 q 729 171 729 220 l 729 220 l 729 282 q 729 342 723 383 q 717 423 704 450 q 691 477 669 496 l 669 496 q 649 513 623 523 q 597 532 561 532 l 561 532 q 524 532 496 523 q 467 513 440 496 l 440 496 l 432 490 q 389 458 360 411 q 331 363 317 309 q 302 255 302 204 l 302 204 q 302 134 318 93 q 333 51 362 33 q 390 14 428 14 l 428 14 q 465 14 493 34 q 521 53 537 96 q 553 138 553 207 l 553 207 q 553 258 538 312 q 523 366 494 414 q 465 461 422 491 l 422 491 l 414 496 q 388 514 357 523 q 326 532 292 532 l 292 532 q 216 532 167 498 q 118 463 95 406 q 71 349 71 281 l 71 281 q 71 217 86 168 q 101 118 129 81 q 157 44 195 13 l 195 13 l 178 -7 q 146 19 115 58 q 84 96 64 151 q 44 205 44 281 l 44 281 q 44 340 61 391 q 77 441 109 479 q 140 516 187 537 q 233 558 293 558 l 293 558 q 333 558 368 546 q 403 534 435 511 l 435 511 l 445 504 q 508 456 544 376 q 580 296 580 207 l 580 207 q 580 129 560 81 q 540 33 506 11 q 471 -12 428 -12 l 428 -12 q 384 -12 349 10 q 314 31 295 79 q 275 127 275 205 l 275 205 q 275 263 291 319 q 306 375 337 423 q 367 471 410 505 l 410 505 l 418 510 q 451 534 487 546 q 522 558 560 558 z"},"ഞ":{"ha":1221,"x_min":47,"x_max":1178,"o":"m 299 558 l 299 558 q 379 558 427 514 q 474 470 481 386 l 481 386 l 481 338 l 490 224 l 490 0 l 464 0 l 464 317 q 464 391 448 433 q 432 475 402 500 l 402 500 q 381 517 357 525 q 333 532 298 532 l 298 532 q 229 532 178 494 q 127 455 100 388 q 73 321 73 234 l 73 234 l 73 225 q 73 150 88 104 q 103 57 132 36 q 160 14 200 14 l 200 14 q 227 14 250 27 q 273 39 287 69 q 300 98 300 150 l 300 150 q 300 205 274 241 q 248 276 194 276 l 194 276 q 151 276 116 255 q 81 234 58 206 l 58 206 l 52 231 q 85 269 122 286 q 158 302 194 302 l 194 302 q 230 302 260 286 q 290 269 309 235 q 327 201 327 150 l 327 150 q 327 93 310 58 q 292 22 264 5 q 235 -12 200 -12 l 200 -12 q 157 -12 122 11 q 87 33 67 85 q 47 136 47 225 l 47 225 q 47 327 78 402 q 109 477 166 518 q 223 558 299 558 z m 658 558 l 658 558 q 699 558 734 547 q 768 535 800 512 l 800 512 l 810 506 q 873 457 909 377 q 945 297 945 207 l 945 207 q 945 129 925 81 q 905 33 871 11 q 836 -12 793 -12 l 793 -12 q 749 -12 714 10 q 679 31 660 79 q 640 127 640 205 l 640 205 q 640 263 656 319 q 672 374 703 423 q 734 471 778 504 l 778 504 l 785 509 q 818 533 856 546 q 894 558 937 558 l 937 558 q 994 558 1039 538 q 1084 517 1115 480 q 1146 443 1162 393 q 1178 342 1178 282 l 1178 282 q 1178 206 1158 152 q 1138 98 1107 60 q 1076 21 1041 -8 l 1041 -8 l 1025 12 q 1057 39 1086 75 q 1115 111 1133 162 q 1151 212 1151 282 l 1151 282 q 1151 354 1127 410 q 1103 466 1056 499 q 1008 532 936 532 l 936 532 q 898 532 866 522 q 834 512 807 495 l 807 495 l 799 489 q 756 458 726 411 q 696 363 682 309 q 667 255 667 204 l 667 204 q 667 134 683 93 q 698 51 727 33 q 755 14 793 14 l 793 14 q 830 14 858 34 q 886 53 902 96 q 918 138 918 207 l 918 207 q 918 260 903 315 q 888 369 859 416 q 830 462 787 492 l 787 492 l 779 498 q 761 509 742 517 q 723 525 702 529 q 681 532 658 532 l 658 532 q 624 532 598 523 q 572 514 552 497 l 552 497 q 518 470 504 425 q 490 380 490 305 l 490 305 l 490 68 l 470 68 l 474 239 l 471 384 q 480 445 505 483 q 530 521 570 540 q 609 558 658 558 z"},"ട":{"ha":461,"x_min":20,"x_max":431,"o":"m 226 558 l 226 558 q 289 558 338 546 q 386 533 431 512 l 431 512 l 415 490 q 369 512 325 522 q 280 532 227 532 l 227 532 q 167 532 131 515 q 94 497 78 469 q 62 441 62 408 l 62 408 q 62 378 71 358 q 79 337 94 324 l 94 324 q 116 303 150 298 q 184 292 231 292 l 231 292 l 235 292 q 289 292 323 283 q 357 273 383 251 l 383 251 q 403 233 414 208 q 424 182 424 145 l 424 145 q 424 99 404 64 q 383 28 340 8 q 297 -12 229 -12 l 229 -12 q 170 -12 121 1 q 71 13 20 39 l 20 39 l 35 61 q 62 47 91 37 q 120 26 154 20 q 188 14 229 14 l 229 14 q 293 14 330 32 q 366 49 382 79 q 397 108 397 145 l 397 145 q 397 174 390 196 q 382 217 366 231 l 366 231 q 346 249 315 258 q 284 266 233 266 l 233 266 l 229 266 q 169 266 133 276 q 97 285 72 308 l 72 308 q 54 327 45 352 q 35 376 35 409 l 35 409 q 35 449 56 483 q 76 517 119 538 q 161 558 226 558 z"},"ഠ":{"ha":556,"x_min":44,"x_max":512,"o":"m 280 558 l 280 558 q 352 558 405 524 q 457 490 485 427 q 512 363 512 272 l 512 272 q 512 185 484 121 q 455 57 402 23 q 349 -12 276 -12 l 276 -12 q 203 -12 151 23 q 99 57 72 121 q 44 185 44 274 l 44 274 q 44 362 73 426 q 102 489 155 524 q 208 558 280 558 z m 276 14 l 276 14 q 345 14 392 47 q 438 80 462 139 q 485 197 485 274 l 485 274 q 485 356 462 414 q 438 471 392 502 q 346 532 279 532 l 279 532 q 180 532 126 463 q 71 394 71 274 l 71 274 q 71 150 124 82 q 177 14 276 14 z"},"ഡ":{"ha":1039,"x_min":44,"x_max":996,"o":"m 516 -12 l 516 -12 q 480 -12 454 0 q 427 12 408 32 l 408 32 q 391 53 381 77 q 370 101 365 136 q 360 171 360 220 l 360 220 l 360 296 q 360 371 353 418 q 345 464 321 493 l 321 493 q 306 512 284 522 q 262 532 227 532 l 227 532 q 178 532 144 504 q 109 475 90 422 q 71 369 71 294 l 71 294 q 71 224 87 174 q 102 123 130 84 q 158 45 193 12 l 193 12 l 175 -8 q 140 27 110 68 q 80 108 62 163 q 44 217 44 293 l 44 293 q 44 375 66 435 q 88 494 129 526 q 170 558 228 558 l 228 558 q 266 558 294 546 q 321 534 338 513 l 338 513 q 358 491 368 463 q 378 435 382 398 q 386 361 386 310 l 386 310 l 386 237 q 386 162 395 120 q 404 78 425 52 l 425 52 q 441 34 463 24 q 484 14 516 14 l 516 14 q 542 14 562 22 q 581 29 595 43 l 595 43 q 621 68 632 111 q 642 154 642 217 l 642 217 l 642 546 l 668 546 l 668 226 q 668 161 679 118 q 689 74 717 46 l 717 46 q 733 32 754 23 q 775 14 807 14 l 807 14 q 862 14 898 48 q 933 81 951 136 q 969 190 969 251 l 969 251 q 969 321 953 372 q 937 423 910 461 q 882 499 847 533 l 847 533 l 864 552 q 900 518 930 478 q 960 438 978 384 q 996 330 996 251 l 996 251 q 996 178 974 119 q 952 59 910 24 q 867 -12 805 -12 l 805 -12 q 739 -12 702 26 q 664 64 652 137 l 652 137 l 658 139 q 652 64 614 26 q 576 -12 516 -12 z"},"ഢ":{"ha":1131,"x_min":44,"x_max":1085,"o":"m 516 -12 l 516 -12 q 480 -12 454 0 q 427 12 408 32 l 408 32 q 391 53 381 77 q 370 101 365 136 q 360 171 360 220 l 360 220 l 360 296 q 360 371 353 418 q 345 464 321 493 l 321 493 q 306 512 284 522 q 262 532 227 532 l 227 532 q 178 532 144 504 q 109 475 90 422 q 71 369 71 294 l 71 294 q 71 224 87 174 q 102 123 130 84 q 158 45 193 12 l 193 12 l 175 -8 q 140 27 110 68 q 80 108 62 163 q 44 217 44 293 l 44 293 q 44 375 66 435 q 88 494 129 526 q 170 558 228 558 l 228 558 q 266 558 294 546 q 321 534 338 513 l 338 513 q 358 491 368 463 q 378 435 382 398 q 386 361 386 310 l 386 310 l 386 237 q 386 162 395 120 q 404 78 425 52 l 425 52 q 441 34 463 24 q 484 14 516 14 l 516 14 q 542 14 562 22 q 581 29 595 43 l 595 43 q 621 68 632 111 q 642 154 642 217 l 642 217 l 642 546 l 668 546 l 668 238 l 658 139 q 652 64 614 26 q 576 -12 516 -12 z m 931 558 l 931 558 q 974 558 1009 536 q 1044 513 1065 462 q 1085 410 1085 321 l 1085 321 q 1085 220 1054 145 q 1022 69 965 29 q 908 -12 832 -12 l 832 -12 q 752 -12 705 32 q 657 76 650 160 l 650 160 l 649 285 l 649 528 l 668 528 l 668 229 q 668 155 684 113 q 699 71 729 46 l 729 46 q 750 30 774 22 q 798 14 833 14 l 833 14 q 903 14 954 53 q 1004 91 1032 159 q 1059 226 1059 312 l 1059 312 l 1059 321 q 1059 397 1044 443 q 1028 489 1000 511 q 971 532 931 532 l 931 532 q 905 532 882 520 q 859 507 845 478 q 831 448 831 396 l 831 396 q 831 342 857 306 q 883 270 938 270 l 938 270 q 980 270 1015 291 q 1050 312 1073 340 l 1073 340 l 1080 315 q 1047 277 1010 261 q 973 244 937 244 l 937 244 q 901 244 871 261 q 841 277 823 311 q 804 345 804 396 l 804 396 q 804 453 822 489 q 839 524 868 541 q 897 558 931 558 z"},"ണ":{"ha":1162,"x_min":47,"x_max":1118,"o":"m 299 558 l 299 558 q 379 558 422 518 q 465 478 479 406 l 479 406 l 472 405 q 482 477 520 518 q 558 558 628 558 l 628 558 q 695 558 735 520 q 774 482 781 407 l 781 407 l 774 409 q 785 481 823 520 q 861 558 928 558 l 928 558 q 990 558 1032 523 q 1074 487 1096 428 q 1118 368 1118 295 l 1118 295 q 1118 217 1100 162 q 1082 107 1052 68 q 1022 28 986 -6 l 986 -6 l 969 13 q 1005 47 1032 86 q 1059 124 1075 175 q 1091 225 1091 295 l 1091 295 q 1091 357 1074 411 q 1056 465 1021 499 q 985 532 930 532 l 930 532 q 897 532 876 524 q 855 515 839 500 l 839 500 q 811 473 801 429 q 790 385 790 320 l 790 320 l 790 0 l 764 0 l 764 322 q 764 388 756 427 q 747 465 724 492 l 724 492 q 708 510 685 521 q 661 532 627 532 l 627 532 q 594 532 571 521 q 547 510 531 492 l 531 492 q 508 465 499 425 q 490 385 490 323 l 490 323 l 490 0 l 464 0 l 464 317 q 464 391 448 433 q 432 475 402 500 l 402 500 q 381 517 357 525 q 333 532 298 532 l 298 532 q 229 532 178 494 q 127 455 100 388 q 73 321 73 234 l 73 234 l 73 225 q 73 150 88 104 q 103 57 132 36 q 160 14 200 14 l 200 14 q 227 14 250 27 q 273 39 287 69 q 300 98 300 150 l 300 150 q 300 205 274 241 q 248 276 194 276 l 194 276 q 151 276 116 255 q 81 234 58 206 l 58 206 l 52 231 q 85 269 122 286 q 158 302 194 302 l 194 302 q 230 302 260 286 q 290 269 309 235 q 327 201 327 150 l 327 150 q 327 93 310 58 q 292 22 264 5 q 235 -12 200 -12 l 200 -12 q 157 -12 122 11 q 87 33 67 85 q 47 136 47 225 l 47 225 q 47 327 78 402 q 109 477 166 518 q 223 558 299 558 z"},"ത":{"ha":857,"x_min":44,"x_max":813,"o":"m 428 -12 l 428 -12 q 384 -12 349 10 q 314 31 295 79 q 275 127 275 205 l 275 205 q 275 263 291 319 q 307 374 338 423 q 369 471 413 504 l 413 504 l 421 509 q 453 533 491 546 q 529 558 572 558 l 572 558 q 630 558 675 538 q 719 517 750 480 q 781 443 797 393 q 813 342 813 282 l 813 282 q 813 206 794 152 q 774 98 743 60 q 711 21 677 -8 l 677 -8 l 660 12 q 692 39 721 75 q 750 111 768 162 q 786 212 786 282 l 786 282 q 786 354 762 410 q 738 466 691 499 q 643 532 571 532 l 571 532 q 534 532 502 522 q 470 512 443 495 l 443 495 l 434 489 q 391 458 362 411 q 332 363 317 309 q 302 255 302 204 l 302 204 q 302 134 318 93 q 333 51 362 33 q 390 14 428 14 l 428 14 q 465 14 493 34 q 521 53 537 96 q 553 138 553 207 l 553 207 q 553 259 538 313 q 523 367 494 414 q 465 461 422 491 l 422 491 l 414 496 q 388 514 357 523 q 326 532 292 532 l 292 532 q 216 532 167 498 q 118 463 95 406 q 71 349 71 281 l 71 281 q 71 217 86 168 q 101 118 129 81 q 157 44 195 13 l 195 13 l 178 -7 q 146 19 115 58 q 84 96 64 151 q 44 205 44 281 l 44 281 q 44 340 61 391 q 77 441 109 479 q 140 516 187 537 q 233 558 293 558 l 293 558 q 333 558 368 546 q 403 534 435 511 l 435 511 l 445 504 q 508 456 544 376 q 580 296 580 207 l 580 207 q 580 129 560 81 q 540 33 506 11 q 471 -12 428 -12 z"},"ഥ":{"ha":763,"x_min":74,"x_max":697,"o":"m 74 546 l 100 546 l 100 26 l 330 26 l 330 0 l 74 0 l 74 546 z m 503 558 l 503 558 q 549 558 583 543 q 617 528 640 503 l 640 503 q 672 469 685 422 q 697 374 697 305 l 697 305 l 697 0 l 310 0 l 310 313 q 310 356 316 391 q 321 426 334 454 q 347 482 368 504 l 368 504 q 391 529 425 544 q 458 558 503 558 z m 503 532 l 503 532 q 465 532 435 520 q 405 508 385 485 l 385 485 q 358 455 347 411 q 336 367 336 296 l 336 296 l 336 26 l 671 26 l 671 295 q 671 364 660 409 q 649 454 622 484 l 622 484 q 601 507 572 520 q 543 532 503 532 z"},"ദ":{"ha":534,"x_min":52,"x_max":494,"o":"m 317 558 l 317 558 q 369 558 407 539 q 444 520 464 487 q 484 454 484 410 l 484 410 q 484 343 449 309 q 414 274 351 267 l 351 267 l 351 273 q 420 268 457 229 q 494 190 494 128 l 494 128 q 494 60 454 25 q 413 -11 342 -11 l 342 -11 q 313 -11 292 -7 q 271 -4 254 0 l 254 0 l 260 25 q 279 21 299 18 q 318 15 342 15 l 342 15 q 403 15 435 43 q 467 70 467 129 l 467 129 q 467 161 457 184 q 446 207 426 223 l 426 223 q 406 240 377 249 q 347 257 299 257 l 299 257 l 269 257 l 269 283 l 298 283 q 344 283 374 291 q 403 298 422 316 l 422 316 q 439 331 448 354 q 457 376 457 409 l 457 409 q 457 469 420 501 q 382 532 316 532 l 316 532 q 238 532 185 491 q 132 449 106 378 q 79 307 79 218 l 79 218 q 79 158 87 105 q 94 52 106 0 l 106 0 l 80 -5 q 68 46 60 105 q 52 163 52 217 l 52 217 q 52 318 84 395 q 115 471 174 515 q 233 558 317 558 z"},"ധ":{"ha":770,"x_min":44,"x_max":726,"o":"m 534 -12 l 534 -12 q 491 -12 460 5 q 429 21 410 55 q 391 88 383 137 l 383 137 l 389 137 q 377 64 339 26 q 301 -12 235 -12 l 235 -12 q 173 -12 131 24 q 88 59 66 119 q 44 179 44 251 l 44 251 q 44 330 62 385 q 80 439 110 479 q 140 518 175 552 l 175 552 l 193 533 q 158 499 130 461 q 102 423 87 372 q 71 321 71 251 l 71 251 q 71 190 89 136 q 106 81 142 48 q 178 14 232 14 l 232 14 q 265 14 286 23 q 307 32 323 46 l 323 46 q 350 74 361 118 q 372 161 372 226 l 372 226 l 372 546 l 398 546 l 398 226 q 398 161 409 118 q 420 74 447 47 l 447 47 q 463 32 483 23 q 503 14 533 14 l 533 14 q 589 14 626 47 q 663 79 681 134 q 699 189 699 253 l 699 253 q 699 322 683 373 q 667 423 640 461 q 613 499 578 533 l 578 533 l 595 552 q 631 518 661 478 q 690 438 708 384 q 726 329 726 253 l 726 253 q 726 174 703 115 q 679 55 636 22 q 592 -12 534 -12 z"},"ന":{"ha":770,"x_min":44,"x_max":726,"o":"m 236 558 l 236 558 q 279 558 310 542 q 341 525 361 492 q 380 459 387 409 l 387 409 l 381 409 q 394 482 432 520 q 469 558 535 558 l 535 558 q 597 558 640 523 q 682 487 704 428 q 726 368 726 295 l 726 295 q 726 217 708 162 q 690 107 660 68 q 630 28 594 -6 l 594 -6 l 577 13 q 613 47 640 86 q 667 124 683 175 q 699 225 699 295 l 699 295 q 699 357 682 411 q 664 465 628 499 q 592 532 537 532 l 537 532 q 505 532 484 524 q 463 515 447 500 l 447 500 q 419 473 409 429 q 398 385 398 320 l 398 320 l 398 0 l 372 0 l 372 320 q 372 385 361 429 q 350 472 323 499 l 323 499 q 307 515 287 524 q 266 532 237 532 l 237 532 q 181 532 144 500 q 107 467 89 413 q 71 358 71 293 l 71 293 q 71 224 87 174 q 102 123 130 85 q 158 47 192 13 l 192 13 l 175 -6 q 139 28 110 68 q 80 108 62 163 q 44 217 44 293 l 44 293 q 44 373 68 433 q 91 492 135 525 q 178 558 236 558 z"},"ഩ":{"ha":861,"x_min":47,"x_max":818,"o":"m 299 558 l 299 558 q 379 558 423 518 q 466 477 479 407 l 479 407 l 472 410 q 485 482 523 520 q 561 558 627 558 l 627 558 q 689 558 732 523 q 774 487 796 428 q 818 368 818 295 l 818 295 q 818 217 800 163 q 782 108 752 68 q 722 28 686 -6 l 686 -6 l 669 13 q 704 47 732 86 q 759 124 775 175 q 791 225 791 295 l 791 295 q 791 357 773 411 q 755 465 720 499 q 684 532 629 532 l 629 532 q 597 532 576 524 q 555 515 539 500 l 539 500 q 511 473 501 429 q 490 385 490 320 l 490 320 l 490 0 l 464 0 l 464 317 q 464 391 448 433 q 432 475 402 500 l 402 500 q 381 517 357 525 q 333 532 298 532 l 298 532 q 229 532 178 494 q 127 455 100 388 q 73 321 73 234 l 73 234 l 73 225 q 73 150 88 104 q 103 57 132 36 q 160 14 200 14 l 200 14 q 227 14 250 27 q 273 39 287 69 q 300 98 300 150 l 300 150 q 300 205 274 241 q 248 276 194 276 l 194 276 q 151 276 116 255 q 81 234 58 206 l 58 206 l 52 231 q 85 269 122 286 q 158 302 194 302 l 194 302 q 230 302 260 286 q 290 269 309 235 q 327 201 327 150 l 327 150 q 327 93 310 58 q 292 22 264 5 q 235 -12 200 -12 l 200 -12 q 157 -12 122 11 q 87 33 67 85 q 47 136 47 225 l 47 225 q 47 327 78 402 q 109 477 166 518 q 223 558 299 558 z"},"പ":{"ha":755,"x_min":37,"x_max":681,"o":"m 186 327 l 186 327 q 230 327 264 307 q 298 287 317 250 q 335 213 335 163 l 335 163 q 335 116 318 78 q 301 39 271 10 l 271 10 l 276 26 l 655 26 l 655 546 l 681 546 l 681 0 l 264 0 l 251 20 q 281 52 295 87 q 308 122 308 162 l 308 162 q 308 228 275 265 q 241 301 186 301 l 186 301 q 147 301 120 283 q 92 264 78 233 q 64 202 64 164 l 64 164 q 64 113 83 77 q 101 41 133 12 l 133 12 l 116 -8 q 80 27 59 66 q 37 105 37 164 l 37 164 q 37 210 56 247 q 74 284 108 306 q 142 327 186 327 z"},"ഫ":{"ha":959,"x_min":37,"x_max":893,"o":"m 186 327 l 186 327 q 230 327 264 307 q 298 287 317 250 q 335 213 335 163 l 335 163 q 335 116 318 78 q 301 39 271 10 l 271 10 l 276 26 l 527 26 l 527 0 l 264 0 l 251 20 q 281 52 295 87 q 308 122 308 162 l 308 162 q 308 228 275 265 q 241 301 186 301 l 186 301 q 147 301 120 283 q 92 264 78 233 q 64 202 64 164 l 64 164 q 64 113 83 77 q 101 41 133 12 l 133 12 l 116 -8 q 80 27 59 66 q 37 105 37 164 l 37 164 q 37 210 56 247 q 74 284 108 306 q 142 327 186 327 z m 699 558 l 699 558 q 745 558 779 543 q 813 528 836 503 l 836 503 q 868 469 881 422 q 893 374 893 305 l 893 305 l 893 0 l 506 0 l 506 313 q 506 356 512 391 q 517 426 530 454 q 543 482 564 504 l 564 504 q 587 529 621 544 q 655 558 699 558 z m 699 532 l 699 532 q 661 532 631 520 q 601 508 581 485 l 581 485 q 554 455 543 411 q 532 367 532 296 l 532 296 l 532 26 l 867 26 l 867 295 q 867 364 856 409 q 845 454 818 484 l 818 484 q 797 507 768 520 q 739 532 699 532 z"},"ബ":{"ha":1112,"x_min":47,"x_max":1038,"o":"m 299 558 l 299 558 q 379 558 423 518 q 466 477 479 407 l 479 407 l 483 368 l 490 269 l 490 0 l 464 0 l 464 317 q 464 391 448 433 q 432 475 402 500 l 402 500 q 381 517 357 525 q 333 532 298 532 l 298 532 q 229 532 178 494 q 127 455 100 388 q 73 321 73 234 l 73 234 l 73 225 q 73 150 88 104 q 103 57 132 36 q 160 14 200 14 l 200 14 q 227 14 250 27 q 273 39 287 69 q 300 98 300 150 l 300 150 q 300 205 274 241 q 248 276 194 276 l 194 276 q 151 276 116 255 q 81 234 58 206 l 58 206 l 52 231 q 85 269 122 286 q 158 302 194 302 l 194 302 q 230 302 260 286 q 290 269 309 235 q 327 201 327 150 l 327 150 q 327 93 310 58 q 292 22 264 5 q 235 -12 200 -12 l 200 -12 q 157 -12 122 11 q 87 33 67 85 q 47 136 47 225 l 47 225 q 47 327 78 402 q 109 477 166 518 q 223 558 299 558 z m 1012 546 l 1038 546 l 1038 0 l 691 0 l 680 21 q 711 55 736 92 q 761 129 776 178 q 791 227 791 295 l 791 295 q 791 357 773 411 q 755 465 720 499 q 684 532 629 532 l 629 532 q 597 532 576 524 q 555 515 539 500 l 539 500 q 511 473 501 429 q 490 385 490 320 l 490 320 l 490 10 l 466 10 l 466 274 l 470 357 l 472 409 q 485 482 523 520 q 561 558 627 558 l 627 558 q 689 558 732 523 q 774 487 796 428 q 818 368 818 295 l 818 295 q 818 224 803 172 q 787 120 763 84 q 738 47 709 19 l 709 19 l 703 26 l 1012 26 l 1012 546 z"},"ഭ":{"ha":544,"x_min":52,"x_max":507,"o":"m 333 558 l 333 558 q 385 558 425 542 q 464 526 486 497 q 507 467 507 425 l 507 425 q 507 404 502 386 q 496 368 484 356 l 484 356 q 471 343 452 336 q 433 329 398 329 l 398 329 l 374 329 q 338 329 318 326 q 298 322 284 312 l 284 312 q 273 305 268 294 q 262 282 262 267 l 262 267 q 262 233 286 218 q 309 203 363 203 l 363 203 l 370 203 q 408 203 435 196 q 462 188 481 170 l 481 170 q 493 158 500 141 q 507 124 507 102 l 507 102 q 507 67 493 42 q 478 16 447 2 q 415 -12 366 -12 l 366 -12 q 343 -12 316 -9 q 289 -7 264 0 q 238 6 217 16 l 217 16 l 228 40 q 260 26 295 20 q 329 14 367 14 l 367 14 q 430 14 455 38 q 480 61 480 100 l 480 100 q 480 141 454 159 q 428 177 378 177 l 378 177 l 368 177 q 329 177 305 183 q 280 188 265 200 l 265 200 q 250 211 243 227 q 235 243 235 265 l 235 265 q 235 287 242 303 q 249 319 263 329 l 263 329 q 282 343 308 349 q 334 355 374 355 l 374 355 l 401 355 q 444 355 462 371 q 480 387 480 425 l 480 425 q 480 473 443 503 q 405 532 333 532 l 333 532 q 247 532 191 491 q 134 449 107 378 q 79 307 79 218 l 79 218 q 79 158 87 105 q 94 52 106 0 l 106 0 l 80 -5 q 68 46 60 105 q 52 163 52 217 l 52 217 q 52 318 85 395 q 117 471 180 515 q 243 558 333 558 z"},"മ":{"ha":605,"x_min":62,"x_max":544,"o":"m 309 558 l 309 558 q 359 558 397 545 q 435 531 463 507 l 463 507 q 490 482 508 448 q 526 413 535 367 q 544 321 544 260 l 544 260 l 544 0 l 62 0 l 62 257 q 62 314 70 359 q 77 403 93 437 q 109 471 134 496 l 134 496 q 164 525 208 542 q 252 558 309 558 z m 267 526 l 267 526 q 232 526 204 514 q 175 502 152 478 l 152 478 q 121 445 105 393 q 88 341 88 255 l 88 255 l 88 26 l 101 26 q 175 87 235 151 q 295 215 331 280 q 366 344 366 405 l 366 405 q 366 435 357 463 q 348 491 327 509 q 305 526 267 526 z m 393 406 l 393 406 q 393 340 358 274 q 322 207 261 142 q 200 76 122 10 l 122 10 l 125 23 q 155 25 198 26 q 241 26 279 26 l 279 26 l 518 26 l 518 258 q 518 343 498 405 q 477 467 431 501 q 385 535 307 536 l 307 536 l 305 540 q 356 525 375 489 q 393 452 393 406 z"},"യ":{"ha":880,"x_min":43,"x_max":834,"o":"m 574 -12 l 574 -12 q 533 -12 500 -2 q 467 7 438 24 l 438 24 q 436 26 434 28 q 431 29 429 30 l 429 30 q 382 62 351 110 q 319 158 303 217 q 287 275 287 338 l 287 338 q 287 383 297 422 q 306 460 324 490 l 324 490 l 330 498 q 344 517 361 530 q 378 543 400 551 q 421 558 446 558 l 446 558 q 520 558 563 502 q 605 445 605 338 l 605 338 q 605 234 569 154 q 532 73 461 30 l 461 30 q 459 29 456 27 q 453 25 451 23 l 451 23 q 421 6 388 -3 q 354 -12 308 -12 l 308 -12 q 245 -12 196 13 q 146 38 112 84 q 78 129 61 192 q 43 254 43 329 l 43 329 q 43 406 68 457 q 92 507 132 533 q 171 558 216 558 l 216 558 q 266 558 297 538 q 327 517 348 493 l 348 493 l 330 475 q 310 499 284 516 q 257 532 218 532 l 218 532 q 179 532 145 511 q 111 490 91 445 q 70 400 70 327 l 70 327 q 70 237 97 166 q 124 95 178 55 q 231 14 309 14 l 309 14 q 347 14 375 20 q 402 26 427 38 l 427 38 q 430 40 433 42 q 436 44 439 45 l 439 45 q 487 71 518 116 q 548 160 563 218 q 578 275 578 338 l 578 338 q 578 406 562 449 q 545 492 515 512 q 485 532 446 532 l 446 532 q 405 532 375 509 q 345 486 330 443 q 314 399 314 337 l 314 337 q 314 281 329 224 q 344 167 374 121 q 404 74 450 46 l 450 46 q 453 45 456 43 q 459 41 462 39 l 462 39 q 486 27 513 21 q 540 14 573 14 l 573 14 q 657 14 708 51 q 759 87 783 152 q 807 216 807 301 l 807 301 q 807 374 783 438 q 758 501 723 543 l 723 543 l 745 557 q 785 505 810 442 q 834 378 834 302 l 834 302 q 834 232 818 174 q 802 116 770 75 q 738 33 690 11 q 641 -12 574 -12 z"},"ര":{"ha":615,"x_min":44,"x_max":571,"o":"m 303 558 l 303 558 q 369 558 419 535 q 469 511 503 469 q 537 426 554 368 q 571 310 571 240 l 571 240 q 571 147 551 92 q 530 37 494 13 q 458 -12 410 -12 l 410 -12 q 358 -12 325 14 q 291 39 276 85 q 260 130 260 188 l 260 188 q 260 284 304 332 q 348 380 416 380 l 416 380 q 455 380 483 365 q 511 350 532 326 q 553 301 566 271 l 566 271 l 556 253 q 544 278 525 301 q 506 324 480 339 q 453 354 418 354 l 418 354 q 352 354 320 311 q 287 267 287 189 l 287 189 q 287 138 299 99 q 311 59 339 37 q 366 14 412 14 l 412 14 q 453 14 483 37 q 513 59 529 109 q 545 159 545 241 l 545 241 q 545 254 545 266 q 544 278 543 284 l 543 284 q 544 288 545 292 q 545 295 544 299 l 544 299 q 535 359 509 413 q 482 466 433 499 q 383 532 303 532 l 303 532 q 236 532 184 502 q 131 471 101 415 q 71 359 71 281 l 71 281 q 71 218 86 169 q 101 120 129 83 q 157 45 195 14 l 195 14 l 178 -6 q 146 21 115 59 q 84 96 64 151 q 44 205 44 281 l 44 281 q 44 337 61 387 q 77 437 110 476 q 142 514 191 536 q 239 558 303 558 z"},"റ":{"ha":565,"x_min":44,"x_max":521,"o":"m 286 558 l 286 558 q 342 558 386 538 q 430 517 460 480 q 490 443 506 393 q 521 342 521 282 l 521 282 q 521 206 502 152 q 482 98 451 60 q 420 21 385 -8 l 385 -8 l 369 12 q 401 39 430 75 q 459 111 477 162 q 494 212 494 282 l 494 282 q 494 352 472 409 q 449 466 403 499 q 356 532 285 532 l 285 532 q 213 532 166 498 q 118 463 95 406 q 71 349 71 281 l 71 281 q 71 218 86 169 q 101 120 129 83 q 157 45 195 14 l 195 14 l 178 -6 q 146 21 115 59 q 84 96 64 151 q 44 205 44 281 l 44 281 q 44 340 60 391 q 76 441 108 479 q 139 516 184 537 q 229 558 286 558 z"},"ല":{"ha":728,"x_min":68,"x_max":654,"o":"m 628 546 l 654 546 l 654 0 l 68 0 l 68 326 q 68 391 80 434 q 92 476 118 503 l 118 503 q 142 531 179 545 q 215 558 259 558 l 259 558 q 304 558 339 546 q 373 533 396 508 l 396 508 q 421 481 434 438 q 446 395 446 332 l 446 332 l 446 236 l 94 236 l 94 26 l 628 26 l 628 546 z m 258 533 l 258 533 q 178 533 136 485 q 94 436 94 327 l 94 327 l 94 262 l 420 262 l 420 324 q 420 437 381 485 q 342 533 258 533 z"},"ള":{"ha":606,"x_min":44,"x_max":566,"o":"m 341 532 l 341 532 q 271 532 221 514 q 171 495 140 466 q 108 436 92 401 q 76 365 72 332 l 72 332 q 71 329 71 326 q 71 323 71 320 l 71 320 q 70 315 70 309 q 70 303 70 297 l 70 297 q 70 220 94 174 q 118 128 178 128 l 178 128 q 225 128 250 161 q 274 194 274 248 l 274 248 q 274 277 265 303 q 255 328 235 344 q 214 359 178 359 l 178 359 q 142 359 112 342 q 81 325 55 295 l 55 295 l 48 318 q 63 337 82 352 q 101 367 126 376 q 150 385 178 385 l 178 385 q 221 385 248 366 q 275 347 288 316 q 301 284 301 248 l 301 248 q 301 207 287 174 q 273 140 246 121 q 218 102 178 102 l 178 102 q 133 102 103 125 q 73 147 59 191 q 44 234 44 295 l 44 295 q 44 344 61 392 q 78 439 114 476 q 150 513 207 536 q 263 558 341 558 l 341 558 q 418 558 465 536 q 512 514 534 478 q 556 441 556 398 l 556 398 q 556 372 546 342 q 535 311 504 290 q 473 269 411 265 l 411 265 l 372 265 l 372 283 l 381 283 q 417 283 443 289 q 469 294 487 307 l 487 307 q 506 321 518 343 q 529 364 529 398 l 529 398 q 529 438 509 468 q 488 498 447 515 q 406 532 341 532 z m 566 140 l 566 140 q 566 110 558 85 q 550 60 532 43 l 532 43 q 516 27 496 18 q 476 8 450 4 q 423 0 387 0 l 387 0 l 232 0 q 181 0 150 -5 q 119 -11 101 -30 l 101 -30 q 92 -40 87 -54 q 82 -68 82 -86 l 82 -86 q 82 -108 90 -123 q 97 -139 110 -150 l 110 -150 q 127 -163 155 -169 q 182 -175 228 -175 l 228 -175 l 545 -175 l 545 -201 l 221 -201 q 176 -201 147 -194 q 117 -187 94 -170 l 94 -170 q 75 -156 65 -135 q 55 -114 55 -86 l 55 -86 q 55 -63 62 -44 q 69 -26 82 -13 l 82 -13 q 96 1 115 10 q 133 18 161 22 q 188 26 229 26 l 229 26 l 387 26 q 439 26 467 34 q 494 42 512 61 l 512 61 q 525 75 532 95 q 539 115 539 140 l 539 140 q 539 173 526 197 q 512 220 488 234 l 488 234 q 469 246 445 252 q 421 257 387 257 l 387 257 l 372 257 l 372 268 l 411 274 q 486 272 526 236 q 566 200 566 140 z"},"ഴ":{"ha":548,"x_min":41,"x_max":507,"o":"m 239 414 l 239 414 q 239 475 276 517 q 312 558 373 558 l 373 558 q 420 558 449 536 q 478 514 493 478 q 507 442 507 399 l 507 399 q 507 334 481 282 q 454 229 404 199 q 354 169 284 169 l 284 169 l 277 169 q 208 169 155 193 q 101 216 71 267 q 41 317 41 397 l 41 397 q 41 440 53 480 q 64 519 85 557 l 85 557 l 108 544 q 87 506 78 471 q 68 435 68 397 l 68 397 q 68 325 95 280 q 121 235 168 215 q 214 195 276 195 l 276 195 l 284 195 q 350 195 394 223 q 437 250 459 297 q 480 343 480 399 l 480 399 q 480 457 455 495 q 429 532 373 532 l 373 532 q 338 532 314 516 q 290 499 278 473 q 266 446 266 414 l 266 414 q 266 373 278 335 q 290 297 306 261 q 321 224 334 188 q 346 152 346 114 l 346 114 q 346 81 334 52 q 321 23 294 6 q 266 -12 218 -12 l 218 -12 q 185 -12 151 -3 q 117 5 88 21 l 88 21 l 100 45 q 127 30 157 22 q 186 14 219 14 l 219 14 q 272 14 296 41 q 319 67 319 113 l 319 113 q 319 152 307 187 q 294 222 279 258 q 263 294 251 332 q 239 370 239 414 z"},"വ":{"ha":816,"x_min":44,"x_max":742,"o":"m 286 558 l 286 558 q 342 558 386 538 q 430 517 460 480 q 490 443 506 393 q 521 342 521 282 l 521 282 q 521 207 502 154 q 483 101 456 68 q 429 34 405 14 l 405 14 l 410 26 l 716 26 l 716 546 l 742 546 l 742 0 l 389 0 l 378 21 q 405 44 432 78 q 458 112 476 162 q 494 212 494 282 l 494 282 q 494 352 472 409 q 449 466 403 499 q 356 532 285 532 l 285 532 q 213 532 166 498 q 118 463 95 406 q 71 349 71 281 l 71 281 q 71 218 86 169 q 101 120 129 83 q 157 45 195 14 l 195 14 l 178 -6 q 146 21 115 59 q 84 96 64 151 q 44 205 44 281 l 44 281 q 44 340 60 391 q 76 441 108 479 q 139 516 184 537 q 229 558 286 558 z"},"ശ":{"ha":869,"x_min":44,"x_max":825,"o":"m 572 558 l 572 558 q 633 558 680 535 q 726 511 759 469 q 791 427 808 369 q 825 311 825 240 l 825 240 q 825 147 805 92 q 784 37 748 13 q 712 -12 664 -12 l 664 -12 q 612 -12 579 14 q 546 39 530 85 q 514 130 514 188 l 514 188 q 514 284 558 332 q 602 380 671 380 l 671 380 q 709 380 738 365 q 766 350 787 326 q 807 301 820 271 l 820 271 l 810 253 q 798 278 779 301 q 760 324 734 339 q 707 354 672 354 l 672 354 q 606 354 574 311 q 541 267 541 189 l 541 189 q 541 138 553 99 q 565 59 593 37 q 620 14 666 14 l 666 14 q 707 14 737 37 q 767 59 783 109 q 799 159 799 241 l 799 241 q 799 254 799 266 q 798 278 797 284 l 797 284 q 798 288 799 292 q 799 295 798 299 l 798 299 q 789 359 764 413 q 738 466 691 499 q 644 532 572 532 l 572 532 q 530 532 499 521 q 467 509 444 488 l 444 488 q 413 458 399 414 q 385 369 385 285 l 385 285 l 385 233 q 385 159 376 113 q 367 66 338 33 l 338 33 q 320 12 293 0 q 265 -12 227 -12 l 227 -12 q 170 -12 129 20 q 88 52 66 112 q 44 172 44 253 l 44 253 q 44 329 62 384 q 80 438 110 479 q 140 519 175 554 l 175 554 l 193 534 q 158 501 130 462 q 102 423 87 373 q 71 322 71 252 l 71 252 q 71 177 90 124 q 109 71 144 43 q 178 14 226 14 l 226 14 q 262 14 284 24 q 305 34 321 53 l 321 53 q 345 82 352 129 q 359 175 359 250 l 359 250 l 359 303 q 359 377 374 424 q 389 471 424 504 l 424 504 q 448 529 486 544 q 524 558 572 558 z"},"ഷ":{"ha":965,"x_min":37,"x_max":892,"o":"m 186 327 l 186 327 q 230 327 264 307 q 298 287 317 250 q 335 213 335 163 l 335 163 q 335 116 318 78 q 301 39 271 10 l 271 10 l 276 26 l 589 26 l 589 0 l 264 0 l 251 20 q 281 52 295 87 q 308 122 308 162 l 308 162 q 308 228 275 265 q 241 301 186 301 l 186 301 q 147 301 120 283 q 92 264 78 233 q 64 202 64 164 l 64 164 q 64 113 83 77 q 101 41 133 12 l 133 12 l 116 -8 q 80 27 59 66 q 37 105 37 164 l 37 164 q 37 210 56 247 q 74 284 108 306 q 142 327 186 327 z m 892 0 l 574 0 l 574 386 q 574 438 566 469 q 558 500 539 516 l 539 516 q 530 524 518 528 q 506 532 491 532 l 491 532 q 450 532 427 502 q 403 472 403 420 l 403 420 q 403 375 421 343 q 438 311 474 295 q 509 279 564 279 l 564 279 l 577 279 q 630 279 673 297 q 715 315 750 349 q 784 383 813 433 q 842 482 867 546 l 867 546 l 892 546 l 892 0 z m 489 558 l 489 558 q 508 558 524 553 q 540 548 552 538 l 552 538 q 580 517 590 483 q 600 448 600 393 l 600 393 l 600 26 l 866 26 l 866 400 q 866 414 866 432 q 866 450 867 469 q 867 487 868 502 l 868 502 l 873 502 q 842 423 801 367 q 759 311 704 282 q 648 253 577 253 l 577 253 l 568 253 q 506 253 464 272 q 421 291 399 329 q 376 366 376 421 l 376 421 q 376 458 390 489 q 403 520 428 539 q 453 558 489 558 z"},"സ":{"ha":1039,"x_min":44,"x_max":996,"o":"m 524 558 l 524 558 q 559 558 586 546 q 613 534 631 514 l 631 514 q 650 494 660 470 q 670 445 675 411 q 679 376 679 326 l 679 326 l 679 250 q 679 175 687 129 q 695 82 718 53 l 718 53 q 733 34 755 24 q 777 14 813 14 l 813 14 q 861 14 896 43 q 931 71 950 124 q 969 177 969 252 l 969 252 q 969 322 953 373 q 937 423 910 462 q 882 501 847 534 l 847 534 l 864 554 q 900 519 930 479 q 960 438 978 384 q 996 329 996 253 l 996 253 q 996 172 974 112 q 952 52 911 20 q 869 -12 812 -12 l 812 -12 q 774 -12 747 0 q 719 12 701 33 l 701 33 q 682 56 672 84 q 661 111 657 149 q 653 186 653 236 l 653 236 l 653 309 q 653 384 645 426 q 636 468 614 494 l 614 494 q 600 512 578 522 q 555 532 524 532 l 524 532 q 498 532 479 525 q 459 517 445 503 l 445 503 q 419 479 409 436 q 398 393 398 329 l 398 329 l 398 0 l 372 0 l 372 320 q 372 385 361 429 q 350 473 323 500 l 323 500 q 307 515 286 524 q 265 532 232 532 l 232 532 q 178 532 142 499 q 106 465 89 411 q 71 357 71 295 l 71 295 q 71 225 87 175 q 102 124 130 86 q 158 47 193 13 l 193 13 l 175 -6 q 140 28 110 68 q 80 108 62 163 q 44 217 44 295 l 44 295 q 44 368 66 428 q 88 487 131 523 q 173 558 235 558 l 235 558 q 301 558 339 520 q 376 482 388 409 l 388 409 l 381 407 q 388 482 426 520 q 463 558 524 558 z"},"ഹ":{"ha":1009,"x_min":37,"x_max":965,"o":"m 186 327 l 186 327 q 230 327 264 307 q 298 287 317 250 q 335 213 335 163 l 335 163 q 335 116 318 78 q 301 39 271 10 l 271 10 l 276 26 l 604 26 l 614 0 l 264 0 l 251 20 q 281 52 295 87 q 308 122 308 162 l 308 162 q 308 228 275 265 q 241 301 186 301 l 186 301 q 147 301 120 283 q 92 264 78 233 q 64 202 64 164 l 64 164 q 64 113 83 77 q 101 41 133 12 l 133 12 l 116 -8 q 80 27 59 66 q 37 105 37 164 l 37 164 q 37 210 56 247 q 74 284 108 306 q 142 327 186 327 z m 729 558 l 729 558 q 785 558 829 538 q 873 517 904 480 q 934 443 950 393 q 965 342 965 282 l 965 282 q 965 206 945 152 q 925 98 894 60 q 863 21 829 -8 l 829 -8 l 812 12 q 844 39 873 75 q 902 111 920 162 q 938 212 938 282 l 938 282 q 938 352 915 409 q 892 466 846 499 q 799 532 728 532 l 728 532 q 656 532 609 498 q 561 463 538 406 q 514 349 514 281 l 514 281 q 514 219 529 171 q 544 123 570 87 q 596 50 630 21 l 630 21 l 618 0 l 597 0 l 594 22 q 574 42 549 74 q 523 106 505 157 q 487 207 487 281 l 487 281 q 487 340 504 391 q 520 441 552 479 q 583 516 628 537 q 672 558 729 558 z"},"ഺ":{"ha":666,"x_min":25,"x_max":650,"o":"m 52 26 l 650 26 l 650 0 l 380 0 l 380 -202 l 354 -202 l 354 0 l 44 0 l 25 25 l 225 555 l 250 547 l 52 26 z"},"഻":{"ha":0,"x_min":-292,"x_max":-266,"o":"m -292 581 l -292 864 l -266 864 l -266 581 l -292 581 z"},"഼":{"ha":0,"x_min":-202,"x_max":13,"o":"m -202 725 l -202 725 q -202 780 -173 815 q -144 849 -95 849 l -95 849 q -46 849 -16 815 q 13 781 13 725 l 13 725 q 13 669 -16 635 q -46 601 -95 601 l -95 601 q -145 601 -173 636 q -202 670 -202 725 z m -175 726 l -175 726 q -175 680 -154 654 q -133 627 -95 627 l -95 627 q -56 627 -35 654 q -14 680 -14 726 l -14 726 q -14 770 -35 797 q -56 823 -95 823 l -95 823 q -133 823 -154 797 q -175 770 -175 726 z"},"ഽ":{"ha":379,"x_min":-71,"x_max":450,"o":"m 316 784 l 316 784 q 354 784 381 766 q 407 748 425 717 q 442 686 450 646 l 450 646 l 425 641 q 416 673 404 700 q 391 726 370 742 q 349 758 316 758 l 316 758 q 292 758 275 751 q 257 744 243 730 l 243 730 q 219 705 211 663 q 203 620 203 554 l 203 554 l 203 -26 q 203 -99 193 -139 q 182 -179 157 -205 l 157 -205 q 140 -223 116 -233 q 92 -244 64 -244 l 64 -244 q 26 -244 0 -226 q -27 -208 -44 -177 q -62 -146 -71 -106 l -71 -106 l -45 -101 q -36 -133 -23 -159 q -11 -186 10 -202 q 30 -218 64 -218 l 64 -218 q 88 -218 106 -210 q 123 -203 136 -190 l 136 -190 q 161 -165 169 -122 q 177 -80 177 -14 l 177 -14 l 177 566 q 177 639 188 679 q 199 719 223 745 l 223 745 q 240 764 264 774 q 288 784 316 784 z"},"ാ":{"ha":417,"x_min":25,"x_max":370,"o":"m 370 275 l 370 275 q 370 209 360 156 q 350 103 328 66 q 306 28 273 8 q 239 -12 193 -12 l 193 -12 q 155 -12 127 1 q 99 14 79 38 q 59 61 46 93 q 33 124 25 160 l 25 160 l 51 166 q 61 122 78 88 q 94 53 122 34 q 150 14 192 14 l 192 14 q 247 14 280 46 q 313 77 328 136 q 343 194 343 275 l 343 275 q 343 355 328 412 q 312 469 280 501 q 247 532 196 532 l 196 532 q 155 532 128 512 q 100 492 83 458 q 65 424 53 382 l 53 382 l 27 388 q 36 423 51 454 q 65 485 86 509 q 106 532 134 545 q 161 558 196 558 l 196 558 q 242 558 275 537 q 308 515 329 477 q 350 439 360 388 q 370 336 370 275 z"},"ി":{"ha":174,"x_min":-177,"x_max":100,"o":"m -46 843 l -46 843 q -21 843 2 836 q 24 828 41 813 l 41 813 q 62 794 76 767 q 89 740 95 701 q 100 661 100 601 l 100 601 l 100 0 l 74 0 l 74 585 q 74 630 72 669 q 69 708 59 739 q 49 770 27 790 l 27 790 q 14 803 -3 810 q -21 817 -46 817 l -46 817 q -77 817 -100 804 q -124 791 -137 765 q -150 738 -150 698 l -150 698 q -150 679 -148 664 q -146 648 -144 636 l -144 636 l -170 632 q -172 645 -174 662 q -177 678 -177 698 l -177 698 q -177 742 -161 775 q -145 807 -115 825 q -86 843 -46 843 z"},"ീ":{"ha":174,"x_min":-246,"x_max":100,"o":"m -100 843 l -100 843 q -66 843 -36 835 q -7 826 15 810 l 15 810 q 62 778 81 724 q 100 669 100 580 l 100 580 l 100 0 l 74 0 l 74 559 q 74 615 69 658 q 64 701 50 733 q 35 764 6 786 l 6 786 q -14 801 -40 810 q -66 818 -104 818 l -104 818 q -134 818 -160 807 q -187 796 -203 773 q -219 750 -219 714 l -219 714 q -219 671 -198 648 q -178 625 -141 625 l -141 625 q -99 625 -79 650 q -60 674 -60 712 l -60 712 q -60 749 -75 777 q -91 805 -118 826 l -118 826 l -86 828 q -63 807 -48 780 q -34 752 -34 713 l -34 713 q -34 682 -45 656 q -57 629 -80 614 q -104 599 -140 599 l -140 599 q -169 599 -193 612 q -217 625 -231 651 q -246 676 -246 714 l -246 714 q -246 754 -227 783 q -208 812 -175 828 q -142 843 -100 843 z"},"ു":{"ha":267,"x_min":-16,"x_max":270,"o":"m 127 -220 l 127 -220 q 61 -220 23 -175 q -16 -130 -16 -54 l -16 -54 q -16 -3 2 34 q 19 70 51 90 q 83 110 126 110 l 126 110 q 171 110 203 90 q 235 70 253 33 q 270 -4 270 -54 l 270 -54 q 270 -104 253 -141 q 235 -179 203 -199 q 170 -220 127 -220 z m 127 -194 l 127 -194 q 179 -194 211 -159 q 243 -124 243 -54 l 243 -54 q 243 14 212 49 q 180 84 126 84 l 126 84 q 73 84 42 49 q 11 13 11 -55 l 11 -55 q 11 -122 42 -158 q 73 -194 127 -194 z m 78 558 l 78 558 q 122 558 149 539 q 176 520 189 488 q 201 455 201 415 l 201 415 q 201 349 184 264 q 166 178 142 87 l 142 87 l 117 93 q 141 185 158 270 q 174 354 174 413 l 174 413 q 174 470 152 501 q 130 532 77 532 l 77 532 q 64 532 49 530 q 33 528 20 523 l 20 523 l 13 548 q 25 552 44 555 q 62 558 78 558 z"},"ൂ":{"ha":266,"x_min":-16,"x_max":270,"o":"m 127 -220 l 127 -220 q 61 -220 23 -175 q -16 -130 -16 -54 l -16 -54 q -16 -3 2 34 q 19 70 51 90 q 83 110 126 110 l 126 110 q 171 110 203 90 q 235 70 253 33 q 270 -4 270 -54 l 270 -54 q 270 -104 253 -141 q 235 -179 203 -199 q 170 -220 127 -220 z m 126 84 l 126 84 q 71 84 41 52 q 10 20 10 -55 l 10 -55 q 10 -122 42 -158 q 73 -194 127 -194 l 127 -194 q 180 -194 212 -159 q 244 -124 244 -54 l 244 -54 q 244 21 214 53 q 183 84 126 84 z m 127 -85 l 127 -85 q 74 -85 51 -57 q 27 -30 27 9 l 27 9 q 27 32 39 51 q 50 69 67 88 l 67 88 l 83 82 q 64 67 57 50 q 49 32 49 13 l 49 13 q 49 -4 56 -21 q 63 -38 81 -49 q 98 -60 127 -60 l 127 -60 q 157 -60 174 -49 q 191 -38 198 -21 q 205 -4 205 13 l 205 13 q 205 32 198 50 q 190 67 171 82 l 171 82 l 187 88 q 205 69 216 51 q 227 32 227 9 l 227 9 q 227 -17 217 -38 q 207 -60 185 -72 q 163 -85 127 -85 z m 78 558 l 78 558 q 122 558 149 539 q 176 520 189 488 q 201 455 201 415 l 201 415 q 201 349 184 264 q 166 178 142 87 l 142 87 l 117 93 q 141 185 158 270 q 174 354 174 413 l 174 413 q 174 470 152 501 q 130 532 77 532 l 77 532 q 64 532 49 530 q 33 528 20 523 l 20 523 l 13 548 q 25 552 44 555 q 62 558 78 558 z"},"ൃ":{"ha":181,"x_min":-121,"x_max":176,"o":"m 16 -298 l 16 -298 q -25 -298 -55 -282 q -86 -267 -103 -238 q -121 -209 -121 -169 l -121 -169 q -121 -112 -83 -78 q -45 -44 11 -44 l 11 -44 q 63 -44 101 -65 q 139 -86 171 -119 l 171 -119 l 167 -146 q 127 -105 89 -87 q 51 -70 11 -70 l 11 -70 q -34 -70 -63 -95 q -93 -120 -93 -170 l -93 -170 q -93 -221 -63 -246 q -34 -272 15 -272 l 15 -272 q 53 -272 84 -256 q 115 -241 133 -208 q 151 -176 151 -125 l 151 -125 q 151 -93 146 -62 q 140 -32 128 6 q 116 43 95 94 l 95 94 q 72 153 60 200 q 48 247 48 298 l 48 298 q 48 365 67 424 q 85 483 117 546 l 117 546 l 148 546 q 122 498 106 458 q 89 417 82 379 q 75 341 75 299 l 75 299 q 75 245 87 202 q 99 159 120 104 l 120 104 q 141 49 153 10 q 165 -30 171 -62 q 176 -94 176 -126 l 176 -126 q 176 -183 155 -221 q 134 -260 98 -279 q 62 -298 16 -298 z"},"ൄ":{"ha":181,"x_min":-221,"x_max":175,"o":"m -31 -298 l -31 -298 q -85 -298 -128 -283 q -171 -268 -196 -235 q -221 -203 -221 -152 l -221 -152 q -221 -108 -197 -78 q -174 -48 -132 -48 l -132 -48 q -99 -48 -81 -67 q -64 -87 -57 -118 l -57 -118 l -64 -115 q -56 -84 -36 -66 q -16 -48 13 -48 l 13 -48 q 36 -48 52 -57 q 68 -66 78 -81 q 87 -97 92 -116 q 96 -135 96 -154 l 96 -154 l 96 -174 l 70 -174 l 70 -157 q 70 -120 57 -97 q 43 -74 13 -74 l 13 -74 q -19 -74 -33 -96 q -47 -119 -47 -157 l -47 -157 l -47 -174 l -73 -174 l -73 -157 q -73 -121 -86 -97 q -99 -74 -132 -74 l -132 -74 q -161 -74 -178 -95 q -195 -116 -195 -152 l -195 -152 q -195 -215 -151 -243 q -108 -272 -30 -272 l -30 -272 q 58 -272 104 -239 q 149 -206 149 -124 l 149 -124 q 149 -92 144 -62 q 139 -32 128 6 q 116 43 95 94 l 95 94 q 72 153 60 199 q 48 245 48 297 l 48 297 q 48 365 65 424 q 82 482 114 546 l 114 546 l 144 546 q 119 498 104 458 q 88 417 81 379 q 74 340 74 298 l 74 298 q 74 240 88 197 q 101 154 120 104 l 120 104 q 141 49 153 10 q 165 -30 170 -61 q 175 -93 175 -127 l 175 -127 q 175 -189 150 -227 q 125 -265 79 -281 q 33 -298 -31 -298 z"},"െ":{"ha":600,"x_min":44,"x_max":555,"o":"m 198 -12 l 198 -12 q 155 -12 120 10 q 85 32 65 85 q 44 137 44 226 l 44 226 q 44 306 66 368 q 87 429 125 472 q 162 514 211 536 q 259 558 312 558 l 312 558 q 371 558 417 538 q 462 517 493 480 q 524 443 540 393 q 555 342 555 282 l 555 282 q 555 206 536 152 q 516 98 485 60 q 454 21 419 -8 l 419 -8 l 403 12 q 435 39 464 75 q 493 111 511 162 q 528 212 528 282 l 528 282 q 528 352 505 409 q 482 466 435 499 q 387 532 312 532 l 312 532 q 245 532 190 495 q 135 458 103 390 q 70 322 70 227 l 70 227 q 70 151 86 104 q 101 57 130 36 q 158 14 197 14 l 197 14 q 224 14 247 27 q 270 39 284 69 q 297 98 297 150 l 297 150 q 297 205 271 241 q 245 276 191 276 l 191 276 q 149 276 114 255 q 78 234 55 206 l 55 206 l 49 231 q 82 269 119 286 q 155 302 192 302 l 192 302 q 228 302 258 286 q 288 269 306 235 q 324 201 324 150 l 324 150 q 324 93 307 58 q 290 22 261 5 q 232 -12 198 -12 z"},"േ":{"ha":491,"x_min":43,"x_max":455,"o":"m 304 -12 l 304 -12 q 253 -12 206 5 q 159 22 123 57 q 86 92 65 147 q 43 201 43 277 l 43 277 q 43 350 67 403 q 90 456 128 491 q 166 525 213 542 q 259 558 306 558 l 306 558 q 356 558 389 541 q 422 524 439 495 q 455 466 455 429 l 455 429 q 455 391 442 365 q 428 338 405 325 q 382 312 354 312 l 354 312 q 317 312 293 328 q 268 343 256 370 q 244 396 244 429 l 244 429 q 244 465 258 494 q 271 523 294 546 l 294 546 l 324 544 q 301 524 286 494 q 271 463 271 430 l 271 430 q 271 387 291 363 q 310 338 354 338 l 354 338 q 390 338 409 362 q 428 385 428 429 l 428 429 q 428 479 397 506 q 365 532 313 532 l 313 532 q 308 532 303 532 q 297 532 290 532 l 290 532 q 227 529 177 496 q 127 463 99 407 q 70 351 70 277 l 70 277 q 70 196 96 141 q 121 85 168 54 q 215 23 281 14 l 281 14 q 289 14 295 14 q 301 14 310 14 l 310 14 q 342 14 368 26 q 393 37 409 61 q 424 84 424 118 l 424 118 q 424 159 405 183 q 385 207 347 207 l 347 207 q 304 207 285 181 q 265 155 265 118 l 265 118 q 265 85 279 56 q 293 26 315 5 l 315 5 l 284 4 q 265 26 252 55 q 239 84 239 119 l 239 119 q 239 150 251 176 q 263 202 287 218 q 311 233 346 233 l 346 233 q 375 233 399 220 q 422 207 437 182 q 451 156 451 118 l 451 118 q 451 80 434 51 q 416 21 384 5 q 351 -12 304 -12 z"},"ൈ":{"ha":1200,"x_min":44,"x_max":1155,"o":"m 198 -12 l 198 -12 q 155 -12 120 10 q 85 32 65 85 q 44 137 44 226 l 44 226 q 44 306 66 368 q 87 429 125 472 q 162 514 211 536 q 259 558 312 558 l 312 558 q 371 558 417 538 q 462 517 493 480 q 524 443 540 393 q 555 342 555 282 l 555 282 q 555 206 536 152 q 516 98 485 60 q 454 21 419 -8 l 419 -8 l 403 12 q 435 39 464 75 q 493 111 511 162 q 528 212 528 282 l 528 282 q 528 352 505 409 q 482 466 435 499 q 387 532 312 532 l 312 532 q 245 532 190 495 q 135 458 103 390 q 70 322 70 227 l 70 227 q 70 151 86 104 q 101 57 130 36 q 158 14 197 14 l 197 14 q 224 14 247 27 q 270 39 284 69 q 297 98 297 150 l 297 150 q 297 205 271 241 q 245 276 191 276 l 191 276 q 149 276 114 255 q 78 234 55 206 l 55 206 l 49 231 q 82 269 119 286 q 155 302 192 302 l 192 302 q 228 302 258 286 q 288 269 306 235 q 324 201 324 150 l 324 150 q 324 93 307 58 q 290 22 261 5 q 232 -12 198 -12 z m 798 -12 l 798 -12 q 755 -12 720 10 q 685 32 665 85 q 644 137 644 226 l 644 226 q 644 306 666 368 q 687 429 725 472 q 762 514 811 536 q 859 558 912 558 l 912 558 q 971 558 1017 538 q 1062 517 1093 480 q 1124 443 1140 393 q 1155 342 1155 282 l 1155 282 q 1155 206 1136 152 q 1116 98 1085 60 q 1054 21 1019 -8 l 1019 -8 l 1003 12 q 1035 39 1064 75 q 1093 111 1111 162 q 1128 212 1128 282 l 1128 282 q 1128 352 1105 409 q 1082 466 1035 499 q 987 532 912 532 l 912 532 q 845 532 790 495 q 735 458 703 390 q 670 322 670 227 l 670 227 q 670 151 686 104 q 701 57 730 36 q 758 14 797 14 l 797 14 q 824 14 847 27 q 870 39 884 69 q 897 98 897 150 l 897 150 q 897 205 871 241 q 845 276 791 276 l 791 276 q 749 276 714 255 q 678 234 655 206 l 655 206 l 649 231 q 682 269 719 286 q 755 302 792 302 l 792 302 q 828 302 858 286 q 888 269 906 235 q 924 201 924 150 l 924 150 q 924 93 907 58 q 890 22 861 5 q 832 -12 798 -12 z"},"ൊ":{"ha":1126,"x_min":44,"x_max":1079,"o":"m 198 -12 l 198 -12 q 155 -12 120 10 q 85 32 65 85 q 44 137 44 226 l 44 226 q 44 306 66 368 q 87 429 125 472 q 162 514 211 536 q 259 558 312 558 l 312 558 q 371 558 417 538 q 462 517 493 480 q 524 443 540 393 q 555 342 555 282 l 555 282 q 555 206 536 152 q 516 98 485 60 q 454 21 419 -8 l 419 -8 l 403 12 q 435 39 464 75 q 493 111 511 162 q 528 212 528 282 l 528 282 q 528 352 505 409 q 482 466 435 499 q 387 532 312 532 l 312 532 q 245 532 190 495 q 135 458 103 390 q 70 322 70 227 l 70 227 q 70 151 86 104 q 101 57 130 36 q 158 14 197 14 l 197 14 q 224 14 247 27 q 270 39 284 69 q 297 98 297 150 l 297 150 q 297 205 271 241 q 245 276 191 276 l 191 276 q 149 276 114 255 q 78 234 55 206 l 55 206 l 49 231 q 82 269 119 286 q 155 302 192 302 l 192 302 q 228 302 258 286 q 288 269 306 235 q 324 201 324 150 l 324 150 q 324 93 307 58 q 290 22 261 5 q 232 -12 198 -12 z m 656 267 l 656 267 q 641 267 636 276 q 631 285 631 298 l 631 298 q 631 310 636 320 q 641 329 656 329 l 656 329 q 674 329 679 320 q 683 310 683 298 l 683 298 q 683 285 679 276 q 674 267 656 267 z m 1079 275 l 1079 275 q 1079 209 1069 156 q 1059 103 1037 66 q 1015 28 982 8 q 948 -12 902 -12 l 902 -12 q 864 -12 836 1 q 808 14 788 38 q 768 61 755 93 q 742 124 734 160 l 734 160 l 760 166 q 770 122 787 88 q 803 53 831 34 q 859 14 901 14 l 901 14 q 956 14 989 46 q 1022 77 1037 136 q 1052 194 1052 275 l 1052 275 q 1052 355 1037 412 q 1021 469 989 501 q 956 532 905 532 l 905 532 q 864 532 837 512 q 809 492 792 458 q 774 424 762 382 l 762 382 l 736 388 q 745 423 760 454 q 774 485 795 509 q 815 532 843 545 q 870 558 905 558 l 905 558 q 951 558 984 537 q 1017 515 1038 477 q 1059 439 1069 388 q 1079 336 1079 275 z"},"ോ":{"ha":1005,"x_min":44,"x_max":959,"o":"m 305 -12 l 305 -12 q 254 -12 207 5 q 160 22 124 57 q 87 92 66 147 q 44 201 44 277 l 44 277 q 44 350 68 403 q 91 456 129 491 q 167 525 214 542 q 260 558 307 558 l 307 558 q 357 558 390 541 q 423 524 440 495 q 456 466 456 429 l 456 429 q 456 391 443 365 q 429 338 406 325 q 383 312 355 312 l 355 312 q 318 312 294 328 q 269 343 257 370 q 245 396 245 429 l 245 429 q 245 465 259 494 q 272 523 295 546 l 295 546 l 325 544 q 302 524 287 494 q 272 463 272 430 l 272 430 q 272 387 292 363 q 311 338 355 338 l 355 338 q 391 338 410 362 q 429 385 429 429 l 429 429 q 429 479 398 506 q 366 532 314 532 l 314 532 q 309 532 304 532 q 298 532 291 532 l 291 532 q 228 529 178 496 q 128 463 100 407 q 71 351 71 277 l 71 277 q 71 196 97 141 q 122 85 169 54 q 216 23 282 14 l 282 14 q 290 14 296 14 q 302 14 311 14 l 311 14 q 343 14 369 26 q 394 37 410 61 q 425 84 425 118 l 425 118 q 425 159 406 183 q 386 207 348 207 l 348 207 q 305 207 286 181 q 266 155 266 118 l 266 118 q 266 85 280 56 q 294 26 316 5 l 316 5 l 285 4 q 266 26 253 55 q 240 84 240 119 l 240 119 q 240 150 252 176 q 264 202 288 218 q 312 233 347 233 l 347 233 q 376 233 400 220 q 423 207 438 182 q 452 156 452 118 l 452 118 q 452 80 435 51 q 417 21 385 5 q 352 -12 305 -12 z m 535 267 l 535 267 q 520 267 515 276 q 510 285 510 298 l 510 298 q 510 310 515 320 q 520 329 535 329 l 535 329 q 553 329 558 320 q 562 310 562 298 l 562 298 q 562 285 558 276 q 553 267 535 267 z m 958 275 l 958 275 q 958 209 948 156 q 938 103 916 66 q 894 28 861 8 q 827 -12 781 -12 l 781 -12 q 743 -12 715 1 q 687 14 667 38 q 647 61 634 93 q 621 124 613 160 l 613 160 l 639 166 q 649 122 666 88 q 682 53 710 34 q 738 14 780 14 l 780 14 q 835 14 868 46 q 901 77 916 136 q 931 194 931 275 l 931 275 q 931 355 916 412 q 900 469 868 501 q 835 532 784 532 l 784 532 q 743 532 716 512 q 688 492 671 458 q 653 424 641 382 l 641 382 l 615 388 q 624 423 639 454 q 653 485 674 509 q 694 532 722 545 q 749 558 784 558 l 784 558 q 830 558 863 537 q 896 515 917 477 q 938 439 948 388 q 958 336 958 275 z"},"ൌ":{"ha":1356,"x_min":44,"x_max":1310,"o":"m 198 -12 l 198 -12 q 155 -12 120 10 q 85 32 65 85 q 44 137 44 226 l 44 226 q 44 306 66 368 q 87 429 125 472 q 162 514 211 536 q 259 558 312 558 l 312 558 q 371 558 417 538 q 462 517 493 480 q 524 443 540 393 q 555 342 555 282 l 555 282 q 555 206 536 152 q 516 98 485 60 q 454 21 419 -8 l 419 -8 l 403 12 q 435 39 464 75 q 493 111 511 162 q 528 212 528 282 l 528 282 q 528 352 505 409 q 482 466 435 499 q 387 532 312 532 l 312 532 q 245 532 190 495 q 135 458 103 390 q 70 322 70 227 l 70 227 q 70 151 86 104 q 101 57 130 36 q 158 14 197 14 l 197 14 q 224 14 247 27 q 270 39 284 69 q 297 98 297 150 l 297 150 q 297 205 271 241 q 245 276 191 276 l 191 276 q 149 276 114 255 q 78 234 55 206 l 55 206 l 49 231 q 82 269 119 286 q 155 302 192 302 l 192 302 q 228 302 258 286 q 288 269 306 235 q 324 201 324 150 l 324 150 q 324 93 307 58 q 290 22 261 5 q 232 -12 198 -12 z m 656 267 l 656 267 q 641 267 636 276 q 631 285 631 298 l 631 298 q 631 310 636 320 q 641 329 656 329 l 656 329 q 674 329 679 320 q 683 310 683 298 l 683 298 q 683 285 679 276 q 674 267 656 267 z m 1153 558 l 1153 558 q 1204 558 1239 527 q 1273 496 1292 439 q 1310 382 1310 301 l 1310 301 q 1310 197 1287 127 q 1263 57 1213 23 q 1162 -12 1081 -12 l 1081 -12 q 1033 -12 994 -2 q 955 7 915 27 l 915 27 l 928 50 q 967 30 1002 22 q 1037 14 1081 14 l 1081 14 q 1159 14 1203 48 q 1247 81 1265 145 q 1283 209 1283 301 l 1283 301 q 1283 417 1248 475 q 1213 532 1153 532 l 1153 532 q 1125 532 1107 523 q 1088 513 1076 496 l 1076 496 q 1056 469 1049 429 q 1041 389 1041 344 l 1041 344 l 1041 255 l 1015 255 l 1015 345 q 1015 402 1007 439 q 998 476 978 499 l 978 499 q 965 515 946 524 q 927 532 902 532 l 902 532 q 844 532 814 490 q 784 447 784 382 l 784 382 q 784 350 789 320 q 794 289 802 256 l 802 256 l 777 251 q 768 282 763 316 q 757 349 757 384 l 757 384 q 757 433 774 473 q 791 512 824 535 q 856 558 902 558 l 902 558 q 952 558 987 528 q 1021 498 1032 423 l 1032 423 l 1024 421 q 1032 493 1068 526 q 1104 558 1153 558 z"},"്":{"ha":0,"x_min":-235,"x_max":45,"o":"m -98 601 l -98 601 q -139 601 -170 617 q -201 632 -218 664 q -235 696 -235 747 l -235 747 q -235 760 -233 776 q -231 792 -228 805 l -228 805 l -202 800 q -205 788 -207 775 q -209 761 -209 747 l -209 747 q -209 701 -194 675 q -180 649 -155 638 q -130 627 -98 627 l -98 627 q -64 627 -37 639 q -11 650 4 676 q 19 702 19 746 l 19 746 q 19 761 17 775 q 15 788 11 800 l 11 800 l 37 805 q 40 794 43 778 q 45 761 45 746 l 45 746 q 45 696 27 664 q 8 632 -24 617 q -56 601 -98 601 z"},"ൎ":{"ha":0,"x_min":-295,"x_max":-261,"o":"m -295 796 l -261 796 l -266 624 l -290 624 l -295 796 z"},"൏":{"ha":1055,"x_min":51,"x_max":1007,"o":"m 491 558 l 491 558 q 571 558 615 518 q 658 477 671 407 l 671 407 l 664 410 q 677 482 715 520 q 753 558 819 558 l 819 558 q 881 558 923 519 q 964 480 986 409 q 1007 337 1007 239 l 1007 239 q 1007 89 959 -14 q 910 -117 806 -170 q 701 -223 532 -223 l 532 -223 q 418 -223 336 -197 q 253 -172 198 -127 q 143 -82 111 -24 q 78 34 65 98 q 51 162 51 226 l 51 226 q 51 310 70 382 q 89 453 121 527 l 121 527 l 145 516 q 114 446 96 375 q 78 303 78 226 l 78 226 q 78 167 90 107 q 102 47 131 -7 q 160 -62 212 -105 q 264 -148 343 -172 q 422 -197 535 -197 l 535 -197 q 650 -197 734 -170 q 818 -144 873 -90 q 927 -36 954 46 q 980 128 980 238 l 980 238 q 980 323 964 390 q 947 456 912 494 q 876 532 821 532 l 821 532 q 789 532 768 524 q 747 515 731 500 l 731 500 q 703 473 693 429 q 682 385 682 320 l 682 320 l 682 0 l 656 0 l 656 317 q 656 391 640 433 q 624 475 594 500 l 594 500 q 573 517 549 525 q 525 532 490 532 l 490 532 q 421 532 370 494 q 319 455 292 388 q 265 321 265 234 l 265 234 l 265 225 q 265 150 280 104 q 295 57 324 36 q 352 14 392 14 l 392 14 q 419 14 442 27 q 464 39 478 69 q 492 98 492 150 l 492 150 q 492 205 466 241 q 440 276 386 276 l 386 276 q 343 276 308 255 q 273 234 250 206 l 250 206 l 244 231 q 277 269 314 286 q 350 302 386 302 l 386 302 q 422 302 452 286 q 482 269 501 235 q 519 201 519 150 l 519 150 q 519 93 502 58 q 484 22 456 5 q 427 -12 392 -12 l 392 -12 q 349 -12 314 11 q 279 33 259 85 q 239 136 239 225 l 239 225 q 239 327 270 402 q 301 477 358 518 q 415 558 491 558 z"},"ൔ":{"ha":533,"x_min":52,"x_max":523,"o":"m 129 792 l 129 792 q 154 792 174 786 q 193 779 207 768 l 207 768 q 230 750 240 722 q 250 694 250 643 l 250 643 l 250 503 q 250 444 257 397 q 263 350 280 309 q 296 268 328 225 l 328 225 l 334 217 q 367 178 413 132 q 458 85 523 25 l 523 25 l 510 0 l 62 0 l 62 258 q 62 305 67 345 q 72 384 84 418 q 95 451 115 480 l 115 480 q 139 514 176 536 q 213 557 260 557 l 260 557 q 314 557 348 533 q 381 509 397 472 q 412 434 412 391 l 412 391 q 412 340 392 294 q 371 247 334 203 l 334 203 l 327 195 q 300 162 267 131 q 233 99 197 70 q 160 40 123 12 l 123 12 l 121 22 q 147 24 175 25 q 202 26 241 26 l 241 26 l 412 26 q 431 26 449 26 q 466 26 482 26 q 497 25 510 23 l 510 23 l 493 21 q 438 72 395 115 q 352 158 318 197 l 318 197 l 312 205 q 279 251 260 293 q 240 335 232 383 q 224 431 224 494 l 224 494 l 224 639 q 224 685 217 710 q 209 734 190 749 l 190 749 q 179 756 165 761 q 150 766 129 766 l 129 766 q 110 766 93 764 q 75 761 59 756 l 59 756 l 52 781 q 69 786 90 789 q 110 792 129 792 z m 88 247 l 88 26 l 101 26 q 143 58 181 90 q 219 121 252 153 q 285 184 311 215 l 311 215 l 317 223 q 349 263 367 305 q 385 346 385 391 l 385 391 q 385 430 372 462 q 359 494 332 513 q 304 532 259 532 l 259 532 q 221 532 190 515 q 158 497 139 470 l 139 470 q 120 444 109 412 q 98 380 93 340 q 88 299 88 247 l 88 247 z"},"ൕ":{"ha":868,"x_min":44,"x_max":835,"o":"m 585 -12 l 585 -12 q 555 -12 530 -8 q 504 -4 483 4 q 461 12 441 23 l 441 23 q 439 25 437 27 q 434 29 432 30 l 432 30 q 385 61 353 109 q 321 157 305 216 q 288 275 288 338 l 288 338 q 288 383 297 422 q 306 461 326 490 l 326 490 l 331 498 q 345 517 362 531 q 379 544 401 551 q 422 558 447 558 l 447 558 q 521 558 564 502 q 606 445 606 338 l 606 338 q 606 269 590 210 q 574 150 542 105 q 510 59 462 30 l 462 30 q 460 29 458 27 q 455 25 452 23 l 452 23 q 423 6 389 -3 q 355 -12 310 -12 l 310 -12 q 246 -12 197 13 q 148 38 114 84 q 79 129 62 192 q 44 254 44 329 l 44 329 q 44 406 69 457 q 93 507 133 533 q 172 558 218 558 l 218 558 q 267 558 298 538 q 328 517 349 493 l 349 493 l 331 475 q 311 499 285 516 q 258 532 219 532 l 219 532 q 180 532 147 511 q 113 490 92 445 q 71 400 71 327 l 71 327 q 71 237 98 166 q 125 95 179 55 q 232 14 310 14 l 310 14 q 348 14 376 20 q 404 26 428 38 l 428 38 q 431 40 434 42 q 437 44 440 45 l 440 45 q 488 71 519 116 q 549 160 564 218 q 579 275 579 338 l 579 338 q 579 406 563 449 q 546 492 517 512 q 487 532 447 532 l 447 532 q 406 532 377 509 q 347 486 331 443 q 315 399 315 337 l 315 337 q 315 281 331 224 q 346 167 377 121 q 407 74 452 46 l 452 46 q 455 45 458 43 q 461 41 464 39 l 464 39 q 488 27 517 21 q 546 14 584 14 l 584 14 q 665 14 712 43 q 758 71 778 122 q 797 172 797 235 l 797 235 q 797 276 787 315 q 777 353 758 393 q 739 432 711 475 l 711 475 q 683 519 665 552 q 646 585 637 613 q 628 640 628 667 l 628 667 q 628 699 642 728 q 655 756 683 774 q 711 792 754 792 l 754 792 q 775 792 796 789 q 816 785 835 779 l 835 779 l 827 754 q 809 760 791 763 q 773 766 753 766 l 753 766 q 701 766 678 737 q 655 707 655 667 l 655 667 q 655 643 663 620 q 670 596 688 566 q 705 535 733 488 l 733 488 q 761 446 781 406 q 801 365 813 323 q 824 281 824 235 l 824 235 q 824 192 816 154 q 807 116 789 86 q 771 55 743 33 q 714 11 675 0 q 636 -12 585 -12 z"},"ൖ":{"ha":571,"x_min":41,"x_max":530,"o":"m 128 145 l 128 145 q 128 111 138 81 q 147 51 173 33 q 198 14 246 14 l 246 14 q 295 14 318 41 q 341 67 341 113 l 341 113 q 341 152 329 187 q 317 222 302 258 q 286 294 274 332 q 262 370 262 414 l 262 414 q 262 454 279 487 q 295 519 325 539 q 355 558 396 558 l 396 558 q 442 558 472 536 q 501 514 516 478 q 530 442 530 399 l 530 399 q 530 334 503 282 q 476 229 424 199 q 371 169 293 169 l 293 169 l 287 169 q 240 169 200 179 q 160 189 128 210 l 128 210 l 117 217 q 93 236 76 262 q 59 288 50 322 q 41 355 41 397 l 41 397 q 41 440 53 480 q 64 519 85 557 l 85 557 l 108 544 q 87 506 78 471 q 68 435 68 397 l 68 397 q 68 343 84 305 q 99 267 127 242 l 127 242 l 135 236 q 164 215 202 205 q 239 195 285 195 l 285 195 l 294 195 q 367 195 413 223 q 459 250 481 297 q 503 343 503 399 l 503 399 q 503 457 477 495 q 451 532 396 532 l 396 532 q 361 532 337 516 q 313 499 301 473 q 289 446 289 414 l 289 414 q 289 373 301 335 q 313 297 329 261 q 344 224 356 188 q 368 152 368 114 l 368 114 q 368 90 362 67 q 355 44 341 27 q 326 9 303 -1 q 279 -12 245 -12 l 245 -12 q 195 -12 164 8 q 132 27 117 63 q 101 98 101 145 l 101 145 q 101 182 113 222 q 124 261 147 313 q 170 364 203 434 l 203 434 q 234 498 250 540 q 266 581 272 611 q 278 640 278 668 l 278 668 q 278 712 257 739 q 235 766 184 766 l 184 766 q 160 766 141 763 q 122 760 106 755 l 106 755 l 99 780 q 116 785 139 789 q 161 792 184 792 l 184 792 q 227 792 254 775 q 280 757 293 729 q 305 701 305 669 l 305 669 q 305 647 302 623 q 298 599 290 571 q 281 543 266 507 q 251 471 226 423 l 226 423 q 199 366 181 325 q 162 284 151 253 q 139 221 134 196 q 128 170 128 145 z"},"ൗ":{"ha":640,"x_min":41,"x_max":594,"o":"m 437 558 l 437 558 q 488 558 523 527 q 557 496 576 439 q 594 382 594 301 l 594 301 q 594 197 571 127 q 547 57 497 23 q 446 -12 365 -12 l 365 -12 q 317 -12 278 -2 q 239 7 199 27 l 199 27 l 212 50 q 251 30 286 22 q 321 14 365 14 l 365 14 q 443 14 487 48 q 531 81 549 145 q 567 209 567 301 l 567 301 q 567 417 532 475 q 497 532 437 532 l 437 532 q 409 532 391 523 q 372 513 360 496 l 360 496 q 340 469 333 429 q 325 389 325 344 l 325 344 l 325 255 l 299 255 l 299 345 q 299 402 291 439 q 282 476 262 499 l 262 499 q 249 515 230 524 q 211 532 186 532 l 186 532 q 128 532 98 490 q 68 447 68 382 l 68 382 q 68 350 73 320 q 78 289 86 256 l 86 256 l 61 251 q 52 282 47 316 q 41 349 41 384 l 41 384 q 41 433 58 473 q 75 512 108 535 q 140 558 186 558 l 186 558 q 236 558 271 528 q 305 498 316 423 l 316 423 l 308 421 q 316 493 352 526 q 388 558 437 558 z"},"൘":{"ha":1029,"x_min":44,"x_max":979,"o":"m 516 -12 l 516 -12 q 450 -12 414 29 q 377 69 367 141 l 367 141 l 373 137 q 363 64 326 26 q 289 -12 228 -12 l 228 -12 q 172 -12 131 21 q 89 54 67 114 q 44 174 44 253 l 44 253 q 44 329 62 384 q 80 438 110 478 q 139 518 175 552 l 175 552 l 192 533 q 158 499 130 461 q 102 423 87 373 q 71 322 71 253 l 71 253 q 71 189 89 135 q 106 80 141 47 q 176 14 229 14 l 229 14 q 255 14 276 23 q 296 32 311 47 l 311 47 q 337 74 348 118 q 358 161 358 225 l 358 225 l 358 546 l 384 546 l 384 223 q 384 161 393 121 q 402 81 424 54 l 424 54 q 439 36 462 25 q 484 14 514 14 l 514 14 q 546 14 569 25 q 591 36 606 54 l 606 54 q 627 80 636 119 q 644 158 644 224 l 644 224 l 644 546 l 670 546 l 670 233 l 662 139 q 655 64 617 26 q 578 -12 516 -12 z m 802 -12 l 802 -12 q 740 -12 703 26 q 665 64 654 137 l 654 137 l 655 224 l 655 536 l 670 536 l 670 221 q 670 158 681 117 q 691 75 717 48 l 717 48 q 733 32 754 23 q 775 14 802 14 l 802 14 q 853 14 886 48 q 919 82 936 149 q 952 216 952 313 l 952 313 q 952 417 932 499 q 912 580 875 640 q 837 700 785 739 q 733 778 670 798 q 606 817 534 817 l 534 817 q 474 817 421 811 q 367 804 321 793 l 321 793 l 316 819 q 345 826 379 832 q 413 837 452 840 q 491 843 534 843 l 534 843 q 610 843 677 823 q 744 802 800 761 q 855 719 896 656 q 936 593 958 508 q 979 422 979 313 l 979 313 q 979 205 959 133 q 939 61 899 25 q 859 -12 802 -12 z"},"൙":{"ha":917,"x_min":44,"x_max":895,"o":"m 303 558 l 303 558 q 371 558 421 534 q 471 510 505 466 q 538 422 555 363 q 571 303 571 232 l 571 232 q 571 139 551 86 q 531 33 494 11 q 457 -12 408 -12 l 408 -12 q 360 -12 330 10 q 299 31 285 65 q 270 99 270 137 l 270 137 q 270 173 282 201 q 294 229 316 249 l 316 249 q 337 269 366 281 q 395 292 433 298 q 471 303 519 303 l 519 303 l 540 303 l 540 277 l 517 277 q 456 277 411 268 q 365 259 336 233 l 336 233 q 317 217 307 193 q 297 168 297 138 l 297 138 q 297 81 326 48 q 355 14 408 14 l 408 14 q 455 14 485 36 q 515 57 530 105 q 544 153 544 231 l 544 231 q 544 246 544 258 q 544 270 542 282 l 542 282 l 542 291 q 533 366 504 420 q 475 474 425 503 q 375 532 303 532 l 303 532 q 236 532 184 502 q 131 471 101 415 q 71 359 71 281 l 71 281 q 71 218 86 169 q 101 120 129 83 q 157 45 195 14 l 195 14 l 178 -6 q 146 21 115 59 q 84 96 64 151 q 44 205 44 281 l 44 281 q 44 337 61 387 q 77 437 110 476 q 142 514 191 536 q 239 558 303 558 z m 776 546 l 776 546 q 815 546 842 528 q 868 510 882 481 q 895 452 895 417 l 895 417 q 895 385 886 360 q 877 334 858 317 l 858 317 q 843 302 823 293 q 803 284 779 281 q 754 277 724 277 l 724 277 l 533 277 l 533 303 l 723 303 q 769 303 795 310 q 820 317 837 332 l 837 332 q 852 346 860 367 q 868 388 868 416 l 868 416 q 868 462 845 491 q 821 520 776 520 l 776 520 q 727 520 701 489 q 675 458 675 405 l 675 405 q 675 370 685 342 q 695 313 710 287 l 710 287 l 683 283 q 667 311 658 341 q 648 371 648 407 l 648 407 q 648 451 665 482 q 681 513 711 530 q 740 546 776 546 z"},"൚":{"ha":913,"x_min":44,"x_max":851,"o":"m 617 558 l 617 558 q 666 558 704 545 q 742 531 770 507 l 770 507 q 797 482 815 448 q 833 413 842 367 q 851 321 851 260 l 851 260 l 851 0 l 409 0 l 409 26 q 482 87 542 151 q 602 215 638 280 q 674 344 674 405 l 674 405 q 674 435 665 463 q 655 491 634 509 q 612 526 574 526 l 574 526 q 539 526 511 514 q 483 502 461 478 l 461 478 q 426 442 412 390 q 398 337 398 261 l 398 261 l 398 230 l 372 230 l 372 320 q 372 385 361 429 q 350 472 323 499 l 323 499 q 307 515 287 524 q 266 532 237 532 l 237 532 q 181 532 144 500 q 107 467 89 413 q 71 358 71 293 l 71 293 q 71 224 87 174 q 102 123 130 85 q 158 47 192 13 l 192 13 l 175 -6 q 139 28 110 68 q 80 108 62 163 q 44 217 44 293 l 44 293 q 44 373 68 433 q 91 492 135 525 q 178 558 236 558 l 236 558 q 294 558 327 532 q 359 506 374 464 q 389 422 394 374 l 394 374 l 385 372 q 396 437 429 478 q 461 519 510 539 q 558 558 617 558 z m 701 406 l 701 406 q 701 340 665 274 q 629 207 568 142 q 507 76 429 10 l 429 10 l 432 23 q 462 25 506 26 q 549 26 586 26 l 586 26 l 825 26 l 825 258 q 825 343 805 405 q 784 467 738 501 q 692 535 615 536 l 615 536 l 612 540 q 663 525 682 489 q 701 452 701 406 z"},"൛":{"ha":816,"x_min":74,"x_max":772,"o":"m 530 -12 l 530 -12 q 474 -12 430 9 q 386 29 356 66 q 326 103 311 154 q 295 204 295 264 l 295 264 q 295 340 314 393 q 333 445 361 479 q 388 513 411 532 l 411 532 l 406 520 l 100 520 l 100 0 l 74 0 l 74 546 l 427 546 l 438 525 q 412 503 385 469 q 358 434 340 384 q 322 334 322 264 l 322 264 q 322 194 345 137 q 368 80 415 47 q 461 14 532 14 l 532 14 q 604 14 651 49 q 698 83 722 140 q 745 197 745 265 l 745 265 q 745 329 730 378 q 715 426 688 464 q 660 502 622 532 l 622 532 l 638 552 q 672 526 702 488 q 732 450 752 396 q 772 341 772 265 l 772 265 q 772 206 756 156 q 740 105 709 68 q 677 30 632 9 q 587 -12 530 -12 z"},"൜":{"ha":1290,"x_min":44,"x_max":1246,"o":"m 781 558 l 781 558 q 817 558 843 546 q 869 533 887 512 l 887 512 q 904 491 913 466 q 922 441 926 407 q 929 372 929 324 l 929 324 l 929 250 q 929 175 937 129 q 945 82 968 53 l 968 53 q 983 34 1005 24 q 1027 14 1063 14 l 1063 14 q 1112 14 1147 43 q 1182 71 1201 124 q 1219 177 1219 252 l 1219 252 q 1219 322 1203 373 q 1187 423 1160 462 q 1132 501 1097 534 l 1097 534 l 1114 554 q 1150 519 1180 479 q 1210 438 1228 384 q 1246 329 1246 253 l 1246 253 q 1246 172 1224 112 q 1202 52 1161 20 q 1119 -12 1062 -12 l 1062 -12 q 1024 -12 997 0 q 969 12 951 33 l 951 33 q 932 56 922 84 q 911 111 907 149 q 903 186 903 236 l 903 236 l 903 316 q 903 380 897 425 q 890 469 866 496 l 866 496 q 852 514 831 523 q 810 532 781 532 l 781 532 q 752 532 731 523 q 709 514 695 496 l 695 496 q 672 469 665 424 q 658 379 658 315 l 658 315 l 658 222 q 658 175 654 140 q 650 104 640 77 q 630 50 611 30 l 611 30 q 593 11 567 0 q 541 -12 509 -12 l 509 -12 q 473 -12 447 1 q 421 13 403 34 l 403 34 q 386 55 377 81 q 367 106 364 141 q 360 175 360 222 l 360 222 l 360 296 q 360 371 353 418 q 345 464 321 493 l 321 493 q 306 512 284 522 q 262 532 227 532 l 227 532 q 178 532 144 504 q 109 475 90 422 q 71 369 71 294 l 71 294 q 71 224 87 174 q 102 123 130 84 q 158 45 193 12 l 193 12 l 175 -8 q 140 27 110 68 q 80 108 62 163 q 44 217 44 293 l 44 293 q 44 375 66 435 q 88 494 129 526 q 170 558 228 558 l 228 558 q 266 558 294 546 q 321 534 338 513 l 338 513 q 358 491 368 463 q 378 435 382 398 q 386 361 386 310 l 386 310 l 386 230 q 386 167 393 123 q 400 78 423 50 l 423 50 q 437 33 459 24 q 480 14 509 14 l 509 14 q 538 14 559 24 q 580 33 594 50 l 594 50 q 618 78 625 123 q 632 167 632 231 l 632 231 l 632 324 q 632 372 636 408 q 639 443 650 470 q 660 496 679 516 l 679 516 q 696 535 722 547 q 748 558 781 558 z"},"൝":{"ha":1739,"x_min":10,"x_max":1695,"o":"m 687 558 l 687 558 q 723 558 750 546 q 776 533 793 512 l 793 512 q 810 491 820 466 q 829 441 833 407 q 836 372 836 324 l 836 324 l 836 230 q 836 167 843 123 q 850 78 873 50 l 873 50 q 887 33 908 24 q 929 14 959 14 l 959 14 q 987 14 1009 24 q 1030 33 1044 50 l 1044 50 q 1068 78 1075 123 q 1081 167 1081 231 l 1081 231 l 1081 324 q 1081 372 1085 408 q 1089 443 1099 470 q 1109 496 1129 516 l 1129 516 q 1146 535 1172 547 q 1198 558 1230 558 l 1230 558 q 1266 558 1293 546 q 1319 533 1336 512 l 1336 512 q 1354 491 1363 466 q 1372 441 1376 407 q 1379 372 1379 324 l 1379 324 l 1379 250 q 1379 175 1387 129 q 1394 82 1418 53 l 1418 53 q 1433 34 1455 24 q 1477 14 1512 14 l 1512 14 q 1561 14 1596 43 q 1631 71 1650 124 q 1668 177 1668 252 l 1668 252 q 1668 322 1653 373 q 1637 423 1610 462 q 1582 501 1547 534 l 1547 534 l 1564 554 q 1599 519 1630 479 q 1660 438 1678 384 q 1695 329 1695 253 l 1695 253 q 1695 172 1674 112 q 1652 52 1611 20 q 1569 -12 1511 -12 l 1511 -12 q 1474 -12 1447 0 q 1419 12 1401 33 l 1401 33 q 1381 56 1371 84 q 1361 111 1357 149 q 1353 186 1353 236 l 1353 236 l 1353 316 q 1353 380 1347 425 q 1340 469 1316 496 l 1316 496 q 1302 514 1281 523 q 1259 532 1230 532 l 1230 532 q 1202 532 1181 523 q 1159 514 1145 496 l 1145 496 q 1121 469 1114 424 q 1107 379 1107 315 l 1107 315 l 1107 222 q 1107 175 1104 140 q 1100 104 1090 77 q 1079 50 1060 30 l 1060 30 q 1043 11 1017 0 q 991 -12 959 -12 l 959 -12 q 922 -12 897 1 q 871 13 853 34 l 853 34 q 835 55 826 81 q 817 106 814 141 q 810 175 810 222 l 810 222 l 810 316 q 810 380 804 425 q 797 469 773 496 l 773 496 q 759 514 738 523 q 716 532 687 532 l 687 532 q 658 532 637 523 q 616 514 602 496 l 602 496 q 578 469 571 424 q 564 379 564 315 l 564 315 l 564 220 q 564 145 554 104 q 543 62 516 32 l 516 32 q 498 12 471 0 q 444 -12 409 -12 l 409 -12 q 348 -12 311 26 q 273 64 266 139 l 266 139 l 272 137 q 265 90 246 57 q 226 23 194 6 q 162 -12 115 -12 l 115 -12 q 90 -12 63 -6 q 35 0 10 13 l 10 13 l 20 37 q 40 26 64 20 q 88 14 115 14 l 115 14 q 149 14 171 23 q 192 32 208 46 l 208 46 q 235 74 246 118 q 257 161 257 226 l 257 226 l 257 546 l 283 546 l 283 217 q 283 154 294 111 q 304 68 330 43 l 330 43 q 344 29 364 22 q 383 14 409 14 l 409 14 q 440 14 463 24 q 485 34 499 52 l 499 52 q 521 78 530 120 q 538 162 538 237 l 538 237 l 538 324 q 538 372 542 408 q 546 443 556 470 q 566 496 585 516 l 585 516 q 603 535 629 547 q 655 558 687 558 z"},"൞":{"ha":1131,"x_min":44,"x_max":1099,"o":"m 303 558 l 303 558 q 371 558 421 534 q 471 510 505 466 q 538 422 555 363 q 571 303 571 232 l 571 232 q 571 139 551 86 q 531 33 494 11 q 457 -12 408 -12 l 408 -12 q 360 -12 330 10 q 299 31 285 65 q 270 99 270 137 l 270 137 q 270 173 282 201 q 294 229 316 249 l 316 249 q 337 269 366 281 q 395 292 433 298 q 471 303 519 303 l 519 303 l 543 303 l 543 277 l 517 277 q 456 277 411 268 q 365 259 336 233 l 336 233 q 317 217 307 193 q 297 168 297 138 l 297 138 q 297 81 326 48 q 355 14 408 14 l 408 14 q 455 14 485 36 q 515 57 530 105 q 544 153 544 231 l 544 231 q 544 246 544 258 q 544 270 542 282 l 542 282 l 542 291 q 533 366 504 420 q 475 474 425 503 q 375 532 303 532 l 303 532 q 236 532 184 502 q 131 471 101 415 q 71 359 71 281 l 71 281 q 71 218 86 169 q 101 120 129 83 q 157 45 195 14 l 195 14 l 178 -6 q 146 21 115 59 q 84 96 64 151 q 44 205 44 281 l 44 281 q 44 337 61 387 q 77 437 110 476 q 142 514 191 536 q 239 558 303 558 z m 949 219 l 949 219 q 905 219 871 239 q 837 259 819 297 q 800 334 800 383 l 800 383 q 800 430 818 469 q 835 507 864 536 l 864 536 l 859 520 l 661 520 l 668 531 q 693 502 706 471 q 719 440 719 409 l 719 409 q 719 354 695 325 q 670 296 631 287 q 591 277 547 277 l 547 277 l 527 277 l 527 303 l 544 303 q 583 303 617 310 q 651 316 672 338 q 693 360 693 408 l 693 408 q 693 440 680 468 q 666 496 644 521 l 644 521 l 655 546 l 871 546 l 884 526 q 855 494 841 459 q 827 424 827 384 l 827 384 q 827 318 861 282 q 894 245 949 245 l 949 245 q 988 245 1016 264 q 1043 282 1058 314 q 1072 345 1072 382 l 1072 382 q 1072 433 1053 469 q 1034 505 1002 534 l 1002 534 l 1019 554 q 1056 519 1078 480 q 1099 441 1099 382 l 1099 382 q 1099 336 1080 299 q 1061 262 1028 241 q 994 219 949 219 z"},"ൟ":{"ha":1110,"x_min":31,"x_max":1078,"o":"m 31 264 l 31 264 q 31 319 61 354 q 90 388 139 388 l 139 388 q 188 388 218 354 q 247 320 247 264 l 247 264 q 247 208 218 174 q 188 140 139 140 l 139 140 q 89 140 60 175 q 31 209 31 264 z m 58 265 l 58 265 q 58 219 79 193 q 100 166 139 166 l 139 166 q 178 166 199 193 q 220 219 220 265 l 220 265 q 220 309 199 336 q 178 362 139 362 l 139 362 q 101 362 80 336 q 58 309 58 265 z m 863 264 l 863 264 q 863 319 892 354 q 921 388 970 388 l 970 388 q 1019 388 1049 354 q 1078 320 1078 264 l 1078 264 q 1078 208 1049 174 q 1019 140 970 140 l 970 140 q 920 140 892 175 q 863 209 863 264 z m 890 265 l 890 265 q 890 219 911 193 q 931 166 970 166 l 970 166 q 1010 166 1031 193 q 1051 219 1051 265 l 1051 265 q 1051 309 1031 336 q 1010 362 970 362 l 970 362 q 932 362 911 336 q 890 309 890 265 z m 550 558 l 550 558 q 616 558 666 535 q 716 511 750 469 q 784 426 801 368 q 818 310 818 240 l 818 240 q 818 147 798 92 q 777 37 741 13 q 705 -12 657 -12 l 657 -12 q 605 -12 572 14 q 539 39 523 85 q 507 130 507 188 l 507 188 q 507 284 551 332 q 595 380 664 380 l 664 380 q 702 380 731 365 q 759 350 780 326 q 800 301 813 271 l 813 271 l 804 253 q 791 278 772 301 q 753 324 727 339 q 700 354 665 354 l 665 354 q 599 354 567 311 q 534 267 534 189 l 534 189 q 534 138 546 99 q 558 59 586 37 q 613 14 659 14 l 659 14 q 701 14 731 37 q 760 59 776 109 q 792 159 792 241 l 792 241 q 792 254 792 266 q 791 278 790 284 l 790 284 q 791 288 792 292 q 792 295 791 299 l 791 299 q 782 359 756 413 q 730 466 680 499 q 630 532 550 532 l 550 532 q 483 532 431 502 q 378 471 348 415 q 318 359 318 281 l 318 281 q 318 218 333 169 q 348 120 376 83 q 404 45 442 14 l 442 14 l 425 -6 q 393 21 362 59 q 331 96 311 151 q 291 205 291 281 l 291 281 q 291 337 308 387 q 324 437 357 476 q 389 514 438 536 q 486 558 550 558 z"},"ൠ":{"ha":734,"x_min":41,"x_max":694,"o":"m 548 558 l 548 558 q 617 558 656 506 q 694 454 694 365 l 694 365 q 694 301 677 256 q 659 211 627 181 l 627 181 q 586 141 527 124 q 467 107 394 107 l 394 107 l 378 107 l 357 107 l 341 107 q 268 107 209 124 q 149 141 107 181 l 107 181 q 77 211 59 256 q 41 301 41 364 l 41 364 q 41 423 59 467 q 76 510 109 534 q 142 558 188 558 l 188 558 q 228 558 256 540 q 284 521 299 489 q 314 456 314 415 l 314 415 q 314 375 299 343 q 284 311 255 294 q 225 276 181 276 l 181 276 q 152 276 128 285 q 104 293 84 308 q 64 322 49 339 l 49 339 l 57 364 q 69 348 87 334 q 104 320 127 311 q 150 302 180 302 l 180 302 q 233 302 260 332 q 287 361 287 415 l 287 415 q 287 467 263 500 q 238 532 188 532 l 188 532 q 146 532 119 510 q 92 487 79 449 q 66 411 66 364 l 66 364 q 66 357 67 351 q 67 344 68 338 l 68 338 l 67 328 q 73 274 96 235 q 119 196 157 172 q 195 147 247 135 q 299 123 363 123 l 363 123 l 370 123 q 434 123 487 135 q 539 147 577 172 q 615 196 638 235 q 661 274 667 328 l 667 328 l 667 338 q 667 344 668 351 q 668 358 668 365 l 668 365 q 668 412 656 450 q 643 488 617 510 q 591 532 548 532 l 548 532 q 497 532 473 498 q 448 464 448 413 l 448 413 q 448 360 475 331 q 501 302 553 302 l 553 302 q 583 302 607 311 q 630 320 648 334 q 665 348 677 364 l 677 364 l 685 339 q 670 322 651 308 q 631 293 607 285 q 582 276 552 276 l 552 276 q 509 276 480 294 q 450 311 436 343 q 421 374 421 413 l 421 413 q 421 455 436 488 q 451 520 480 539 q 508 558 548 558 z m 366 -203 l 366 -203 q 260 -203 194 -185 q 128 -167 98 -130 q 68 -94 68 -41 l 68 -41 q 68 4 88 34 q 108 64 144 82 q 179 99 227 107 q 275 114 332 114 l 332 114 l 403 114 q 459 114 507 107 q 555 99 591 82 q 626 65 646 35 q 666 5 666 -41 l 666 -41 q 666 -93 636 -129 q 606 -166 540 -184 q 474 -203 366 -203 z m 367 -177 l 367 -177 q 468 -177 528 -161 q 587 -146 613 -115 q 639 -85 639 -40 l 639 -40 q 639 -5 624 21 q 608 47 575 64 q 542 81 491 90 q 440 98 369 98 l 369 98 l 363 98 q 270 98 211 83 q 151 68 123 38 q 95 7 95 -40 l 95 -40 q 95 -85 121 -115 q 146 -146 206 -161 q 265 -177 367 -177 z m 440 33 l 440 33 q 463 33 479 24 q 495 14 504 -1 q 513 -16 518 -34 q 522 -53 522 -71 l 522 -71 l 522 -103 l 496 -103 l 496 -75 q 496 -31 482 -12 q 467 7 438 7 l 438 7 q 410 7 395 -15 q 380 -37 380 -75 l 380 -75 l 380 -103 l 354 -103 l 354 -75 q 354 -37 339 -15 q 324 7 296 7 l 296 7 q 267 7 253 -12 q 238 -31 238 -75 l 238 -75 l 238 -103 l 212 -103 l 212 -70 q 212 -52 217 -34 q 221 -16 230 -1 q 239 14 255 24 q 271 33 294 33 l 294 33 q 322 33 340 18 q 357 3 367 -25 l 367 -25 q 376 1 394 17 q 412 33 440 33 z"},"ൡ":{"ha":1104,"x_min":47,"x_max":1075,"o":"m 299 558 l 299 558 q 379 558 424 516 q 469 474 481 398 l 481 398 l 482 369 l 490 285 l 490 0 l 464 0 l 464 317 q 464 391 448 433 q 432 475 402 500 l 402 500 q 381 517 357 525 q 333 532 298 532 l 298 532 q 229 532 178 494 q 127 455 100 388 q 73 321 73 234 l 73 234 l 73 225 q 73 150 88 104 q 103 57 132 36 q 160 14 200 14 l 200 14 q 227 14 250 27 q 273 39 287 69 q 300 98 300 150 l 300 150 q 300 205 274 241 q 248 276 194 276 l 194 276 q 151 276 116 255 q 81 234 58 206 l 58 206 l 52 231 q 85 269 122 286 q 158 302 194 302 l 194 302 q 230 302 260 286 q 290 269 309 235 q 327 201 327 150 l 327 150 q 327 93 310 58 q 292 22 264 5 q 235 -12 200 -12 l 200 -12 q 157 -12 122 11 q 87 33 67 85 q 47 136 47 225 l 47 225 q 47 327 78 402 q 109 477 166 518 q 223 558 299 558 z m 669 558 l 669 558 q 741 558 790 528 q 839 498 869 448 q 899 397 911 333 l 911 333 q 916 307 918 279 q 920 251 920 223 l 920 223 q 920 139 898 88 q 876 36 840 12 q 803 -12 758 -12 l 758 -12 q 705 -12 673 14 q 641 39 628 79 q 614 118 614 161 l 614 161 q 614 257 672 307 q 730 357 828 357 l 828 357 q 843 357 858 355 q 873 353 887 351 l 887 351 l 901 349 q 963 332 1001 292 q 1039 251 1057 196 q 1075 141 1075 81 l 1075 81 q 1075 13 1057 -40 q 1039 -93 1006 -128 q 972 -164 925 -182 q 878 -201 818 -201 l 818 -201 q 776 -201 741 -194 q 706 -188 678 -177 l 678 -177 l 687 -153 q 713 -163 746 -169 q 779 -175 818 -175 l 818 -175 q 875 -175 919 -157 q 962 -140 991 -106 q 1019 -73 1034 -25 q 1048 22 1048 82 l 1048 82 q 1048 139 1032 188 q 1015 236 983 271 q 951 306 903 322 l 903 322 l 891 324 q 876 327 861 329 q 846 331 829 331 l 829 331 q 774 331 732 314 q 690 297 666 260 q 641 222 641 160 l 641 160 q 641 125 651 92 q 661 58 687 36 q 712 14 758 14 l 758 14 q 826 14 860 69 q 893 124 893 223 l 893 223 q 893 250 891 278 q 889 305 883 333 l 883 333 l 881 345 q 869 394 845 437 q 820 480 778 506 q 735 532 669 532 l 669 532 q 631 532 602 522 q 572 511 549 492 l 549 492 q 530 475 517 451 q 503 427 497 393 q 490 358 490 309 l 490 309 l 490 221 l 471 363 q 474 424 499 468 q 524 512 568 535 q 611 558 669 558 z"},"ൢ":{"ha":0,"x_min":-658,"x_max":-40,"o":"m -483 1 l -483 1 q -417 1 -386 -32 q -355 -65 -346 -121 l -346 -121 l -340 -168 l -340 -332 l -366 -332 l -366 -169 q -366 -125 -375 -96 q -384 -67 -401 -51 l -401 -51 q -416 -36 -437 -29 q -458 -23 -482 -23 l -482 -23 q -523 -23 -555 -40 q -587 -57 -606 -86 q -625 -116 -630 -156 l -630 -156 q -631 -163 -631 -170 q -632 -178 -632 -185 l -632 -185 q -632 -245 -612 -278 q -592 -311 -554 -311 l -554 -311 q -515 -311 -498 -286 q -482 -262 -482 -225 l -482 -225 q -482 -183 -501 -162 q -521 -142 -554 -142 l -554 -142 q -579 -142 -601 -153 q -624 -164 -645 -187 l -645 -187 l -652 -167 q -634 -145 -608 -131 q -583 -117 -553 -117 l -553 -117 q -510 -117 -482 -145 q -455 -173 -455 -225 l -455 -225 q -455 -273 -480 -305 q -505 -337 -554 -337 l -554 -337 q -606 -337 -632 -293 q -658 -249 -658 -183 l -658 -183 q -658 -129 -636 -87 q -614 -46 -574 -22 q -535 1 -483 1 z m -213 1 l -213 1 q -149 1 -111 -26 q -74 -53 -57 -95 q -41 -138 -41 -185 l -41 -185 q -41 -270 -71 -303 q -101 -337 -147 -337 l -147 -337 q -184 -337 -207 -321 q -230 -305 -241 -278 q -252 -252 -252 -218 l -252 -218 q -252 -180 -238 -154 q -225 -129 -200 -115 q -176 -102 -146 -102 l -146 -102 q -114 -102 -93 -115 q -73 -129 -60 -146 q -48 -164 -44 -180 l -44 -180 l -52 -195 q -61 -169 -84 -148 q -107 -127 -145 -127 l -145 -127 q -185 -127 -205 -151 q -225 -176 -225 -219 l -225 -219 q -225 -257 -208 -284 q -191 -311 -147 -311 l -147 -311 q -108 -311 -87 -281 q -67 -252 -67 -187 l -67 -187 q -67 -178 -67 -169 q -68 -161 -69 -154 l -69 -154 l -69 -146 q -73 -116 -88 -88 q -104 -60 -134 -41 q -164 -23 -213 -23 l -213 -23 q -240 -23 -260 -30 q -280 -37 -295 -51 l -295 -51 q -319 -73 -329 -107 q -340 -142 -340 -192 l -340 -192 l -359 -143 q -356 -105 -340 -72 q -325 -40 -293 -19 q -262 1 -213 1 z"},"ൣ":{"ha":0,"x_min":-658,"x_max":64,"o":"m -483 1 l -483 1 q -417 1 -386 -32 q -355 -65 -346 -121 l -346 -121 l -340 -168 l -340 -332 l -366 -332 l -366 -169 q -366 -125 -375 -96 q -384 -67 -401 -51 l -401 -51 q -416 -36 -437 -29 q -458 -23 -482 -23 l -482 -23 q -523 -23 -555 -40 q -587 -57 -606 -86 q -625 -116 -630 -156 l -630 -156 q -631 -163 -631 -170 q -632 -178 -632 -185 l -632 -185 q -632 -245 -612 -278 q -592 -311 -554 -311 l -554 -311 q -515 -311 -498 -286 q -482 -262 -482 -225 l -482 -225 q -482 -183 -501 -162 q -521 -142 -554 -142 l -554 -142 q -579 -142 -601 -153 q -624 -164 -645 -187 l -645 -187 l -652 -167 q -634 -145 -608 -131 q -583 -117 -553 -117 l -553 -117 q -510 -117 -482 -145 q -455 -173 -455 -225 l -455 -225 q -455 -273 -480 -305 q -505 -337 -554 -337 l -554 -337 q -606 -337 -632 -293 q -658 -249 -658 -183 l -658 -183 q -658 -129 -636 -87 q -614 -46 -574 -22 q -535 1 -483 1 z m -213 1 l -213 1 q -149 1 -112 -26 q -75 -54 -59 -96 q -44 -139 -44 -185 l -44 -185 q -44 -241 -57 -274 q -71 -308 -95 -322 q -119 -337 -150 -337 l -150 -337 q -184 -337 -207 -322 q -230 -307 -241 -282 q -252 -257 -252 -227 l -252 -227 q -252 -164 -210 -133 q -169 -102 -109 -102 l -109 -102 q -99 -102 -90 -102 q -81 -103 -72 -105 l -72 -105 q -30 -112 0 -133 q 30 -155 47 -189 q 63 -223 63 -271 l 63 -271 q 63 -293 58 -319 q 52 -346 40 -365 l 40 -365 l 16 -354 q 26 -336 31 -315 q 36 -294 36 -273 l 36 -273 q 36 -217 12 -181 q -13 -146 -56 -133 l -56 -133 l -68 -131 q -77 -129 -87 -128 q -98 -127 -108 -127 l -108 -127 q -162 -127 -193 -152 q -225 -177 -225 -228 l -225 -228 q -225 -260 -208 -285 q -192 -311 -150 -311 l -150 -311 q -111 -311 -90 -282 q -70 -253 -70 -186 l -70 -186 q -70 -169 -71 -152 q -73 -136 -78 -121 l -78 -121 l -81 -111 q -91 -82 -110 -62 q -130 -43 -155 -33 q -181 -23 -213 -23 l -213 -23 q -240 -23 -260 -30 q -280 -37 -295 -51 l -295 -51 q -319 -73 -329 -107 q -340 -142 -340 -192 l -340 -192 l -359 -143 q -357 -115 -347 -89 q -338 -63 -320 -42 q -303 -22 -276 -10 q -250 1 -213 1 z"},"൦":{"ha":491,"x_min":44,"x_max":447,"o":"m 245 49 l 245 49 q 184 49 139 77 q 93 105 69 158 q 44 210 44 282 l 44 282 q 44 354 69 406 q 93 458 139 486 q 184 514 245 514 l 245 514 q 307 514 353 486 q 398 458 423 407 q 447 355 447 282 l 447 282 q 447 209 423 157 q 398 105 353 77 q 307 49 245 49 z m 245 75 l 245 75 q 298 75 338 99 q 377 122 399 168 q 420 214 420 282 l 420 282 q 420 384 373 436 q 325 488 245 488 l 245 488 q 166 488 119 436 q 71 384 71 281 l 71 281 q 71 179 119 127 q 166 75 245 75 z"},"൧":{"ha":763,"x_min":13,"x_max":697,"o":"m 329 -175 l 329 -201 l 179 -201 q 134 -201 105 -194 q 75 -187 52 -170 l 52 -170 q 33 -156 23 -135 q 13 -114 13 -86 l 13 -86 q 13 -63 20 -44 q 27 -26 40 -13 l 40 -13 q 54 1 73 10 q 91 18 119 22 q 146 26 187 26 l 187 26 l 327 26 l 325 0 l 190 0 q 139 0 108 -5 q 77 -11 59 -30 l 59 -30 q 50 -40 45 -54 q 40 -68 40 -86 l 40 -86 q 40 -128 68 -150 l 68 -150 q 85 -163 113 -169 q 140 -175 186 -175 l 186 -175 l 329 -175 z m 503 558 l 503 558 q 549 558 583 543 q 617 528 640 503 l 640 503 q 672 469 685 422 q 697 374 697 305 l 697 305 l 697 0 l 310 0 l 310 313 q 310 356 316 391 q 321 426 334 454 q 347 482 368 504 l 368 504 q 391 529 425 544 q 458 558 503 558 z m 503 532 l 503 532 q 465 532 435 520 q 405 508 385 485 l 385 485 q 358 455 347 411 q 336 367 336 296 l 336 296 l 336 26 l 671 26 l 671 295 q 671 364 660 409 q 649 454 622 484 l 622 484 q 601 507 572 520 q 543 532 503 532 z"},"൨":{"ha":744,"x_min":44,"x_max":728,"o":"m 286 558 l 286 558 q 342 558 386 538 q 430 517 460 480 q 490 443 506 393 q 521 342 521 282 l 521 282 q 521 207 502 154 q 483 101 456 68 q 429 34 405 14 l 405 14 l 410 26 l 728 26 l 728 0 l 389 0 l 378 21 q 405 44 432 78 q 458 112 476 162 q 494 212 494 282 l 494 282 q 494 352 472 409 q 449 466 403 499 q 356 532 285 532 l 285 532 q 213 532 166 498 q 118 463 95 406 q 71 349 71 281 l 71 281 q 71 218 86 169 q 101 120 129 83 q 157 45 195 14 l 195 14 l 178 -6 q 146 21 115 59 q 84 96 64 151 q 44 205 44 281 l 44 281 q 44 340 60 391 q 76 441 108 479 q 139 516 184 537 q 229 558 286 558 z"},"൩":{"ha":936,"x_min":44,"x_max":920,"o":"m 236 558 l 236 558 q 279 558 310 542 q 341 525 361 492 q 380 459 387 409 l 387 409 l 381 409 q 394 482 432 520 q 469 558 535 558 l 535 558 q 597 558 640 523 q 682 487 704 428 q 726 368 726 295 l 726 295 q 726 224 711 172 q 695 120 671 84 q 647 47 618 19 l 618 19 l 625 0 l 599 0 l 588 21 q 619 55 645 92 q 670 129 685 178 q 699 227 699 295 l 699 295 q 699 357 682 411 q 664 465 628 499 q 592 532 537 532 l 537 532 q 505 532 484 524 q 463 515 447 500 l 447 500 q 419 473 409 429 q 398 385 398 320 l 398 320 l 398 0 l 372 0 l 372 320 q 372 385 361 429 q 350 472 323 499 l 323 499 q 307 515 287 524 q 266 532 237 532 l 237 532 q 181 532 144 500 q 107 467 89 413 q 71 358 71 293 l 71 293 q 71 224 87 174 q 102 123 130 85 q 158 47 192 13 l 192 13 l 175 -6 q 139 28 110 68 q 80 108 62 163 q 44 217 44 293 l 44 293 q 44 373 68 433 q 91 492 135 525 q 178 558 236 558 z m 615 0 l 612 26 l 920 26 l 920 0 l 615 0 z"},"൪":{"ha":662,"x_min":44,"x_max":656,"o":"m 304 558 l 304 558 q 365 558 414 534 q 462 509 499 467 l 499 467 q 539 420 561 356 q 582 291 582 218 l 582 218 q 582 134 560 84 q 537 33 499 11 q 461 -12 416 -12 l 416 -12 q 361 -12 327 14 q 292 39 277 81 q 261 123 261 171 l 261 171 q 261 231 284 280 q 307 329 356 374 q 405 418 482 465 l 482 465 q 540 500 572 523 q 604 546 617 568 q 629 590 629 621 l 629 621 q 629 646 621 666 q 612 685 599 704 l 599 704 l 622 717 q 636 698 646 674 q 656 649 656 622 l 656 622 q 656 586 642 560 q 628 534 594 508 q 559 481 495 444 l 495 444 q 422 401 376 359 q 330 316 309 271 q 288 225 288 171 l 288 171 q 288 99 320 57 q 351 14 418 14 l 418 14 q 456 14 487 33 q 518 52 537 97 q 555 141 555 217 l 555 217 q 555 285 536 347 q 517 408 480 451 l 480 451 q 447 489 403 511 q 359 532 304 532 l 304 532 q 236 532 184 502 q 131 472 101 416 q 71 360 71 281 l 71 281 q 71 218 86 169 q 101 120 129 83 q 157 45 195 14 l 195 14 l 178 -6 q 146 21 115 59 q 84 96 64 151 q 44 205 44 281 l 44 281 q 44 337 61 387 q 77 437 110 476 q 142 514 191 536 q 239 558 304 558 z"},"൫":{"ha":815,"x_min":50,"x_max":765,"o":"m 421 723 l 421 723 q 511 723 576 689 q 641 654 684 594 q 726 533 746 457 q 765 380 765 297 l 765 297 q 765 209 750 135 q 734 60 702 -12 l 702 -12 l 678 -1 q 700 46 713 94 q 726 142 732 192 q 738 242 738 297 l 738 297 q 738 376 721 448 q 703 520 665 576 q 626 632 566 665 q 506 697 421 697 l 421 697 q 324 697 247 649 q 169 600 124 502 q 78 404 78 255 l 78 255 q 78 170 96 96 q 113 21 148 -34 q 183 -90 237 -121 q 290 -152 361 -152 l 361 -152 q 465 -152 516 -98 q 567 -44 567 52 l 567 52 q 567 111 546 153 q 525 195 486 218 q 446 241 391 241 l 391 241 l 383 241 l 383 267 l 400 267 q 446 267 476 276 q 506 285 525 304 l 525 304 q 539 319 547 340 q 554 361 554 389 l 554 389 q 554 449 519 483 q 484 517 422 517 l 422 517 q 365 517 325 487 q 285 457 265 405 q 244 353 244 283 l 244 283 q 244 207 268 142 q 291 76 331 6 l 331 6 l 309 -7 q 266 67 242 134 q 217 201 217 285 l 217 285 q 217 360 242 418 q 266 476 312 510 q 358 543 423 543 l 423 543 q 472 543 508 523 q 543 503 562 469 q 581 435 581 391 l 581 391 q 581 355 568 324 q 555 292 524 272 q 492 252 436 248 l 436 248 l 437 257 q 510 245 552 193 q 594 140 594 53 l 594 53 q 594 -22 566 -73 q 538 -125 485 -151 q 432 -178 357 -178 l 357 -178 q 264 -178 195 -124 q 125 -71 88 26 q 50 123 50 255 l 50 255 q 50 371 79 459 q 107 546 158 605 q 208 664 276 694 q 343 723 421 723 z"},"൬":{"ha":1030,"x_min":44,"x_max":980,"o":"m 516 558 l 516 558 q 578 558 617 520 q 655 482 662 407 l 662 407 l 670 313 l 670 0 l 644 0 l 644 322 q 644 388 636 427 q 627 466 606 492 l 606 492 q 591 511 569 522 q 546 532 514 532 l 514 532 q 484 532 462 522 q 439 511 424 492 l 424 492 q 402 466 393 426 q 384 385 384 323 l 384 323 l 384 0 l 358 0 l 358 321 q 358 385 348 429 q 337 472 311 499 l 311 499 q 296 515 276 524 q 255 532 229 532 l 229 532 q 176 532 141 499 q 106 466 89 412 q 71 358 71 293 l 71 293 q 71 224 87 174 q 102 123 130 85 q 158 47 192 13 l 192 13 l 175 -6 q 139 28 110 68 q 80 108 62 163 q 44 217 44 293 l 44 293 q 44 373 67 433 q 89 492 131 525 q 172 558 228 558 l 228 558 q 289 558 326 521 q 363 483 373 409 l 373 409 l 367 405 q 377 478 414 518 q 450 558 516 558 z m 802 558 l 802 558 q 889 558 935 472 q 980 386 980 224 l 980 224 q 980 92 951 -3 q 922 -99 857 -150 q 791 -201 682 -201 l 682 -201 q 660 -201 634 -199 q 608 -197 585 -191 l 585 -191 l 588 -166 q 612 -171 638 -173 q 663 -175 681 -175 l 681 -175 q 760 -175 813 -147 q 865 -119 896 -66 q 926 -14 940 60 q 953 133 953 224 l 953 224 q 953 322 937 391 q 920 460 887 496 q 853 532 802 532 l 802 532 q 775 532 754 524 q 733 515 717 498 l 717 498 q 691 471 681 430 q 670 388 670 325 l 670 325 l 670 10 l 655 10 l 655 322 l 654 409 q 665 482 703 520 q 740 558 802 558 z"},"൭":{"ha":631,"x_min":45,"x_max":581,"o":"m 319 558 l 319 558 q 384 558 433 533 q 482 508 515 462 q 548 415 565 350 q 581 284 581 203 l 581 203 q 581 120 566 47 q 550 -26 515 -81 q 479 -137 419 -169 q 358 -201 268 -201 l 268 -201 q 244 -201 217 -199 q 190 -197 163 -192 l 163 -192 l 166 -166 q 190 -170 216 -172 q 241 -175 269 -175 l 269 -175 q 354 -175 410 -144 q 465 -114 497 -61 q 528 -8 541 60 q 554 128 554 203 l 554 203 q 554 361 495 447 q 435 532 319 532 l 319 532 q 241 532 186 495 q 130 457 101 389 q 71 321 71 231 l 71 231 l 71 220 q 71 148 86 102 q 101 56 130 35 q 158 14 198 14 l 198 14 q 225 14 248 27 q 271 39 285 69 q 298 98 298 150 l 298 150 q 298 205 272 241 q 246 276 192 276 l 192 276 q 149 276 114 255 q 79 234 56 206 l 56 206 l 50 231 q 83 269 120 286 q 156 302 192 302 l 192 302 q 228 302 258 286 q 288 269 307 235 q 325 201 325 150 l 325 150 q 325 93 308 58 q 290 22 262 5 q 233 -12 198 -12 l 198 -12 q 155 -12 120 10 q 85 32 65 84 q 45 136 45 224 l 45 224 q 45 328 79 403 q 113 478 175 518 q 236 558 319 558 z"},"൮":{"ha":816,"x_min":44,"x_max":742,"o":"m 286 558 l 286 558 q 342 558 386 538 q 430 517 460 480 q 490 443 506 393 q 521 342 521 282 l 521 282 q 521 207 502 154 q 483 101 456 68 q 429 34 405 14 l 405 14 l 410 26 l 716 26 l 716 546 l 742 546 l 742 69 l 725 0 l 389 0 l 378 21 q 405 44 432 78 q 458 112 476 162 q 494 212 494 282 l 494 282 q 494 352 472 409 q 449 466 403 499 q 356 532 285 532 l 285 532 q 213 532 166 498 q 118 463 95 406 q 71 349 71 281 l 71 281 q 71 218 86 169 q 101 120 129 83 q 157 45 195 14 l 195 14 l 178 -6 q 146 21 115 59 q 84 96 64 151 q 44 205 44 281 l 44 281 q 44 340 60 391 q 76 441 108 479 q 139 516 184 537 q 229 558 286 558 z m 470 -201 l 470 -201 q 443 -201 418 -198 q 393 -196 369 -191 l 369 -191 l 373 -165 q 393 -169 418 -172 q 442 -175 469 -175 l 469 -175 q 544 -175 592 -158 q 639 -141 665 -112 q 691 -83 703 -49 q 714 -15 716 19 l 716 19 l 742 90 l 742 41 q 742 -5 733 -42 q 723 -79 703 -107 q 682 -136 652 -156 l 652 -156 q 618 -178 573 -189 q 528 -201 470 -201 z"},"൯":{"ha":941,"x_min":44,"x_max":934,"o":"m 236 558 l 236 558 q 282 558 315 539 q 347 520 366 483 q 384 446 389 392 l 389 392 l 398 271 l 398 0 l 372 0 l 372 320 q 372 385 361 429 q 350 472 323 499 l 323 499 q 307 515 287 524 q 266 532 237 532 l 237 532 q 181 532 144 500 q 107 467 89 413 q 71 358 71 293 l 71 293 q 71 224 87 174 q 102 123 130 85 q 158 47 192 13 l 192 13 l 175 -6 q 139 28 110 68 q 80 108 62 163 q 44 217 44 293 l 44 293 q 44 373 68 433 q 91 492 135 525 q 178 558 236 558 z m 577 558 l 577 558 q 640 558 690 534 q 740 509 777 466 l 777 466 q 817 420 839 356 q 860 291 860 218 l 860 218 q 860 134 838 84 q 815 33 778 11 q 740 -12 695 -12 l 695 -12 q 640 -12 606 14 q 571 39 556 81 q 540 123 540 171 l 540 171 q 540 231 563 280 q 586 329 635 374 q 683 418 760 465 l 760 465 q 818 500 850 523 q 882 546 895 568 q 907 590 907 621 l 907 621 q 907 646 899 666 q 891 685 878 704 l 878 704 l 901 717 q 914 698 924 674 q 934 649 934 622 l 934 622 q 934 586 920 560 q 906 534 872 508 q 837 481 773 444 l 773 444 q 700 401 655 359 q 609 316 588 271 q 567 225 567 171 l 567 171 q 567 99 599 57 q 630 14 696 14 l 696 14 q 735 14 766 33 q 796 52 815 97 q 833 141 833 217 l 833 217 q 833 287 814 347 q 795 407 758 450 l 758 450 q 725 489 679 511 q 633 532 577 532 l 577 532 q 536 532 508 523 q 479 514 458 496 l 458 496 q 438 479 425 455 q 411 430 405 394 q 398 358 398 304 l 398 304 l 398 179 l 382 179 l 382 280 l 379 382 q 388 445 414 484 q 440 522 481 540 q 522 558 577 558 z"},"൰":{"ha":940,"x_min":-30,"x_max":896,"o":"m 241 546 l 267 546 l 267 115 l 266 91 q 266 17 257 -40 q 247 -98 213 -137 l 213 -137 q 188 -168 147 -184 q 106 -201 48 -201 l 48 -201 q 30 -201 10 -199 q -10 -198 -30 -192 l -30 -192 l -28 -167 q -12 -171 7 -173 q 26 -175 48 -175 l 48 -175 q 102 -175 137 -160 q 172 -145 194 -119 l 194 -119 q 222 -85 232 -35 q 241 14 241 94 l 241 94 l 241 546 z m 704 -12 l 704 -12 q 638 -12 601 26 q 564 64 552 137 l 552 137 l 559 141 q 550 69 512 29 q 474 -12 403 -12 l 403 -12 q 359 -12 328 6 q 296 23 278 57 q 260 90 253 140 l 253 140 l 251 245 l 251 522 l 267 522 l 267 224 q 267 158 276 120 q 285 81 308 54 l 308 54 q 323 37 347 26 q 370 14 404 14 l 404 14 q 437 14 461 26 q 485 37 500 54 l 500 54 q 524 81 533 121 q 542 161 542 223 l 542 223 l 542 546 l 568 546 l 568 226 q 568 162 579 118 q 589 74 617 46 l 617 46 q 632 31 654 23 q 675 14 706 14 l 706 14 q 762 14 798 48 q 834 81 852 136 q 869 190 869 251 l 869 251 q 869 321 853 372 q 837 423 810 461 q 782 499 747 533 l 747 533 l 764 552 q 800 518 830 479 q 860 439 878 385 q 896 330 896 251 l 896 251 q 896 179 874 119 q 852 59 809 24 q 766 -12 704 -12 z"},"൱":{"ha":760,"x_min":44,"x_max":710,"o":"m 236 558 l 236 558 q 282 558 315 539 q 347 520 366 483 q 384 446 389 392 l 389 392 l 398 271 l 398 0 l 372 0 l 372 320 q 372 385 361 429 q 350 472 323 499 l 323 499 q 307 515 287 524 q 266 532 237 532 l 237 532 q 181 532 144 500 q 107 467 89 413 q 71 358 71 293 l 71 293 q 71 224 87 174 q 102 123 130 85 q 158 47 192 13 l 192 13 l 175 -6 q 139 28 110 68 q 80 108 62 163 q 44 217 44 293 l 44 293 q 44 373 68 433 q 91 492 135 525 q 178 558 236 558 z m 531 558 l 531 558 q 590 558 630 520 q 669 481 690 407 q 710 332 710 224 l 710 224 q 710 92 681 -3 q 652 -99 587 -150 q 522 -201 412 -201 l 412 -201 q 390 -201 364 -199 q 338 -197 315 -191 l 315 -191 l 318 -166 q 342 -171 368 -173 q 393 -175 411 -175 l 411 -175 q 490 -175 543 -147 q 595 -119 626 -66 q 657 -14 670 60 q 683 133 683 224 l 683 224 q 683 322 667 391 q 650 460 617 496 q 583 532 530 532 l 530 532 q 503 532 482 524 q 461 515 445 499 l 445 499 q 419 472 409 430 q 398 388 398 325 l 398 325 l 398 10 l 382 10 l 382 322 l 381 409 q 393 482 431 520 q 468 558 531 558 z"},"൲":{"ha":1157,"x_min":44,"x_max":1135,"o":"m 1016 546 l 1016 546 q 1055 546 1082 528 q 1108 510 1122 481 q 1135 452 1135 417 l 1135 417 q 1135 385 1126 360 q 1116 334 1098 317 l 1098 317 q 1082 302 1063 293 q 1043 284 1019 281 q 994 277 964 277 l 964 277 l 772 277 l 772 303 l 963 303 q 1009 303 1035 310 q 1060 317 1077 332 l 1077 332 q 1092 346 1100 367 q 1108 388 1108 416 l 1108 416 q 1108 462 1085 491 q 1061 520 1016 520 l 1016 520 q 967 520 941 489 q 915 458 915 405 l 915 405 q 915 370 925 342 q 935 313 950 287 l 950 287 l 923 283 q 907 311 898 341 q 888 371 888 407 l 888 407 q 888 451 905 482 q 921 513 951 530 q 980 546 1016 546 z m 236 558 l 236 558 q 282 558 315 539 q 347 520 366 483 q 385 446 390 393 l 390 393 l 398 271 l 398 0 l 372 0 l 372 320 q 372 385 361 429 q 350 472 323 499 l 323 499 q 307 515 287 524 q 266 532 237 532 l 237 532 q 181 532 144 500 q 107 467 89 413 q 71 358 71 293 l 71 293 q 71 224 87 174 q 102 123 130 85 q 158 47 192 13 l 192 13 l 175 -6 q 139 28 110 68 q 80 108 62 163 q 44 217 44 293 l 44 293 q 44 373 68 433 q 91 492 135 525 q 178 558 236 558 z m 568 558 l 568 558 q 623 558 668 535 q 712 512 745 470 q 777 428 794 370 q 811 311 811 238 l 811 238 q 811 141 791 87 q 771 32 734 10 q 697 -12 648 -12 l 648 -12 q 600 -12 570 10 q 539 31 525 65 q 510 99 510 137 l 510 137 q 510 173 522 201 q 534 229 556 249 l 556 249 q 577 269 606 281 q 635 292 673 298 q 711 303 759 303 l 759 303 l 962 303 l 962 277 l 757 277 q 696 277 651 268 q 605 259 576 233 l 576 233 q 557 217 547 193 q 537 168 537 138 l 537 138 q 537 81 566 48 q 595 14 648 14 l 648 14 q 695 14 725 36 q 755 57 770 106 q 784 155 784 237 l 784 237 q 784 250 784 263 q 784 275 782 286 l 782 286 l 782 295 q 774 369 745 422 q 716 475 671 504 q 626 532 567 532 l 567 532 q 533 532 506 523 q 478 513 456 493 l 456 493 q 437 477 424 452 q 411 427 405 393 q 398 358 398 313 l 398 313 l 398 197 l 380 199 l 378 356 q 382 427 408 472 q 433 516 475 537 q 517 558 568 558 z"},"൳":{"ha":688,"x_min":44,"x_max":666,"o":"m 197 -12 l 197 -12 q 155 -12 120 10 q 85 32 65 82 q 44 131 44 214 l 44 214 q 44 294 67 350 q 90 405 132 439 l 132 439 q 164 465 204 481 q 243 496 297 503 q 350 510 423 510 l 423 510 l 666 510 l 666 484 l 431 484 q 360 484 308 479 q 256 473 217 459 q 178 444 148 419 l 148 419 q 114 390 95 348 q 75 305 70 242 l 70 242 l 70 231 q 70 227 70 223 q 70 218 70 213 l 70 213 q 70 144 86 100 q 101 56 130 35 q 158 14 197 14 l 197 14 q 225 14 248 27 q 270 39 284 69 q 297 98 297 150 l 297 150 q 297 204 271 240 q 245 276 191 276 l 191 276 q 150 276 115 255 q 79 234 56 206 l 56 206 l 49 231 q 83 269 119 286 q 155 302 192 302 l 192 302 q 228 302 258 286 q 288 269 306 235 q 324 201 324 150 l 324 150 q 324 93 307 57 q 290 21 262 5 q 233 -12 197 -12 z"},"൴":{"ha":781,"x_min":45,"x_max":737,"o":"m 441 792 l 467 792 l 467 208 q 467 170 470 138 q 472 106 481 81 q 490 56 508 40 l 508 40 q 521 27 540 21 q 559 14 584 14 l 584 14 q 627 14 655 38 q 683 62 696 106 q 709 149 709 206 l 709 206 q 709 268 692 322 q 675 376 643 419 q 610 461 564 489 q 517 517 457 527 l 457 527 l 447 528 q 434 530 421 531 q 407 532 393 532 l 393 532 q 310 532 249 508 q 188 483 149 441 q 109 398 90 344 q 71 289 71 230 l 71 230 l 71 222 q 71 148 86 103 q 101 57 130 36 q 158 14 198 14 l 198 14 q 225 14 248 27 q 271 39 285 69 q 298 98 298 150 l 298 150 q 298 205 272 241 q 246 276 192 276 l 192 276 q 149 276 114 255 q 79 234 56 206 l 56 206 l 50 231 q 83 269 120 286 q 156 302 192 302 l 192 302 q 228 302 258 286 q 288 269 307 235 q 325 201 325 150 l 325 150 q 325 92 308 57 q 290 21 262 5 q 233 -12 198 -12 l 198 -12 q 155 -12 120 10 q 85 32 65 84 q 45 136 45 224 l 45 224 q 45 291 66 352 q 87 412 130 459 q 173 505 239 532 q 304 558 392 558 l 392 558 q 407 558 420 557 q 433 556 447 554 l 447 554 l 457 553 q 521 543 573 514 q 624 484 661 439 q 697 393 717 334 q 737 275 737 206 l 737 206 q 737 137 719 89 q 700 40 666 14 q 632 -12 583 -12 l 583 -12 q 552 -12 529 -3 q 506 6 489 22 l 489 22 q 471 39 460 63 q 449 87 445 120 q 441 153 441 197 l 441 197 l 441 792 z"},"൵":{"ha":1032,"x_min":47,"x_max":1026,"o":"m 299 558 l 299 558 q 379 558 427 514 q 474 470 481 386 l 481 386 l 481 338 l 490 234 l 490 0 l 464 0 l 464 317 q 464 391 448 433 q 432 475 402 500 l 402 500 q 381 517 357 525 q 333 532 298 532 l 298 532 q 229 532 178 494 q 127 455 100 388 q 73 321 73 234 l 73 234 l 73 225 q 73 150 88 104 q 103 57 132 36 q 160 14 200 14 l 200 14 q 227 14 250 27 q 273 39 287 69 q 300 98 300 150 l 300 150 q 300 205 274 241 q 248 276 194 276 l 194 276 q 151 276 116 255 q 81 234 58 206 l 58 206 l 52 231 q 85 269 122 286 q 158 302 194 302 l 194 302 q 230 302 260 286 q 290 269 309 235 q 327 201 327 150 l 327 150 q 327 93 310 58 q 292 22 264 5 q 235 -12 200 -12 l 200 -12 q 157 -12 122 11 q 87 33 67 85 q 47 136 47 225 l 47 225 q 47 327 78 402 q 109 477 166 518 q 223 558 299 558 z m 669 558 l 669 558 q 731 558 782 534 q 832 509 869 466 l 869 466 q 909 420 931 356 q 952 291 952 218 l 952 218 q 952 134 930 84 q 907 33 869 11 q 831 -12 787 -12 l 787 -12 q 731 -12 697 14 q 662 39 647 81 q 631 123 631 171 l 631 171 q 631 231 655 280 q 678 329 727 374 q 775 418 852 465 l 852 465 q 910 500 942 523 q 974 546 987 568 q 999 590 999 621 l 999 621 q 999 646 991 666 q 983 685 969 704 l 969 704 l 992 717 q 1006 698 1016 674 q 1026 649 1026 622 l 1026 622 q 1026 586 1012 560 q 998 534 964 508 q 929 481 865 444 l 865 444 q 792 401 746 359 q 700 316 679 271 q 658 225 658 171 l 658 171 q 658 99 690 57 q 721 14 788 14 l 788 14 q 826 14 857 33 q 888 52 907 97 q 925 141 925 217 l 925 217 q 925 287 906 347 q 887 407 850 450 l 850 450 q 817 489 771 511 q 725 532 669 532 l 669 532 q 627 532 599 523 q 571 514 550 496 l 550 496 q 530 479 517 455 q 503 430 497 394 q 490 358 490 304 l 490 304 l 490 179 l 474 179 l 474 280 l 471 382 q 480 445 506 484 q 532 522 573 540 q 614 558 669 558 z"},"൶":{"ha":1153,"x_min":37,"x_max":1091,"o":"m 186 327 l 186 327 q 230 327 264 307 q 298 287 317 250 q 335 213 335 163 l 335 163 q 335 116 318 78 q 301 39 271 10 l 271 10 l 276 26 l 627 26 l 626 0 l 264 0 l 251 20 q 281 52 295 87 q 308 122 308 162 l 308 162 q 308 228 275 265 q 241 301 186 301 l 186 301 q 147 301 120 283 q 92 264 78 233 q 64 202 64 164 l 64 164 q 64 113 83 77 q 101 41 133 12 l 133 12 l 116 -8 q 80 27 59 66 q 37 105 37 164 l 37 164 q 37 210 56 247 q 74 284 108 306 q 142 327 186 327 z m 857 558 l 857 558 q 906 558 945 545 q 983 531 1010 507 l 1010 507 q 1038 482 1056 448 q 1073 413 1082 367 q 1091 321 1091 260 l 1091 260 l 1091 0 l 609 0 l 609 257 q 609 314 617 359 q 625 403 641 437 q 656 471 681 496 l 681 496 q 712 525 756 542 q 799 558 857 558 z m 814 526 l 814 526 q 779 526 751 514 q 722 502 700 478 l 700 478 q 669 445 652 393 q 635 341 635 255 l 635 255 l 635 26 l 649 26 q 722 87 782 151 q 842 215 878 280 q 914 344 914 405 l 914 405 q 914 435 905 463 q 895 491 874 509 q 852 526 814 526 z m 941 406 l 941 406 q 941 340 905 274 q 869 207 808 142 q 747 76 669 10 l 669 10 l 673 23 q 703 25 746 26 q 789 26 826 26 l 826 26 l 1065 26 l 1065 258 q 1065 343 1045 405 q 1024 467 979 501 q 933 535 855 536 l 855 536 l 852 540 q 904 525 923 489 q 941 452 941 406 z"},"൷":{"ha":1461,"x_min":37,"x_max":1438,"o":"m 186 327 l 186 327 q 230 327 264 307 q 298 287 317 250 q 335 213 335 163 l 335 163 q 335 116 318 78 q 301 39 271 10 l 271 10 l 276 26 l 603 26 l 612 0 l 264 0 l 251 20 q 281 52 295 87 q 308 122 308 162 l 308 162 q 308 228 275 265 q 241 301 186 301 l 186 301 q 147 301 120 283 q 92 264 78 233 q 64 202 64 164 l 64 164 q 64 113 83 77 q 101 41 133 12 l 133 12 l 116 -8 q 80 27 59 66 q 37 105 37 164 l 37 164 q 37 210 56 247 q 74 284 108 306 q 142 327 186 327 z m 684 558 l 684 558 q 730 558 763 539 q 795 520 814 483 q 833 446 838 393 l 838 393 l 846 303 l 846 230 l 820 230 l 820 320 q 820 385 809 429 q 798 472 771 499 l 771 499 q 755 515 735 524 q 714 532 685 532 l 685 532 q 629 532 592 500 q 555 467 537 414 q 519 361 519 299 l 519 299 q 519 202 551 138 q 583 73 630 21 l 630 21 l 619 0 l 602 0 l 600 20 q 569 53 545 93 q 520 133 506 183 q 492 233 492 298 l 492 298 q 492 374 516 433 q 539 492 582 525 q 625 558 684 558 z m 1016 558 l 1016 558 q 1071 558 1116 535 q 1160 512 1192 470 q 1224 428 1242 370 q 1259 311 1259 238 l 1259 238 q 1259 141 1239 87 q 1219 32 1182 10 q 1145 -12 1096 -12 l 1096 -12 q 1048 -12 1018 10 q 987 31 973 65 q 958 99 958 137 l 958 137 q 958 173 970 201 q 982 229 1004 249 l 1004 249 q 1025 269 1054 281 q 1083 292 1121 298 q 1159 303 1207 303 l 1207 303 l 1241 303 l 1241 277 l 1205 277 q 1144 277 1099 268 q 1053 259 1024 233 l 1024 233 q 1005 217 995 193 q 985 168 985 138 l 985 138 q 985 81 1014 48 q 1043 14 1096 14 l 1096 14 q 1143 14 1173 36 q 1203 57 1218 106 q 1232 155 1232 237 l 1232 237 q 1232 250 1232 263 q 1231 275 1230 286 l 1230 286 l 1229 295 q 1222 369 1193 422 q 1164 475 1119 504 q 1073 532 1015 532 l 1015 532 q 981 532 954 523 q 926 513 904 493 l 904 493 q 885 477 872 452 q 859 427 853 393 q 846 358 846 313 l 846 313 l 846 252 l 827 250 l 826 356 q 829 427 855 472 q 881 516 923 537 q 964 558 1016 558 z m 1403 454 l 1430 459 q 1434 447 1436 432 q 1438 417 1438 403 l 1438 403 q 1438 373 1430 351 q 1421 328 1405 314 l 1405 314 q 1382 293 1350 285 q 1317 277 1269 277 l 1269 277 l 1246 277 l 1246 303 l 1265 303 q 1311 303 1339 309 q 1366 314 1384 330 l 1384 330 q 1397 341 1404 359 q 1411 377 1411 404 l 1411 404 q 1411 412 1409 428 q 1407 444 1403 454 l 1403 454 z"},"൸":{"ha":1894,"x_min":10,"x_max":1832,"o":"m 1230 558 l 1230 558 q 1273 558 1300 542 q 1327 526 1343 501 q 1359 476 1365 446 q 1371 416 1372 389 l 1372 389 l 1366 372 q 1378 437 1410 478 q 1442 519 1491 539 q 1539 558 1598 558 l 1598 558 q 1647 558 1686 545 q 1724 531 1751 507 l 1751 507 q 1779 482 1797 448 q 1814 413 1823 367 q 1832 321 1832 260 l 1832 260 l 1832 0 l 1390 0 l 1390 26 q 1463 87 1523 151 q 1583 215 1619 280 q 1655 344 1655 405 l 1655 405 q 1655 435 1646 463 q 1637 491 1615 509 q 1593 526 1555 526 l 1555 526 q 1520 526 1493 514 q 1465 502 1442 478 l 1442 478 q 1408 442 1394 390 q 1379 337 1379 261 l 1379 261 l 1379 230 l 1353 230 l 1353 315 q 1353 380 1347 424 q 1340 468 1316 496 l 1316 496 q 1302 514 1281 523 q 1259 532 1230 532 l 1230 532 q 1202 532 1181 523 q 1159 514 1145 496 l 1145 496 q 1121 469 1114 424 q 1107 379 1107 315 l 1107 315 l 1107 222 q 1107 175 1104 140 q 1100 104 1090 77 q 1079 50 1060 30 l 1060 30 q 1043 11 1017 0 q 991 -12 959 -12 l 959 -12 q 922 -12 897 1 q 871 13 853 34 l 853 34 q 835 55 826 81 q 817 106 814 141 q 810 175 810 222 l 810 222 l 810 316 q 810 380 804 425 q 797 469 773 496 l 773 496 q 759 514 738 523 q 716 532 687 532 l 687 532 q 658 532 637 523 q 616 514 602 496 l 602 496 q 578 469 571 424 q 564 379 564 315 l 564 315 l 564 220 q 564 145 554 104 q 543 62 516 32 l 516 32 q 498 12 471 0 q 444 -12 409 -12 l 409 -12 q 348 -12 311 26 q 273 64 266 139 l 266 139 l 272 137 q 265 90 246 57 q 226 23 194 6 q 162 -12 115 -12 l 115 -12 q 90 -12 63 -6 q 35 0 10 13 l 10 13 l 20 37 q 40 26 64 20 q 88 14 115 14 l 115 14 q 149 14 171 23 q 192 32 208 46 l 208 46 q 235 74 246 118 q 257 161 257 226 l 257 226 l 257 546 l 283 546 l 283 217 q 283 154 294 111 q 304 68 330 43 l 330 43 q 344 29 364 22 q 383 14 409 14 l 409 14 q 440 14 463 24 q 485 34 499 52 l 499 52 q 521 78 530 120 q 538 162 538 237 l 538 237 l 538 324 q 538 372 542 408 q 546 443 556 470 q 566 496 585 516 l 585 516 q 603 535 629 547 q 655 558 687 558 l 687 558 q 723 558 750 546 q 776 533 793 512 l 793 512 q 810 491 820 466 q 829 441 833 407 q 836 372 836 324 l 836 324 l 836 230 q 836 167 843 123 q 850 78 873 50 l 873 50 q 887 33 908 24 q 929 14 959 14 l 959 14 q 987 14 1009 24 q 1030 33 1044 50 l 1044 50 q 1068 78 1075 123 q 1081 167 1081 231 l 1081 231 l 1081 324 q 1081 372 1085 408 q 1089 443 1099 470 q 1109 496 1129 516 l 1129 516 q 1146 535 1172 547 q 1198 558 1230 558 z m 1682 406 l 1682 406 q 1682 340 1646 274 q 1610 207 1549 142 q 1488 76 1410 10 l 1410 10 l 1414 23 q 1443 25 1487 26 q 1530 26 1567 26 l 1567 26 l 1806 26 l 1806 258 q 1806 343 1786 405 q 1765 467 1720 501 q 1674 535 1596 536 l 1596 536 l 1593 540 q 1645 525 1664 489 q 1682 452 1682 406 z"},"൹":{"ha":984,"x_min":44,"x_max":962,"o":"m 236 558 l 236 558 q 282 558 315 539 q 347 520 366 483 q 385 446 390 393 l 390 393 l 398 271 l 398 0 l 372 0 l 372 320 q 372 385 361 429 q 350 472 323 499 l 323 499 q 307 515 287 524 q 266 532 237 532 l 237 532 q 181 532 144 500 q 107 467 89 413 q 71 358 71 293 l 71 293 q 71 224 87 174 q 102 123 130 85 q 158 47 192 13 l 192 13 l 175 -6 q 139 28 110 68 q 80 108 62 163 q 44 217 44 293 l 44 293 q 44 373 68 433 q 91 492 135 525 q 178 558 236 558 z m 568 558 l 568 558 q 623 558 668 535 q 712 512 745 470 q 777 428 794 370 q 811 311 811 238 l 811 238 q 811 141 791 87 q 771 32 734 10 q 697 -12 648 -12 l 648 -12 q 600 -12 570 10 q 539 31 525 65 q 510 99 510 137 l 510 137 q 510 173 522 201 q 534 229 556 249 l 556 249 q 577 269 606 281 q 635 292 673 298 q 711 303 759 303 l 759 303 l 962 303 l 962 277 l 757 277 q 696 277 651 268 q 605 259 576 233 l 576 233 q 557 217 547 193 q 537 168 537 138 l 537 138 q 537 81 566 48 q 595 14 648 14 l 648 14 q 695 14 725 36 q 755 57 770 106 q 784 155 784 237 l 784 237 q 784 250 784 263 q 784 275 782 286 l 782 286 l 782 295 q 774 369 745 422 q 716 475 671 504 q 626 532 567 532 l 567 532 q 533 532 506 523 q 478 513 456 493 l 456 493 q 437 477 424 452 q 411 427 405 393 q 398 358 398 313 l 398 313 l 398 197 l 380 199 l 378 356 q 382 427 408 472 q 433 516 475 537 q 517 558 568 558 z"},"ൺ":{"ha":1287,"x_min":47,"x_max":1244,"o":"m 299 558 l 299 558 q 379 558 422 518 q 465 478 479 406 l 479 406 l 472 405 q 482 477 520 518 q 558 558 628 558 l 628 558 q 695 558 735 520 q 774 482 781 407 l 781 407 l 784 382 l 790 320 l 790 0 l 764 0 l 764 322 q 764 388 756 427 q 747 465 724 492 l 724 492 q 708 510 685 521 q 661 532 627 532 l 627 532 q 594 532 571 521 q 547 510 531 492 l 531 492 q 508 465 499 425 q 490 385 490 323 l 490 323 l 490 0 l 464 0 l 464 317 q 464 391 448 433 q 432 475 402 500 l 402 500 q 381 517 357 525 q 333 532 298 532 l 298 532 q 229 532 178 494 q 127 455 100 388 q 73 321 73 234 l 73 234 l 73 225 q 73 150 88 104 q 103 57 132 36 q 160 14 200 14 l 200 14 q 227 14 250 27 q 273 39 287 69 q 300 98 300 150 l 300 150 q 300 205 274 241 q 248 276 194 276 l 194 276 q 151 276 116 255 q 81 234 58 206 l 58 206 l 52 231 q 85 269 122 286 q 158 302 194 302 l 194 302 q 230 302 260 286 q 290 269 309 235 q 327 201 327 150 l 327 150 q 327 93 310 58 q 292 22 264 5 q 235 -12 200 -12 l 200 -12 q 157 -12 122 11 q 87 33 67 85 q 47 136 47 225 l 47 225 q 47 327 78 402 q 109 477 166 518 q 223 558 299 558 z m 1094 -12 l 1094 -12 q 1051 -12 1016 9 q 981 30 961 78 q 940 125 940 202 l 940 202 q 940 274 961 330 q 981 386 1013 432 q 1044 477 1078 515 l 1078 515 l 1085 522 q 1121 564 1141 600 q 1160 635 1160 673 l 1160 673 q 1160 713 1139 740 q 1117 766 1066 766 l 1066 766 q 1043 766 1024 763 q 1005 760 988 755 l 988 755 l 981 780 q 999 785 1021 789 q 1043 792 1066 792 l 1066 792 q 1110 792 1137 775 q 1163 757 1175 730 q 1187 703 1187 674 l 1187 674 q 1187 631 1165 593 q 1142 554 1106 510 l 1106 510 l 1099 501 q 1061 456 1032 412 q 1002 367 985 317 q 967 266 967 202 l 967 202 q 967 128 985 87 q 1003 46 1032 30 q 1061 14 1094 14 l 1094 14 q 1150 14 1184 60 q 1218 106 1218 208 l 1218 208 q 1218 274 1202 332 q 1186 390 1156 434 q 1126 478 1083 504 l 1083 504 q 1058 519 1029 526 q 1000 532 964 532 l 964 532 q 926 532 899 523 q 872 514 852 497 l 852 497 q 830 479 816 453 q 802 427 796 391 q 790 355 790 305 l 790 305 l 790 68 l 772 68 l 775 239 l 772 384 q 780 444 806 483 q 831 521 871 540 q 911 558 963 558 l 963 558 q 1003 558 1035 550 q 1067 541 1095 525 l 1095 525 q 1097 524 1100 523 q 1102 522 1104 520 l 1104 520 q 1149 490 1181 443 q 1212 395 1228 335 q 1244 275 1244 208 l 1244 208 q 1244 98 1203 43 q 1162 -12 1094 -12 z"},"ൻ":{"ha":895,"x_min":44,"x_max":852,"o":"m 236 558 l 236 558 q 282 558 315 539 q 347 520 366 483 q 384 446 389 392 l 389 392 l 398 281 l 398 0 l 372 0 l 372 320 q 372 385 361 429 q 350 472 323 499 l 323 499 q 307 515 287 524 q 266 532 237 532 l 237 532 q 181 532 144 500 q 107 467 89 413 q 71 358 71 293 l 71 293 q 71 224 87 174 q 102 123 130 85 q 158 47 192 13 l 192 13 l 175 -6 q 139 28 110 68 q 80 108 62 163 q 44 217 44 293 l 44 293 q 44 373 68 433 q 91 492 135 525 q 178 558 236 558 z m 701 -12 l 701 -12 q 659 -12 624 9 q 588 30 568 78 q 548 125 548 202 l 548 202 q 548 274 569 330 q 589 386 621 432 q 652 477 686 515 l 686 515 l 693 522 q 729 564 749 600 q 768 635 768 673 l 768 673 q 768 713 747 740 q 725 766 674 766 l 674 766 q 651 766 632 763 q 612 760 596 755 l 596 755 l 589 780 q 607 785 629 789 q 651 792 674 792 l 674 792 q 718 792 745 775 q 771 757 783 730 q 795 703 795 674 l 795 674 q 795 631 773 593 q 750 554 714 510 l 714 510 l 706 501 q 669 456 640 412 q 610 367 593 317 q 575 266 575 202 l 575 202 q 575 128 593 87 q 610 46 640 30 q 669 14 702 14 l 702 14 q 758 14 792 60 q 826 106 826 208 l 826 208 q 826 274 810 332 q 794 390 764 434 q 734 478 691 504 l 691 504 q 666 519 637 526 q 608 532 572 532 l 572 532 q 534 532 507 523 q 480 514 460 497 l 460 497 q 438 479 424 453 q 410 427 404 391 q 398 355 398 305 l 398 305 l 398 68 l 380 68 l 383 239 l 380 384 q 388 444 414 483 q 439 521 480 540 q 520 558 571 558 l 571 558 q 611 558 643 550 q 675 541 703 525 l 703 525 q 705 524 708 523 q 710 522 712 520 l 712 520 q 757 490 789 443 q 820 395 836 335 q 852 275 852 208 l 852 208 q 852 98 811 43 q 770 -12 701 -12 z"},"ർ":{"ha":614,"x_min":43,"x_max":571,"o":"m 420 -12 l 420 -12 q 377 -12 342 9 q 307 30 287 78 q 266 125 266 202 l 266 202 q 266 274 287 330 q 308 385 340 431 q 372 476 405 515 l 405 515 l 411 522 q 447 565 467 600 q 487 635 487 673 l 487 673 q 487 713 465 740 q 443 766 392 766 l 392 766 q 370 766 351 763 q 331 760 314 755 l 314 755 l 307 780 q 325 785 348 789 q 370 792 392 792 l 392 792 q 436 792 463 775 q 489 757 502 730 q 514 703 514 674 l 514 674 q 514 631 492 592 q 469 553 433 510 l 433 510 l 425 501 q 388 457 358 412 q 328 367 311 317 q 293 266 293 202 l 293 202 q 293 128 311 87 q 329 46 358 30 q 387 14 421 14 l 421 14 q 476 14 511 60 q 545 106 545 208 l 545 208 q 545 257 536 303 q 526 348 509 387 q 491 425 466 455 q 441 485 410 504 l 410 504 q 384 519 356 526 q 327 532 294 532 l 294 532 q 225 532 175 500 q 124 468 97 412 q 70 355 70 281 l 70 281 q 70 218 85 169 q 100 120 128 83 q 156 45 193 14 l 193 14 l 177 -6 q 144 21 113 59 q 82 96 63 151 q 43 205 43 281 l 43 281 q 43 342 61 393 q 79 444 112 481 q 145 518 192 538 q 238 558 295 558 l 295 558 q 331 558 363 550 q 394 541 421 525 l 421 525 q 423 524 426 523 q 428 522 430 520 l 430 520 q 476 490 508 443 q 539 395 555 335 q 571 275 571 208 l 571 208 q 571 98 530 43 q 488 -12 420 -12 z"},"ൽ":{"ha":982,"x_min":44,"x_max":939,"o":"m 607 558 l 607 558 q 641 558 672 554 q 702 549 730 540 q 758 531 782 517 l 782 517 l 792 512 q 863 470 901 393 q 939 315 939 208 l 939 208 q 939 98 898 43 q 857 -12 788 -12 l 788 -12 q 745 -12 711 9 q 676 30 656 78 q 635 125 635 202 l 635 202 q 635 271 654 325 q 673 379 703 423 q 733 467 765 506 l 765 506 l 773 514 q 810 558 833 597 q 855 635 855 673 l 855 673 q 855 713 834 740 q 812 766 761 766 l 761 766 q 738 766 719 763 q 699 760 683 755 l 683 755 l 676 780 q 693 785 716 789 q 738 792 761 792 l 761 792 q 804 792 831 775 q 857 757 870 730 q 882 703 882 674 l 882 674 q 882 631 859 591 q 836 550 797 504 l 797 504 l 787 493 q 752 451 724 408 q 695 364 679 315 q 662 265 662 202 l 662 202 q 662 128 680 87 q 697 46 727 30 q 756 14 789 14 l 789 14 q 844 14 879 60 q 913 106 913 208 l 913 208 q 913 277 897 332 q 880 387 850 428 q 819 468 776 492 l 776 492 l 765 498 q 732 515 693 524 q 653 532 608 532 l 608 532 q 562 532 521 523 q 480 513 446 495 l 446 495 l 436 489 q 373 450 338 378 q 302 306 302 204 l 302 204 q 302 134 318 93 q 333 51 362 33 q 390 14 428 14 l 428 14 q 465 14 493 34 q 521 53 537 96 q 553 138 553 207 l 553 207 q 553 259 538 313 q 523 367 494 414 q 465 461 422 491 l 422 491 l 415 496 q 388 514 357 523 q 326 532 292 532 l 292 532 q 216 532 167 498 q 118 463 95 406 q 71 349 71 281 l 71 281 q 71 217 86 168 q 101 118 129 81 q 157 44 195 13 l 195 13 l 178 -7 q 146 19 115 58 q 84 96 64 151 q 44 205 44 281 l 44 281 q 44 340 61 391 q 77 441 109 479 q 140 516 187 537 q 233 558 293 558 l 293 558 q 333 558 369 546 q 404 534 436 511 l 436 511 l 445 504 q 508 456 544 376 q 580 296 580 207 l 580 207 q 580 129 560 81 q 540 33 506 11 q 471 -12 428 -12 l 428 -12 q 384 -12 349 10 q 314 31 295 79 q 275 127 275 205 l 275 205 q 275 274 292 331 q 308 388 339 432 q 370 475 414 504 l 414 504 l 424 511 q 463 535 510 547 q 556 558 607 558 z"},"ൾ":{"ha":875,"x_min":46,"x_max":832,"o":"m 654 792 l 654 792 q 697 792 724 775 q 750 757 763 730 q 775 703 775 674 l 775 674 q 775 631 753 592 q 731 553 694 510 l 694 510 l 686 501 q 649 457 619 412 q 589 367 572 317 q 555 266 555 202 l 555 202 q 555 128 573 87 q 590 46 620 30 q 649 14 682 14 l 682 14 q 737 14 772 60 q 806 106 806 208 l 806 208 q 806 257 797 303 q 788 348 771 387 q 753 425 728 455 q 703 485 671 504 l 671 504 q 646 520 619 526 q 592 532 562 532 l 562 532 q 523 532 494 522 q 464 511 444 492 l 444 492 q 416 464 402 420 q 388 375 388 297 l 388 297 l 388 236 q 388 186 384 149 q 380 111 370 84 q 360 56 340 33 l 340 33 q 322 12 295 0 q 268 -12 230 -12 l 230 -12 q 173 -12 132 20 q 90 52 68 112 q 46 172 46 253 l 46 253 q 46 329 64 384 q 82 438 112 479 q 142 519 178 554 l 178 554 l 195 534 q 161 501 133 462 q 105 423 89 373 q 73 322 73 252 l 73 252 q 73 177 92 124 q 111 71 146 43 q 181 14 229 14 l 229 14 q 264 14 286 24 q 308 34 323 53 l 323 53 q 347 82 355 129 q 362 175 362 250 l 362 250 l 362 306 q 362 379 377 428 q 392 477 427 510 l 427 510 q 450 533 485 546 q 519 558 562 558 l 562 558 q 595 558 624 550 q 653 542 682 526 l 682 526 l 691 520 q 737 491 769 444 q 800 396 816 336 q 832 276 832 208 l 832 208 q 832 98 791 43 q 750 -12 681 -12 l 681 -12 q 638 -12 603 9 q 568 30 548 78 q 528 125 528 202 l 528 202 q 528 274 549 330 q 569 385 601 431 q 633 476 666 515 l 666 515 l 672 522 q 708 565 728 600 q 748 635 748 673 l 748 673 q 748 713 727 740 q 705 766 654 766 l 654 766 q 631 766 612 763 q 592 760 576 755 l 576 755 l 569 780 q 586 785 609 789 q 631 792 654 792 z"},"ൿ":{"ha":993,"x_min":37,"x_max":956,"o":"m 446 558 l 446 558 q 508 558 548 525 q 588 492 607 429 q 625 366 625 275 l 625 275 q 625 171 603 108 q 580 44 539 16 q 498 -12 444 -12 l 444 -12 q 402 -12 371 4 q 340 20 319 48 l 319 48 q 290 88 277 148 q 264 208 264 275 l 264 275 q 264 413 312 486 q 359 558 446 558 z m 446 532 l 446 532 q 369 532 330 468 q 290 403 290 274 l 290 274 q 290 182 309 125 q 328 68 363 41 q 397 14 443 14 l 443 14 q 492 14 527 40 q 562 65 581 123 q 599 181 599 276 l 599 276 q 599 367 582 423 q 564 479 530 506 q 496 532 446 532 z m 182 -12 l 182 -12 q 115 -12 76 27 q 37 66 37 141 l 37 141 q 37 178 51 206 q 64 233 86 251 l 86 251 q 110 271 141 283 q 171 294 210 298 q 249 302 297 302 l 297 302 l 739 302 q 796 302 835 293 q 874 283 902 260 l 902 260 q 927 240 942 210 q 956 180 956 139 l 956 139 q 956 64 921 26 q 885 -12 825 -12 l 825 -12 q 767 -12 730 30 q 693 72 693 147 l 693 147 q 693 177 701 212 q 709 247 725 284 l 725 284 q 726 287 728 290 q 729 293 730 297 l 730 297 q 742 325 757 359 q 772 393 792 434 l 792 434 q 823 498 840 540 q 856 581 862 611 q 867 640 867 668 l 867 668 q 867 712 846 739 q 824 766 773 766 l 773 766 q 751 766 732 763 q 712 760 695 755 l 695 755 l 688 780 q 706 785 729 789 q 751 792 773 792 l 773 792 q 817 792 844 775 q 870 757 882 729 q 894 701 894 669 l 894 669 q 894 647 891 623 q 888 599 879 571 q 870 543 855 507 q 840 471 816 423 l 816 423 q 797 385 783 354 q 768 322 758 297 l 758 297 q 757 294 756 291 q 754 287 752 285 l 752 285 q 735 244 728 210 q 720 176 720 147 l 720 147 q 720 100 735 71 q 749 42 774 28 q 798 14 827 14 l 827 14 q 878 14 904 45 q 929 76 929 139 l 929 139 q 929 173 918 199 q 906 224 885 241 l 885 241 q 862 259 829 268 q 796 276 738 276 l 738 276 l 294 276 q 229 276 182 268 q 135 259 103 232 l 103 232 q 85 217 75 195 q 64 172 64 140 l 64 140 q 64 91 81 64 q 97 36 125 25 q 153 14 184 14 l 184 14 q 223 14 255 26 q 286 38 326 69 l 326 69 l 343 48 q 319 30 295 16 q 270 2 244 -5 q 217 -12 182 -12 z"},"!":{"ha":219,"x_min":83,"x_max":135,"o":"m 121 174 l 97 174 l 95 714 l 123 714 l 121 174 z m 108 -8 l 108 -8 q 93 -8 88 1 q 83 10 83 23 l 83 23 q 83 35 88 45 q 93 54 108 54 l 108 54 q 126 54 131 45 q 135 35 135 23 l 135 23 q 135 10 131 1 q 126 -8 108 -8 z"},"\"":{"ha":343,"x_min":88,"x_max":256,"o":"m 112 542 l 91 542 l 88 800 l 116 800 l 112 542 z m 252 542 l 231 542 l 228 800 l 256 800 l 252 542 z"},"#":{"ha":593,"x_min":28,"x_max":565,"o":"m 140 0 l 113 0 l 156 226 l 28 226 l 28 252 l 161 252 l 200 462 l 72 462 l 72 488 l 205 488 l 248 714 l 275 714 l 232 488 l 410 488 l 453 714 l 480 714 l 437 488 l 565 488 l 565 462 l 432 462 l 393 252 l 521 252 l 521 226 l 388 226 l 345 0 l 318 0 l 361 226 l 183 226 l 140 0 z m 227 462 l 188 252 l 366 252 l 405 462 l 227 462 z"},"%":{"ha":719,"x_min":56,"x_max":663,"o":"m 207 0 l 178 0 l 512 714 l 541 714 l 207 0 z m 179 276 l 179 276 q 119 276 88 333 q 56 389 56 501 l 56 501 q 56 613 89 669 q 121 724 179 724 l 179 724 q 241 724 272 668 q 302 612 302 501 l 302 501 q 302 387 270 332 q 237 276 179 276 z m 179 303 l 179 303 q 227 303 251 353 q 275 402 275 501 l 275 501 q 275 599 252 649 q 229 698 179 698 l 179 698 q 134 698 109 650 q 83 602 83 501 l 83 501 q 83 401 108 352 q 133 303 179 303 z m 539 -10 l 539 -10 q 480 -10 449 47 q 417 103 417 216 l 417 216 q 417 328 450 383 q 482 438 540 438 l 540 438 q 602 438 633 383 q 663 327 663 215 l 663 215 q 663 102 631 46 q 598 -10 539 -10 z m 539 17 l 539 17 q 587 17 612 67 q 636 117 636 215 l 636 215 q 636 314 613 364 q 589 413 540 413 l 540 413 q 494 413 469 365 q 444 316 444 215 l 444 215 q 444 115 469 66 q 493 17 539 17 z"},"'":{"ha":203,"x_min":88,"x_max":116,"o":"m 112 542 l 91 542 l 88 800 l 116 800 l 112 542 z"},"(":{"ha":275,"x_min":60,"x_max":245,"o":"m 60 276 l 60 276 q 60 382 78 476 q 96 570 130 652 q 164 733 212 800 l 212 800 l 245 800 q 192 728 157 645 q 121 561 104 469 q 87 376 87 277 l 87 277 q 87 178 104 86 q 121 -6 157 -89 q 192 -172 245 -244 l 245 -244 l 212 -244 q 164 -177 130 -96 q 96 -16 78 78 q 60 171 60 276 z"},")":{"ha":275,"x_min":30,"x_max":215,"o":"m 215 280 l 215 280 q 215 175 197 81 q 179 -14 145 -95 q 111 -176 63 -244 l 63 -244 l 30 -244 q 84 -172 119 -88 q 154 -5 171 88 q 188 180 188 279 l 188 279 q 188 379 171 471 q 154 562 119 645 q 84 728 30 800 l 30 800 l 63 800 q 111 733 145 653 q 179 572 197 479 q 215 386 215 280 z"},"*":{"ha":506,"x_min":46,"x_max":460,"o":"m 239 800 l 267 800 l 264 601 l 452 666 l 460 639 l 270 582 l 390 423 l 367 406 l 253 571 l 141 407 l 118 423 l 236 582 l 46 639 l 55 666 l 242 601 l 239 800 z"},"+":{"ha":509,"x_min":47,"x_max":461,"o":"m 267 125 l 241 125 l 241 340 l 47 340 l 47 366 l 241 366 l 241 581 l 267 581 l 267 366 l 461 366 l 461 340 l 267 340 l 267 125 z"},",":{"ha":206,"x_min":37,"x_max":125,"o":"m 94 116 l 119 116 l 125 107 q 120 66 110 25 q 100 -16 87 -55 q 74 -94 59 -129 l 59 -129 l 37 -129 q 51 -94 63 -51 q 74 -8 83 36 q 91 80 94 116 l 94 116 z"},"-":{"ha":314,"x_min":39,"x_max":275,"o":"m 275 256 l 39 256 l 39 282 l 275 282 l 275 256 z"},".":{"ha":206,"x_min":77,"x_max":129,"o":"m 102 -8 l 102 -8 q 87 -8 82 1 q 77 10 77 23 l 77 23 q 77 35 82 45 q 87 54 102 54 l 102 54 q 120 54 125 45 q 129 35 129 23 l 129 23 q 129 10 125 1 q 120 -8 102 -8 z"},"/":{"ha":343,"x_min":26,"x_max":318,"o":"m 53 -244 l 26 -244 l 291 800 l 318 800 l 53 -244 z"},":":{"ha":206,"x_min":77,"x_max":129,"o":"m 102 -8 l 102 -8 q 87 -8 82 1 q 77 10 77 23 l 77 23 q 77 35 82 45 q 87 54 102 54 l 102 54 q 120 54 125 45 q 129 35 129 23 l 129 23 q 129 10 125 1 q 120 -8 102 -8 z m 102 480 l 102 480 q 87 480 82 489 q 77 498 77 511 l 77 511 q 77 523 82 533 q 87 542 102 542 l 102 542 q 120 542 125 533 q 129 523 129 511 l 129 511 q 129 498 125 489 q 120 480 102 480 z"},";":{"ha":206,"x_min":37,"x_max":129,"o":"m 94 116 l 119 116 l 125 107 q 120 66 110 25 q 100 -16 87 -55 q 74 -94 59 -129 l 59 -129 l 37 -129 q 52 -94 64 -50 q 75 -7 83 37 q 91 80 94 116 l 94 116 z m 102 480 l 102 480 q 87 480 82 489 q 77 498 77 511 l 77 511 q 77 523 82 533 q 87 542 102 542 l 102 542 q 120 542 125 533 q 129 523 129 511 l 129 511 q 129 498 125 489 q 120 480 102 480 z"},"<":{"ha":509,"x_min":48,"x_max":461,"o":"m 461 164 l 461 136 l 48 346 l 48 369 l 461 570 l 461 542 l 79 358 l 461 164 z"},"=":{"ha":509,"x_min":48,"x_max":461,"o":"m 461 237 l 48 237 l 48 263 l 461 263 l 461 237 z m 461 443 l 48 443 l 48 469 l 461 469 l 461 443 z"},">":{"ha":509,"x_min":48,"x_max":461,"o":"m 461 346 l 48 136 l 48 164 l 430 357 l 48 542 l 48 570 l 461 369 l 461 346 z"},"?":{"ha":371,"x_min":36,"x_max":332,"o":"m 167 724 l 167 724 q 240 724 286 683 q 332 641 332 558 l 332 558 q 332 511 318 476 q 304 441 280 413 q 255 385 221 356 l 221 356 q 195 332 181 309 q 166 285 161 257 q 155 228 155 187 l 155 187 l 155 173 l 129 173 l 129 187 q 129 234 135 265 q 141 296 158 322 q 174 347 204 374 l 204 374 q 234 401 257 427 q 280 452 293 483 q 305 514 305 558 l 305 558 q 305 629 267 664 q 228 698 166 698 l 166 698 q 133 698 104 690 q 74 681 47 666 l 47 666 l 36 690 q 65 706 98 715 q 130 724 167 724 z m 142 -8 l 142 -8 q 127 -8 122 1 q 117 10 117 23 l 117 23 q 117 35 122 45 q 127 54 142 54 l 142 54 q 160 54 165 45 q 169 35 169 23 l 169 23 q 169 10 165 1 q 160 -8 142 -8 z"},"[":{"ha":307,"x_min":90,"x_max":267,"o":"m 267 -244 l 90 -244 l 90 800 l 267 800 l 267 774 l 116 774 l 116 -218 l 267 -218 l 267 -244 z"},"\\":{"ha":343,"x_min":26,"x_max":318,"o":"m 318 -244 l 291 -244 l 26 800 l 53 800 l 318 -244 z"},"]":{"ha":311,"x_min":44,"x_max":221,"o":"m 221 -244 l 44 -244 l 44 -218 l 195 -218 l 195 774 l 44 774 l 44 800 l 221 800 l 221 -244 z"},"^":{"ha":509,"x_min":37,"x_max":470,"o":"m 66 312 l 37 312 l 242 719 l 266 719 l 470 312 l 441 312 l 254 688 l 66 312 z"},"_":{"ha":412,"x_min":-2,"x_max":414,"o":"m 414 -115 l -2 -115 l -2 -90 l 414 -90 l 414 -115 z"},"{":{"ha":344,"x_min":30,"x_max":305,"o":"m 305 -218 l 305 -244 q 247 -244 211 -231 q 174 -218 158 -189 q 141 -160 141 -111 l 141 -111 l 141 151 q 141 215 116 240 q 91 265 30 265 l 30 265 l 30 291 q 91 291 116 318 q 141 344 141 408 l 141 408 l 141 664 q 141 708 160 738 q 178 768 215 784 q 251 800 305 800 l 305 800 l 305 774 q 233 774 200 747 q 167 719 167 658 l 167 658 l 167 404 q 167 353 150 320 q 133 287 89 279 l 89 279 l 89 277 q 132 267 150 239 q 167 211 167 155 l 167 155 l 167 -105 q 167 -148 180 -173 q 192 -198 222 -208 q 252 -218 305 -218 l 305 -218 z"},"|":{"ha":512,"x_min":243,"x_max":269,"o":"m 269 -244 l 243 -244 l 243 800 l 269 800 l 269 -244 z"},"}":{"ha":344,"x_min":39,"x_max":314,"o":"m 39 774 l 39 800 q 98 800 134 787 q 170 774 187 745 q 203 716 203 667 l 203 667 l 203 405 q 203 341 228 316 q 253 291 314 291 l 314 291 l 314 265 q 253 265 228 239 q 203 213 203 148 l 203 148 l 203 -108 q 203 -151 185 -181 q 166 -212 130 -228 q 93 -244 39 -244 l 39 -244 l 39 -218 q 111 -218 144 -190 q 177 -163 177 -102 l 177 -102 l 177 152 q 177 203 195 236 q 212 269 255 277 l 255 277 l 255 279 q 212 289 195 317 q 177 345 177 401 l 177 401 l 177 661 q 177 705 165 730 q 152 754 122 764 q 92 774 39 774 l 39 774 z"},"~":{"ha":509,"x_min":46,"x_max":462,"o":"m 250 341 l 250 341 q 224 355 202 363 q 180 371 154 371 l 154 371 q 126 371 100 359 q 74 346 46 318 l 46 318 l 46 350 q 68 371 95 384 q 122 397 154 397 l 154 397 q 183 397 209 389 q 235 380 260 366 l 260 366 q 287 352 309 344 q 331 335 359 335 l 359 335 q 386 335 411 348 q 436 360 462 388 l 462 388 l 462 355 q 443 335 416 322 q 389 309 358 309 l 358 309 q 329 309 304 318 q 278 326 250 341 z"}," ":{"ha":277,"x_min":0,"x_max":0,"o":""},"­":{"ha":314,"x_min":39,"x_max":275,"o":"m 275 256 l 39 256 l 39 282 l 275 282 l 275 256 z"},"–":{"ha":500,"x_min":40,"x_max":460,"o":"m 460 257 l 40 257 l 40 283 l 460 283 l 460 257 z"},"—":{"ha":1000,"x_min":40,"x_max":960,"o":"m 960 257 l 40 257 l 40 283 l 960 283 l 960 257 z"},"‘":{"ha":180,"x_min":46,"x_max":134,"o":"m 77 555 l 52 555 l 46 564 q 52 605 62 646 q 71 687 84 727 q 97 766 112 800 l 112 800 l 134 800 q 120 765 108 722 q 96 678 89 635 q 81 591 77 555 l 77 555 z"},"’":{"ha":180,"x_min":46,"x_max":134,"o":"m 103 800 l 128 800 l 134 791 q 129 750 119 709 q 109 668 96 629 q 83 590 68 555 l 68 555 l 46 555 q 57 581 66 613 q 75 644 83 677 q 90 710 95 742 q 100 773 103 800 l 103 800 z"},"“":{"ha":320,"x_min":46,"x_max":274,"o":"m 217 555 l 192 555 l 186 564 q 192 605 202 646 q 211 687 224 727 q 237 766 252 800 l 252 800 l 274 800 q 260 765 248 722 q 236 678 229 635 q 221 591 217 555 l 217 555 z m 77 555 l 52 555 l 46 564 q 52 605 62 646 q 71 687 84 727 q 97 766 112 800 l 112 800 l 134 800 q 120 765 108 722 q 96 678 89 635 q 81 591 77 555 l 77 555 z"},"”":{"ha":320,"x_min":46,"x_max":274,"o":"m 243 800 l 268 800 l 274 791 q 269 750 259 709 q 249 668 236 629 q 223 590 208 555 l 208 555 l 186 555 q 201 590 213 634 q 224 677 232 721 q 240 764 243 800 l 243 800 z m 103 800 l 128 800 l 134 791 q 129 750 119 709 q 109 668 96 629 q 83 590 68 555 l 68 555 l 46 555 q 57 581 66 613 q 75 644 83 677 q 90 710 95 742 q 100 773 103 800 l 103 800 z"},"…":{"ha":613,"x_min":77,"x_max":536,"o":"m 102 -8 l 102 -8 q 87 -8 82 1 q 77 10 77 23 l 77 23 q 77 35 82 45 q 87 54 102 54 l 102 54 q 120 54 125 45 q 129 35 129 23 l 129 23 q 129 10 125 1 q 120 -8 102 -8 z m 305 -8 l 305 -8 q 290 -8 285 1 q 280 10 280 23 l 280 23 q 280 35 285 45 q 290 54 305 54 l 305 54 q 323 54 328 45 q 332 35 332 23 l 332 23 q 332 10 328 1 q 323 -8 305 -8 z m 509 -8 l 509 -8 q 494 -8 489 1 q 484 10 484 23 l 484 23 q 484 35 489 45 q 494 54 509 54 l 509 54 q 527 54 532 45 q 536 35 536 23 l 536 23 q 536 10 532 1 q 527 -8 509 -8 z"},"×":{"ha":509,"x_min":60,"x_max":449,"o":"m 254 371 l 431 548 l 449 530 l 272 353 l 449 176 l 431 158 l 254 335 l 78 158 l 60 176 l 236 353 l 60 530 l 78 548 l 254 371 z"},"÷":{"ha":509,"x_min":48,"x_max":461,"o":"m 461 340 l 48 340 l 48 366 l 461 366 l 461 340 z m 253 143 l 253 143 q 238 143 233 153 q 228 162 228 175 l 228 175 q 228 188 234 198 q 239 208 253 208 l 253 208 q 270 208 275 198 q 280 188 280 175 l 280 175 q 280 162 275 153 q 270 143 253 143 z m 253 498 l 253 498 q 238 498 233 508 q 228 517 228 531 l 228 531 q 228 543 233 553 q 238 563 253 563 l 253 563 q 270 563 275 553 q 280 543 280 530 l 280 530 q 280 517 275 508 q 270 498 253 498 z"},"−":{"ha":509,"x_min":48,"x_max":461,"o":"m 461 340 l 48 340 l 48 366 l 461 366 l 461 340 z"},"₹":{"ha":509,"x_min":68,"x_max":451,"o":"m 330 0 l 298 0 l 73 314 l 76 337 l 97 337 q 148 337 180 349 q 212 360 232 381 l 232 381 q 253 404 262 436 q 271 468 271 510 l 271 510 q 271 548 265 578 q 258 607 241 630 l 241 630 q 223 658 191 674 q 159 689 103 689 l 103 689 l 68 689 l 68 714 l 451 714 l 451 689 l 202 689 q 246 673 272 632 q 297 590 297 512 l 297 512 q 297 447 277 403 q 256 359 212 336 q 167 313 95 312 l 95 312 l 100 321 l 330 0 z m 451 501 l 68 501 l 68 526 l 451 526 l 451 501 z"},"꠰":{"ha":186,"x_min":80,"x_max":106,"o":"m 80 0 l 80 546 l 106 546 l 106 0 l 80 0 z"},"꠱":{"ha":355,"x_min":80,"x_max":276,"o":"m 80 0 l 80 546 l 106 546 l 106 0 l 80 0 z m 250 0 l 250 546 l 276 546 l 276 0 l 250 0 z"},"꠲":{"ha":525,"x_min":80,"x_max":445,"o":"m 80 0 l 80 546 l 106 546 l 106 0 l 80 0 z m 250 0 l 250 546 l 276 546 l 276 0 l 250 0 z m 419 0 l 419 546 l 445 546 l 445 0 l 419 0 z"},"॑":{"ha":0,"x_min":-291,"x_max":-265,"o":"m -291 653 l -291 864 l -265 864 l -265 653 l -291 653 z"},"॒":{"ha":0,"x_min":-455,"x_max":-101,"o":"m -101 -132 l -101 -157 l -455 -157 l -455 -132 l -101 -132 z"},"।":{"ha":285,"x_min":173,"x_max":199,"o":"m 199 -49 l 173 -49 l 173 595 l 199 595 l 199 -49 z"},"॥":{"ha":472,"x_min":173,"x_max":385,"o":"m 385 -49 l 359 -49 l 359 595 l 385 595 l 385 -49 z m 199 -49 l 173 -49 l 173 595 l 199 595 l 199 -49 z"},"᳚":{"ha":0,"x_min":-344,"x_max":-213,"o":"m -344 653 l -344 864 l -318 864 l -318 653 l -344 653 z m -239 653 l -239 864 l -213 864 l -213 653 l -239 653 z"},"̇":{"ha":0,"x_min":-304,"x_max":-252,"o":"m -304 701 l -304 701 q -304 713 -299 723 q -294 732 -279 732 l -279 732 q -261 732 -256 723 q -252 713 -252 701 l -252 701 q -252 688 -256 679 q -261 670 -279 670 l -279 670 q -294 670 -299 679 q -304 688 -304 701 z"},"̣":{"ha":0,"x_min":-304,"x_max":-252,"o":"m -304 -135 l -304 -135 q -304 -123 -299 -113 q -294 -104 -279 -104 l -279 -104 q -261 -104 -256 -113 q -252 -123 -252 -135 l -252 -135 q -252 -148 -256 -157 q -261 -166 -279 -166 l -279 -166 q -294 -166 -299 -157 q -304 -148 -304 -135 z"},"‐":{"ha":314,"x_min":39,"x_max":275,"o":"m 275 256 l 39 256 l 39 282 l 275 282 l 275 256 z"},"​":{"ha":0,"x_min":0,"x_max":0,"o":""},"‌":{"ha":0,"x_min":0,"x_max":0,"o":""},"‍":{"ha":0,"x_min":-161,"x_max":161,"o":"m 29 -244 l -29 -244 l -29 565 l -121 474 l -161 514 l -40 631 l -161 748 l -121 788 l 0 669 l 121 788 l 161 748 l 40 631 l 161 514 l 121 474 l 29 565 l 29 -244 z"},"◌":{"ha":562,"x_min":57,"x_max":504,"o":"m 89 231 l 89 231 q 57 231 57 264 l 57 264 q 57 295 89 295 l 89 295 q 121 295 121 264 l 121 264 q 121 231 89 231 z m 138 95 l 138 95 q 106 95 106 127 l 106 127 q 106 158 138 158 l 138 158 q 169 158 169 127 l 169 127 q 169 95 138 95 z m 281 40 l 281 40 q 249 40 249 72 l 249 72 q 249 104 281 104 l 281 104 q 312 104 312 72 l 312 72 q 312 40 281 40 z m 138 369 l 138 369 q 106 369 106 401 l 106 401 q 106 432 138 432 l 138 432 q 169 432 169 401 l 169 401 q 169 369 138 369 z m 423 95 l 423 95 q 391 95 391 127 l 391 127 q 391 158 423 158 l 423 158 q 455 158 455 127 l 455 127 q 455 95 423 95 z m 281 424 l 281 424 q 249 424 249 456 l 249 456 q 249 487 281 487 l 281 487 q 312 487 312 456 l 312 456 q 312 424 281 424 z m 472 231 l 472 231 q 441 231 441 264 l 441 264 q 441 295 472 295 l 472 295 q 504 295 504 264 l 504 264 q 504 231 472 231 z m 423 369 l 423 369 q 391 369 391 401 l 391 401 q 391 432 423 432 l 423 432 q 455 432 455 401 l 455 401 q 455 369 423 369 z"},"«":{"ha":396,"x_min":31,"x_max":365,"o":"m 31 272 l 31 285 l 179 467 l 195 456 l 64 279 l 196 102 l 179 91 l 31 272 z m 200 272 l 200 285 l 348 467 l 365 456 l 233 279 l 365 102 l 348 91 l 200 272 z"},"»":{"ha":392,"x_min":31,"x_max":361,"o":"m 361 286 l 361 273 l 213 91 l 196 102 l 329 279 l 196 457 l 213 467 l 361 286 z m 196 286 l 196 273 l 48 91 l 31 102 l 163 279 l 31 457 l 48 467 l 196 286 z"},"̈":{"ha":0,"x_min":-109,"x_max":108,"o":"m -110 672 l -110 672 q -110 685 -104 695 q -99 704 -86 704 l -86 704 q -71 704 -66 695 q -61 685 -61 673 l -61 673 q -61 659 -66 650 q -71 641 -86 641 l -86 641 q -99 641 -104 651 q -110 660 -110 672 z m 59 673 l 59 673 q 59 685 65 695 q 71 704 83 704 l 83 704 q 98 704 103 695 q 108 686 108 673 l 108 673 q 108 660 103 651 q 98 641 83 641 l 83 641 q 71 641 65 651 q 59 660 59 673 z"},"̀":{"ha":0,"x_min":-430,"x_max":-269,"o":"m -430 765 l -400 765 q -384 742 -362 715 q -340 687 -315 661 q -291 635 -270 614 l -270 614 l -270 606 l -289 606 q -307 622 -326 641 q -346 660 -364 680 q -383 700 -400 720 q -417 740 -430 758 l -430 758 l -430 765 z"},"́":{"ha":0,"x_min":-219,"x_max":-60,"o":"m -60 765 l -60 758 q -73 741 -90 721 q -107 701 -125 681 q -144 660 -163 641 q -182 622 -201 606 l -201 606 l -219 606 l -219 614 q -196 637 -172 663 q -149 689 -127 716 q -105 742 -90 765 l -90 765 l -60 765 z"},"̋":{"ha":0,"x_min":-92,"x_max":185,"o":"m 185 766 l 185 759 q 176 744 163 725 q 149 705 133 684 q 117 662 101 642 q 84 622 69 606 l 69 606 l 50 606 l 50 613 q 67 633 88 661 q 108 689 127 718 q 145 746 155 766 l 155 766 l 185 766 z m 43 766 l 43 759 q 34 744 21 725 q 7 705 -9 684 q -25 662 -41 642 q -58 622 -73 606 l -73 606 l -92 606 l -92 613 q -74 634 -53 662 q -33 689 -15 718 q 3 746 14 766 l 14 766 l 43 766 z"},"̄":{"ha":0,"x_min":-122,"x_max":113,"o":"m -122 639 l 114 639 l 114 615 l -122 615 l -122 639 z"},"˙":{"ha":132,"x_min":40,"x_max":92,"o":"m 65 722 l 65 722 q 82 722 87 712 q 92 702 92 690 l 92 690 q 92 676 87 667 q 81 658 65 658 l 65 658 q 51 658 46 668 q 40 677 40 690 l 40 690 q 40 702 45 712 q 50 722 65 722 z"},"°":{"ha":402,"x_min":66,"x_max":336,"o":"m 201 455 l 201 455 q 163 455 133 472 q 102 488 84 519 q 66 549 66 590 l 66 590 q 66 631 84 661 q 102 691 133 708 q 163 724 201 724 l 201 724 q 239 724 270 707 q 300 690 318 660 q 336 630 336 590 l 336 590 q 336 549 319 519 q 301 488 271 472 q 240 455 201 455 z m 200 479 l 200 479 q 248 479 279 511 q 310 542 310 590 l 310 590 q 310 640 279 670 q 248 700 200 700 l 200 700 q 151 700 122 670 q 92 639 92 590 l 92 590 q 92 541 123 510 q 153 479 200 479 z"},"A":{"ha":504,"x_min":0,"x_max":504,"o":"m 504 0 l 476 0 l 386 275 l 120 275 l 27 0 l 0 0 l 241 715 l 271 715 l 504 0 z m 377 300 l 282 601 q 278 614 274 627 q 270 640 265 655 q 260 670 255 687 l 255 687 q 251 672 246 658 q 241 643 237 629 q 232 615 227 600 l 227 600 l 128 300 l 377 300 z"},"Á":{"ha":504,"x_min":0,"x_max":504,"o":"m 504 0 l 476 0 l 386 275 l 120 275 l 27 0 l 0 0 l 241 715 l 271 715 l 504 0 z m 377 300 l 282 601 q 278 614 274 627 q 270 640 265 655 q 260 670 255 687 l 255 687 q 251 672 246 658 q 241 643 237 629 q 232 615 227 600 l 227 600 l 128 300 l 377 300 z m 369 951 l 369 944 q 356 927 339 907 q 322 887 304 867 q 285 846 266 827 q 247 808 228 792 l 228 792 l 210 792 l 210 800 q 233 823 257 849 q 280 875 302 902 q 324 928 339 951 l 339 951 l 369 951 z"},"Ă":{"ha":504,"x_min":0,"x_max":504,"o":"m 504 0 l 476 0 l 386 275 l 120 275 l 27 0 l 0 0 l 241 715 l 271 715 l 504 0 z m 377 300 l 282 601 q 278 614 274 627 q 270 640 265 655 q 260 670 255 687 l 255 687 q 251 672 246 658 q 241 643 237 629 q 232 615 227 600 l 227 600 l 128 300 l 377 300 z m 343 903 l 367 903 q 364 868 350 844 q 335 819 311 806 q 286 793 253 793 l 253 793 q 204 793 174 821 q 143 849 139 903 l 139 903 l 163 903 q 166 877 176 858 q 186 839 206 828 q 226 817 253 817 l 253 817 q 283 817 302 828 q 321 839 331 859 q 341 878 343 903 l 343 903 z"},"Â":{"ha":504,"x_min":0,"x_max":504,"o":"m 504 0 l 476 0 l 386 275 l 120 275 l 27 0 l 0 0 l 241 715 l 271 715 l 504 0 z m 377 300 l 282 601 q 278 614 274 627 q 270 640 265 655 q 260 670 255 687 l 255 687 q 251 672 246 658 q 241 643 237 629 q 232 615 227 600 l 227 600 l 128 300 l 377 300 z m 240 949 l 265 949 q 277 928 297 899 q 316 870 336 843 q 356 815 370 798 l 370 798 l 370 792 l 351 792 q 326 819 300 854 q 273 889 253 918 l 253 918 q 232 890 205 855 q 178 819 153 792 l 153 792 l 134 792 l 134 798 q 150 818 170 845 q 190 872 209 900 q 228 928 240 949 l 240 949 z"},"Ä":{"ha":504,"x_min":0,"x_max":504,"o":"m 504 0 l 476 0 l 386 275 l 120 275 l 27 0 l 0 0 l 241 715 l 271 715 l 504 0 z m 377 300 l 282 601 q 278 614 274 627 q 270 640 265 655 q 260 670 255 687 l 255 687 q 251 672 246 658 q 241 643 237 629 q 232 615 227 600 l 227 600 l 128 300 l 377 300 z m 144 858 l 144 858 q 144 871 150 881 q 155 890 168 890 l 168 890 q 183 890 188 881 q 193 871 193 859 l 193 859 q 193 845 188 836 q 183 827 168 827 l 168 827 q 155 827 150 837 q 144 846 144 858 z m 313 859 l 313 859 q 313 871 319 881 q 325 890 337 890 l 337 890 q 352 890 357 881 q 362 872 362 859 l 362 859 q 362 846 357 837 q 352 827 337 827 l 337 827 q 325 827 319 837 q 313 846 313 859 z"},"À":{"ha":504,"x_min":0,"x_max":504,"o":"m 504 0 l 476 0 l 386 275 l 120 275 l 27 0 l 0 0 l 241 715 l 271 715 l 504 0 z m 377 300 l 282 601 q 278 614 274 627 q 270 640 265 655 q 260 670 255 687 l 255 687 q 251 672 246 658 q 241 643 237 629 q 232 615 227 600 l 227 600 l 128 300 l 377 300 z m 173 951 l 203 951 q 219 928 241 901 q 263 873 288 847 q 312 821 333 800 l 333 800 l 333 792 l 314 792 q 296 808 277 827 q 257 846 239 866 q 220 886 203 906 q 186 926 173 944 l 173 944 l 173 951 z"},"Ā":{"ha":504,"x_min":0,"x_max":504,"o":"m 504 0 l 476 0 l 386 275 l 120 275 l 27 0 l 0 0 l 241 715 l 271 715 l 504 0 z m 377 300 l 282 601 q 278 614 274 627 q 270 640 265 655 q 260 670 255 687 l 255 687 q 251 672 246 658 q 241 643 237 629 q 232 615 227 600 l 227 600 l 128 300 l 377 300 z m 135 825 l 371 825 l 371 801 l 135 801 l 135 825 z"},"Ą":{"ha":504,"x_min":0,"x_max":504,"o":"m 504 0 l 476 0 l 386 275 l 120 275 l 27 0 l 0 0 l 241 715 l 271 715 l 504 0 z m 377 300 l 282 601 q 278 614 274 627 q 270 640 265 655 q 260 670 255 687 l 255 687 q 251 672 246 658 q 241 643 237 629 q 232 615 227 600 l 227 600 l 128 300 l 377 300 z m 408 -133 l 408 -133 q 408 -161 422 -176 q 435 -192 462 -192 l 462 -192 q 474 -192 486 -190 q 498 -188 504 -186 l 504 -186 l 504 -210 q 497 -212 486 -214 q 474 -217 460 -217 l 460 -217 q 426 -217 404 -196 q 382 -176 382 -137 l 382 -137 q 382 -112 393 -87 q 403 -63 424 -38 q 444 -14 476 10 l 476 10 l 495 0 q 459 -30 434 -63 q 408 -96 408 -133 z"},"Å":{"ha":504,"x_min":0,"x_max":504,"o":"m 504 0 l 476 0 l 386 275 l 120 275 l 27 0 l 0 0 l 241 715 l 271 715 l 504 0 z m 377 300 l 282 601 q 278 614 274 627 q 270 640 265 655 q 260 670 255 687 l 255 687 q 251 672 246 658 q 241 643 237 629 q 232 615 227 600 l 227 600 l 128 300 l 377 300 z m 254 697 l 254 697 q 216 697 187 723 q 158 749 158 792 l 158 792 q 158 834 186 861 q 214 887 254 887 l 254 887 q 293 887 321 860 q 349 832 349 792 l 349 792 q 349 750 322 724 q 294 697 254 697 z m 254 720 l 254 720 q 286 720 306 741 q 325 762 325 792 l 325 792 q 325 823 305 844 q 284 864 254 864 l 254 864 q 221 864 202 844 q 182 823 182 792 l 182 792 q 182 763 202 742 q 221 720 254 720 z"},"Ã":{"ha":504,"x_min":0,"x_max":504,"o":"m 504 0 l 476 0 l 386 275 l 120 275 l 27 0 l 0 0 l 241 715 l 271 715 l 504 0 z m 377 300 l 282 601 q 278 614 274 627 q 270 640 265 655 q 260 670 255 687 l 255 687 q 251 672 246 658 q 241 643 237 629 q 232 615 227 600 l 227 600 l 128 300 l 377 300 z m 126 804 l 102 804 q 104 828 111 846 q 117 864 128 876 q 139 887 153 893 q 167 898 184 898 l 184 898 q 207 898 225 887 q 242 876 257 863 q 271 849 287 838 q 302 827 321 827 l 321 827 q 342 827 359 843 q 376 858 379 898 l 379 898 l 403 898 q 400 850 377 827 q 354 803 320 803 l 320 803 q 296 803 279 814 q 262 825 247 839 q 232 852 217 863 q 202 874 182 874 l 182 874 q 164 874 147 860 q 130 845 126 804 l 126 804 z"},"Æ":{"ha":692,"x_min":-1,"x_max":666,"o":"m 666 25 l 666 0 l 314 0 l 314 274 l 130 274 l 30 0 l -1 0 l 268 714 l 666 714 l 666 689 l 340 689 l 340 389 l 649 389 l 649 364 l 340 364 l 340 25 l 666 25 z m 285 689 l 140 299 l 314 299 l 314 689 l 285 689 z"},"B":{"ha":546,"x_min":94,"x_max":496,"o":"m 94 714 l 266 714 q 378 714 429 672 q 479 629 479 545 l 479 545 q 479 503 465 468 q 450 432 422 409 q 394 385 353 377 l 353 377 l 353 375 q 405 366 437 343 q 468 319 482 283 q 496 247 496 201 l 496 201 q 496 132 468 88 q 440 43 390 22 q 340 0 274 0 l 274 0 l 94 0 l 94 714 z m 120 388 l 269 388 q 361 388 407 427 q 452 466 452 544 l 452 544 q 452 620 408 655 q 363 689 259 689 l 259 689 l 120 689 l 120 388 z m 268 363 l 120 363 l 120 25 l 277 25 q 366 25 418 68 q 469 110 469 201 l 469 201 q 469 263 445 298 q 420 333 375 348 q 330 363 268 363 l 268 363 z"},"C":{"ha":541,"x_min":60,"x_max":513,"o":"m 361 699 l 361 699 q 293 699 242 672 q 190 645 156 599 q 121 552 104 491 q 87 429 87 359 l 87 359 q 87 256 117 179 q 147 101 206 58 q 265 15 350 15 l 350 15 q 400 15 438 24 q 476 32 504 44 l 504 44 l 504 19 q 476 7 437 -1 q 398 -10 350 -10 l 350 -10 q 257 -10 192 36 q 127 82 94 165 q 60 247 60 359 l 60 359 q 60 435 79 501 q 98 567 137 617 q 175 667 231 696 q 287 724 361 724 l 361 724 q 403 724 440 716 q 477 707 513 690 l 513 690 l 502 666 q 465 686 430 693 q 394 699 361 699 z"},"Ć":{"ha":541,"x_min":60,"x_max":513,"o":"m 361 699 l 361 699 q 293 699 242 672 q 190 645 156 599 q 121 552 104 491 q 87 429 87 359 l 87 359 q 87 256 117 179 q 147 101 206 58 q 265 15 350 15 l 350 15 q 400 15 438 24 q 476 32 504 44 l 504 44 l 504 19 q 476 7 437 -1 q 398 -10 350 -10 l 350 -10 q 257 -10 192 36 q 127 82 94 165 q 60 247 60 359 l 60 359 q 60 435 79 501 q 98 567 137 617 q 175 667 231 696 q 287 724 361 724 l 361 724 q 403 724 440 716 q 477 707 513 690 l 513 690 l 502 666 q 465 686 430 693 q 394 699 361 699 z m 460 951 l 460 944 q 447 927 430 907 q 413 887 395 867 q 376 846 357 827 q 338 808 319 792 l 319 792 l 301 792 l 301 800 q 324 823 348 849 q 371 875 393 902 q 415 928 430 951 l 430 951 l 460 951 z"},"Č":{"ha":541,"x_min":60,"x_max":513,"o":"m 361 699 l 361 699 q 293 699 242 672 q 190 645 156 599 q 121 552 104 491 q 87 429 87 359 l 87 359 q 87 256 117 179 q 147 101 206 58 q 265 15 350 15 l 350 15 q 400 15 438 24 q 476 32 504 44 l 504 44 l 504 19 q 476 7 437 -1 q 398 -10 350 -10 l 350 -10 q 257 -10 192 36 q 127 82 94 165 q 60 247 60 359 l 60 359 q 60 435 79 501 q 98 567 137 617 q 175 667 231 696 q 287 724 361 724 l 361 724 q 403 724 440 716 q 477 707 513 690 l 513 690 l 502 666 q 465 686 430 693 q 394 699 361 699 z m 354 792 l 331 792 q 319 814 301 843 q 282 871 263 898 q 243 924 227 943 l 227 943 l 227 949 l 246 949 q 271 922 297 888 q 323 854 343 824 l 343 824 q 363 854 389 887 q 414 919 441 949 l 441 949 l 460 949 l 460 943 q 444 922 424 895 q 404 868 386 841 q 367 814 354 792 l 354 792 z"},"Ç":{"ha":541,"x_min":60,"x_max":513,"o":"m 361 699 l 361 699 q 293 699 242 672 q 190 645 156 599 q 121 552 104 491 q 87 429 87 359 l 87 359 q 87 256 117 179 q 147 101 206 58 q 265 15 350 15 l 350 15 q 400 15 438 24 q 476 32 504 44 l 504 44 l 504 19 q 476 7 437 -1 q 398 -10 350 -10 l 350 -10 q 257 -10 192 36 q 127 82 94 165 q 60 247 60 359 l 60 359 q 60 435 79 501 q 98 567 137 617 q 175 667 231 696 q 287 724 361 724 l 361 724 q 403 724 440 716 q 477 707 513 690 l 513 690 l 502 666 q 465 686 430 693 q 394 699 361 699 z m 406 -145 l 406 -145 q 406 -188 375 -214 q 344 -240 295 -240 l 295 -240 q 279 -240 266 -238 q 253 -237 242 -234 l 242 -234 l 242 -210 q 254 -214 267 -215 q 279 -216 295 -216 l 295 -216 q 331 -216 356 -198 q 381 -180 381 -146 l 381 -146 q 381 -113 356 -98 q 331 -84 282 -84 l 282 -84 l 322 0 l 348 0 l 317 -64 q 346 -66 366 -76 q 386 -87 396 -104 q 406 -121 406 -145 z"},"Ċ":{"ha":541,"x_min":60,"x_max":513,"o":"m 361 699 l 361 699 q 293 699 242 672 q 190 645 156 599 q 121 552 104 491 q 87 429 87 359 l 87 359 q 87 256 117 179 q 147 101 206 58 q 265 15 350 15 l 350 15 q 400 15 438 24 q 476 32 504 44 l 504 44 l 504 19 q 476 7 437 -1 q 398 -10 350 -10 l 350 -10 q 257 -10 192 36 q 127 82 94 165 q 60 247 60 359 l 60 359 q 60 435 79 501 q 98 567 137 617 q 175 667 231 696 q 287 724 361 724 l 361 724 q 403 724 440 716 q 477 707 513 690 l 513 690 l 502 666 q 465 686 430 693 q 394 699 361 699 z m 343 908 l 343 908 q 360 908 365 898 q 370 888 370 876 l 370 876 q 370 862 365 853 q 359 844 343 844 l 343 844 q 329 844 324 854 q 318 863 318 876 l 318 876 q 318 888 323 898 q 328 908 343 908 z"},"D":{"ha":611,"x_min":94,"x_max":551,"o":"m 551 364 l 551 364 q 551 244 517 163 q 482 82 412 41 q 341 0 232 0 l 232 0 l 94 0 l 94 714 l 247 714 q 351 714 418 675 q 485 635 518 557 q 551 479 551 364 z m 524 363 l 524 363 q 524 468 495 541 q 466 613 404 651 q 341 689 240 689 l 240 689 l 120 689 l 120 25 l 233 25 q 382 25 453 110 q 524 194 524 363 z"},"Ð":{"ha":614,"x_min":22,"x_max":554,"o":"m 96 714 l 250 714 q 354 714 421 675 q 488 635 521 557 q 554 479 554 364 l 554 364 q 554 244 520 163 q 485 82 414 41 q 343 0 235 0 l 235 0 l 96 0 l 96 350 l 22 350 l 22 375 l 96 375 l 96 714 z m 243 689 l 243 689 l 122 689 l 122 375 l 303 375 l 303 350 l 122 350 l 122 25 l 236 25 q 384 25 456 110 q 527 194 527 363 l 527 363 q 527 468 498 541 q 469 613 407 651 q 344 689 243 689 z"},"Ď":{"ha":611,"x_min":94,"x_max":551,"o":"m 551 364 l 551 364 q 551 244 517 163 q 482 82 412 41 q 341 0 232 0 l 232 0 l 94 0 l 94 714 l 247 714 q 351 714 418 675 q 485 635 518 557 q 551 479 551 364 z m 524 363 l 524 363 q 524 468 495 541 q 466 613 404 651 q 341 689 240 689 l 240 689 l 120 689 l 120 25 l 233 25 q 382 25 453 110 q 524 194 524 363 z m 316 792 l 293 792 q 281 814 263 843 q 244 871 225 898 q 205 924 189 943 l 189 943 l 189 949 l 208 949 q 233 922 259 888 q 285 854 305 824 l 305 824 q 325 854 351 887 q 376 919 403 949 l 403 949 l 422 949 l 422 943 q 406 922 386 895 q 366 868 348 841 q 329 814 316 792 l 316 792 z"},"Đ":{"ha":614,"x_min":22,"x_max":554,"o":"m 96 714 l 250 714 q 354 714 421 675 q 488 635 521 557 q 554 479 554 364 l 554 364 q 554 244 520 163 q 485 82 414 41 q 343 0 235 0 l 235 0 l 96 0 l 96 350 l 22 350 l 22 375 l 96 375 l 96 714 z m 243 689 l 243 689 l 122 689 l 122 375 l 303 375 l 303 350 l 122 350 l 122 25 l 236 25 q 384 25 456 110 q 527 194 527 363 l 527 363 q 527 468 498 541 q 469 613 407 651 q 344 689 243 689 z"},"E":{"ha":488,"x_min":94,"x_max":431,"o":"m 431 25 l 431 0 l 94 0 l 94 714 l 431 714 l 431 689 l 120 689 l 120 389 l 414 389 l 414 364 l 120 364 l 120 25 l 431 25 z"},"É":{"ha":488,"x_min":94,"x_max":431,"o":"m 431 25 l 431 0 l 94 0 l 94 714 l 431 714 l 431 689 l 120 689 l 120 389 l 414 389 l 414 364 l 120 364 l 120 25 l 431 25 z m 389 951 l 389 944 q 376 927 359 907 q 342 887 324 867 q 305 846 286 827 q 267 808 248 792 l 248 792 l 230 792 l 230 800 q 253 823 277 849 q 300 875 322 902 q 344 928 359 951 l 359 951 l 389 951 z"},"Ě":{"ha":488,"x_min":94,"x_max":431,"o":"m 431 25 l 431 0 l 94 0 l 94 714 l 431 714 l 431 689 l 120 689 l 120 389 l 414 389 l 414 364 l 120 364 l 120 25 l 431 25 z m 283 792 l 260 792 q 248 814 230 843 q 211 871 192 898 q 172 924 156 943 l 156 943 l 156 949 l 175 949 q 200 922 226 888 q 252 854 272 824 l 272 824 q 292 854 318 887 q 343 919 370 949 l 370 949 l 389 949 l 389 943 q 373 922 353 895 q 333 868 315 841 q 296 814 283 792 l 283 792 z"},"Ê":{"ha":488,"x_min":94,"x_max":431,"o":"m 431 25 l 431 0 l 94 0 l 94 714 l 431 714 l 431 689 l 120 689 l 120 389 l 414 389 l 414 364 l 120 364 l 120 25 l 431 25 z m 260 949 l 285 949 q 297 928 317 899 q 336 870 356 843 q 376 815 390 798 l 390 798 l 390 792 l 371 792 q 346 819 320 854 q 293 889 273 918 l 273 918 q 252 890 225 855 q 198 819 173 792 l 173 792 l 154 792 l 154 798 q 170 818 190 845 q 210 872 229 900 q 248 928 260 949 l 260 949 z"},"Ë":{"ha":488,"x_min":94,"x_max":431,"o":"m 431 25 l 431 0 l 94 0 l 94 714 l 431 714 l 431 689 l 120 689 l 120 389 l 414 389 l 414 364 l 120 364 l 120 25 l 431 25 z m 164 858 l 164 858 q 164 871 170 881 q 175 890 188 890 l 188 890 q 203 890 208 881 q 213 871 213 859 l 213 859 q 213 845 208 836 q 203 827 188 827 l 188 827 q 175 827 170 837 q 164 846 164 858 z m 333 859 l 333 859 q 333 871 339 881 q 345 890 357 890 l 357 890 q 372 890 377 881 q 382 872 382 859 l 382 859 q 382 846 377 837 q 372 827 357 827 l 357 827 q 345 827 339 837 q 333 846 333 859 z"},"Ė":{"ha":488,"x_min":94,"x_max":431,"o":"m 431 25 l 431 0 l 94 0 l 94 714 l 431 714 l 431 689 l 120 689 l 120 389 l 414 389 l 414 364 l 120 364 l 120 25 l 431 25 z m 272 908 l 272 908 q 289 908 294 898 q 299 888 299 876 l 299 876 q 299 862 294 853 q 288 844 272 844 l 272 844 q 258 844 253 854 q 247 863 247 876 l 247 876 q 247 888 252 898 q 257 908 272 908 z"},"È":{"ha":488,"x_min":94,"x_max":431,"o":"m 431 25 l 431 0 l 94 0 l 94 714 l 431 714 l 431 689 l 120 689 l 120 389 l 414 389 l 414 364 l 120 364 l 120 25 l 431 25 z m 193 951 l 223 951 q 239 928 261 901 q 283 873 308 847 q 332 821 353 800 l 353 800 l 353 792 l 334 792 q 316 808 297 827 q 277 846 259 866 q 240 886 223 906 q 206 926 193 944 l 193 944 l 193 951 z"},"Ē":{"ha":488,"x_min":94,"x_max":431,"o":"m 431 25 l 431 0 l 94 0 l 94 714 l 431 714 l 431 689 l 120 689 l 120 389 l 414 389 l 414 364 l 120 364 l 120 25 l 431 25 z m 155 825 l 391 825 l 391 801 l 155 801 l 155 825 z"},"Ę":{"ha":488,"x_min":94,"x_max":431,"o":"m 431 25 l 431 0 l 94 0 l 94 714 l 431 714 l 431 689 l 120 689 l 120 389 l 414 389 l 414 364 l 120 364 l 120 25 l 431 25 z m 316 -133 l 316 -133 q 316 -161 330 -176 q 343 -192 370 -192 l 370 -192 q 382 -192 394 -190 q 406 -188 412 -186 l 412 -186 l 412 -210 q 405 -212 394 -214 q 382 -217 368 -217 l 368 -217 q 334 -217 312 -196 q 290 -176 290 -137 l 290 -137 q 290 -112 301 -87 q 311 -63 332 -38 q 352 -14 384 10 l 384 10 l 403 0 q 367 -30 342 -63 q 316 -96 316 -133 z"},"F":{"ha":441,"x_min":94,"x_max":432,"o":"m 120 329 l 120 0 l 94 0 l 94 714 l 432 714 l 432 689 l 120 689 l 120 354 l 416 354 l 416 329 l 120 329 z"},"G":{"ha":647,"x_min":60,"x_max":575,"o":"m 342 325 l 342 350 l 575 350 l 575 32 q 531 11 479 1 q 427 -10 377 -10 l 377 -10 q 272 -10 202 34 q 131 78 96 160 q 60 242 60 355 l 60 355 q 60 462 98 546 q 136 629 208 677 q 280 725 384 725 l 384 725 q 433 725 479 715 q 524 705 567 681 l 567 681 l 554 657 q 510 682 468 691 q 425 700 383 700 l 383 700 q 288 700 222 656 q 155 611 121 533 q 86 455 86 355 l 86 355 q 86 242 121 167 q 155 91 221 53 q 286 15 379 15 l 379 15 q 428 15 471 24 q 514 33 549 46 l 549 46 l 549 325 l 342 325 z"},"Ğ":{"ha":647,"x_min":60,"x_max":575,"o":"m 342 325 l 342 350 l 575 350 l 575 32 q 531 11 479 1 q 427 -10 377 -10 l 377 -10 q 272 -10 202 34 q 131 78 96 160 q 60 242 60 355 l 60 355 q 60 462 98 546 q 136 629 208 677 q 280 725 384 725 l 384 725 q 433 725 479 715 q 524 705 567 681 l 567 681 l 554 657 q 510 682 468 691 q 425 700 383 700 l 383 700 q 288 700 222 656 q 155 611 121 533 q 86 455 86 355 l 86 355 q 86 242 121 167 q 155 91 221 53 q 286 15 379 15 l 379 15 q 428 15 471 24 q 514 33 549 46 l 549 46 l 549 325 l 342 325 z m 456 903 l 480 903 q 477 868 463 844 q 448 819 424 806 q 399 793 366 793 l 366 793 q 317 793 287 821 q 256 849 252 903 l 252 903 l 276 903 q 279 877 289 858 q 299 839 319 828 q 339 817 366 817 l 366 817 q 396 817 415 828 q 434 839 444 859 q 454 878 456 903 l 456 903 z"},"Ģ":{"ha":647,"x_min":60,"x_max":575,"o":"m 342 325 l 342 350 l 575 350 l 575 32 q 531 11 479 1 q 427 -10 377 -10 l 377 -10 q 272 -10 202 34 q 131 78 96 160 q 60 242 60 355 l 60 355 q 60 462 98 546 q 136 629 208 677 q 280 725 384 725 l 384 725 q 433 725 479 715 q 524 705 567 681 l 567 681 l 554 657 q 510 682 468 691 q 425 700 383 700 l 383 700 q 288 700 222 656 q 155 611 121 533 q 86 455 86 355 l 86 355 q 86 242 121 167 q 155 91 221 53 q 286 15 379 15 l 379 15 q 428 15 471 24 q 514 33 549 46 l 549 46 l 549 325 l 342 325 z m 397 -61 l 397 -68 q 391 -93 383 -119 q 374 -146 363 -171 q 352 -197 338 -221 l 338 -221 l 322 -221 l 322 -214 q 330 -197 340 -169 q 349 -141 357 -111 q 365 -82 367 -61 l 367 -61 l 397 -61 z"},"Ġ":{"ha":647,"x_min":60,"x_max":575,"o":"m 342 325 l 342 350 l 575 350 l 575 32 q 531 11 479 1 q 427 -10 377 -10 l 377 -10 q 272 -10 202 34 q 131 78 96 160 q 60 242 60 355 l 60 355 q 60 462 98 546 q 136 629 208 677 q 280 725 384 725 l 384 725 q 433 725 479 715 q 524 705 567 681 l 567 681 l 554 657 q 510 682 468 691 q 425 700 383 700 l 383 700 q 288 700 222 656 q 155 611 121 533 q 86 455 86 355 l 86 355 q 86 242 121 167 q 155 91 221 53 q 286 15 379 15 l 379 15 q 428 15 471 24 q 514 33 549 46 l 549 46 l 549 325 l 342 325 z m 365 908 l 365 908 q 382 908 387 898 q 392 888 392 876 l 392 876 q 392 862 387 853 q 381 844 365 844 l 365 844 q 351 844 346 854 q 340 863 340 876 l 340 876 q 340 888 345 898 q 350 908 365 908 z"},"H":{"ha":625,"x_min":94,"x_max":532,"o":"m 532 714 l 532 0 l 506 0 l 506 363 l 120 363 l 120 0 l 94 0 l 94 714 l 120 714 l 120 388 l 506 388 l 506 714 l 532 714 z"},"Ħ":{"ha":627,"x_min":0,"x_max":627,"o":"m 120 0 l 94 0 l 94 548 l 0 548 l 0 573 l 94 573 l 94 714 l 120 714 l 120 573 l 506 573 l 506 714 l 532 714 l 532 573 l 627 573 l 627 548 l 532 548 l 532 0 l 506 0 l 506 363 l 120 363 l 120 0 z m 120 548 l 120 388 l 506 388 l 506 548 l 120 548 z"},"I":{"ha":260,"x_min":53,"x_max":208,"o":"m 208 20 l 208 0 l 53 0 l 53 20 l 118 23 l 118 690 l 53 694 l 53 714 l 208 714 l 208 694 l 143 690 l 143 23 l 208 20 z"},"Ĳ":{"ha":479,"x_min":53,"x_max":389,"o":"m 208 20 l 208 0 l 53 0 l 53 20 l 118 23 l 118 690 l 53 694 l 53 714 l 208 714 l 208 694 l 143 690 l 143 23 l 208 20 z m 258 -174 l 258 -174 q 234 -174 217 -170 q 199 -167 186 -162 l 186 -162 l 186 -135 q 200 -141 219 -144 q 238 -148 258 -148 l 258 -148 q 299 -148 322 -130 q 345 -113 354 -80 q 363 -48 363 -5 l 363 -5 l 363 714 l 389 714 l 389 -10 q 389 -59 377 -96 q 364 -133 335 -153 q 306 -174 258 -174 z"},"Í":{"ha":260,"x_min":53,"x_max":246,"o":"m 208 20 l 208 0 l 53 0 l 53 20 l 118 23 l 118 690 l 53 694 l 53 714 l 208 714 l 208 694 l 143 690 l 143 23 l 208 20 z m 247 951 l 247 944 q 234 927 217 907 q 200 887 182 867 q 163 846 144 827 q 125 808 106 792 l 106 792 l 88 792 l 88 800 q 111 823 135 849 q 158 875 180 902 q 202 928 217 951 l 217 951 l 247 951 z"},"Î":{"ha":260,"x_min":12,"x_max":248,"o":"m 208 20 l 208 0 l 53 0 l 53 20 l 118 23 l 118 690 l 53 694 l 53 714 l 208 714 l 208 694 l 143 690 l 143 23 l 208 20 z m 118 949 l 143 949 q 155 928 175 899 q 194 870 214 843 q 234 815 248 798 l 248 798 l 248 792 l 229 792 q 204 819 178 854 q 151 889 131 918 l 131 918 q 110 890 83 855 q 56 819 31 792 l 31 792 l 12 792 l 12 798 q 28 818 48 845 q 68 872 87 900 q 106 928 118 949 l 118 949 z"}}}
